/* XPM */
static char *f4c9ce850db348dfe523a026d9705607z787weSdZTJouu9w[] = {
/* columns rows colors chars-per-pixel */
"36 36 9 1 ",
"  c None",
". c #915841",
"X c #A0654D",
"o c #B56E4B",
"O c #4FAF7B",
"+ c #74C857",
"@ c #CA8054",
"# c #54AD9F",
"$ c #58CBB9",
/* pixels */
"                 $$#.X.OO+++++++++++",
"                 $##.XX.OO++++++++++",
"                $$#.XXXO++++++++++++",
"                $$#.oXOO++++++++++++",
"                $$#.oXO+++++++++++++",
"                $$#.oX.O++++++++++++",
"                $$#.oXOOO+++++++++++",
"                $$#.XXO+++++++++++++",
"                 $##.XOO++++++++++++",
"                 $$#.X.OO+++++++++++",
"                  $##.X.O+++++++++++",
"                  $$#.OO++++++++++++",
"                 $$$##XO++++++++++++",
"                 $$$X@O+++++++++++++",
"                 $XOXOO+++++++++++++",
"                $X@OO+++++++++++++++",
"                X@OO++++++++++++++++",
"                OO+O++++++++++++++++",
"               XXO++++++++++++++++++",
"               @OO++++++++++++++++++",
"             OOO++++++++++++++++++++",
"    X@@@X    XO+++++++++++++++++++++",
"  XOOXOOOX OOO++++++++++++++++++++++",
"OXOO+OO+OOXOO+++++++++++++++++++++++",
"OO++++O++OO+++++++++++++++++++++++++",
"+O++++++++++++++++++++++++++++++++++",
"++++++++++++++++++++++++++++++++++++",
"++++++++++++++++++++++++++++++++++++",
"++++++++++++++++++++++++++++++++++++",
"++++++++++++++++++++++++++++++++++++",
"++++++++++++++++++++++++++++++++++++",
"++++++++++++++++++++++++++++++++++++",
"++++++++++++++++++++++++++++++++++++",
"++++++++++++++++++++++++++++++++++++",
"++++++++++++++++++++++++++++++++++++",
"++++++++++++++++++++++++++++++++++++"
};
