/* XPM */
static char *_e3987bea21c4bb0defb8f5bd47097b98CSfDcHZPYK3Kyk9[] = {
/* columns rows colors chars-per-pixel */
"36 36 9 1 ",
"  c None",
". c #915841",
"X c #A0654D",
"o c #B56E4B",
"O c #4FAF7B",
"+ c #74C857",
"@ c #CA8054",
"# c #54AD9F",
"$ c #58CBB9",
/* pixels */
"+++++++++++OO.X.#$$                 ",
"++++++++++OO.XX.##$                 ",
"++++++++++++OXXX.#$$                ",
"++++++++++++OOXo.#$$                ",
"+++++++++++++OXo.#$$                ",
"++++++++++++O.Xo.#$$                ",
"+++++++++++OOOXo.#$$                ",
"+++++++++++++OXX.#$$                ",
"++++++++++++OOX.##$                 ",
"+++++++++++OO.X.#$$                 ",
"+++++++++++O.X.##$                  ",
"++++++++++++OO.#$$                  ",
"++++++++++++OX###$$                 ",
"+++++++++++++O@X#$$                 ",
"+++++++++++++OOXOX$                 ",
"+++++++++++++++OO@X$                ",
"++++++++++++++++OO@X                ",
"++++++++++++++++O+OO                ",
"++++++++++++++++++OXX               ",
"++++++++++++++++++OO@               ",
"++++++++++++++++++++OOO             ",
"+++++++++++++++++++++OX     X@@@X   ",
"++++++++++++++++++++++OO  XOOXOOOX O",
"+++++++++++++++++++++++OOXOO+OO+OOXO",
"++++++++++++++++++++++++OO++++O++OO+",
"+++++++++++++++++++++++++O++++++++++",
"++++++++++++++++++++++++++++++++++++",
"++++++++++++++++++++++++++++++++++++",
"++++++++++++++++++++++++++++++++++++",
"++++++++++++++++++++++++++++++++++++",
"++++++++++++++++++++++++++++++++++++",
"++++++++++++++++++++++++++++++++++++",
"++++++++++++++++++++++++++++++++++++",
"++++++++++++++++++++++++++++++++++++",
"++++++++++++++++++++++++++++++++++++",
"++++++++++++++++++++++++++++++++++++"
};
