/* XPM */
static char *e1fea1ea2d064be1a9b7ba8532dca051XouKEiWy8TewhuDu[] = {
/* columns rows colors chars-per-pixel */
"25 25 12 1 ",
"  c None",
". c #915841",
"X c #A0654D",
"o c #B56E4B",
"O c #4FAF7B",
"+ c #74C857",
"@ c #CA8054",
"# c #54AD9F",
"$ c #58CBB9",
"% c #79CDC0",
"& c #91EDDF",
"* c #BFFCF3",
/* pixels */
"                         ",
"                         ",
"$   $$$$$       $$$$$    ",
"$ $$$$$$$$$   $$$$$$$$$  ",
"$$$$#####$$$$$$$#####$$$ ",
"$$########$$$$########$$$",
"####&*&&&#######&*&%&###$",
"##*%.....%####*&.....%###",
"%%..XXXXX.%&%%..XXXXX.%%#",
"..XXXXXXXX....XXXXXXXX..&",
"XXXXXoooXXXXXXXXXoooXXXX.",
"XXXXoooooXXXXXXXoooooXXX.",
"XXoooooooooXXXoooooooooXX",
"Xoooo@@@oooXXoooo@@@oooXX",
"Xooo@@@@@ooXXooo@@@@@ooXX",
"Xooo@@@@@ooXXooo@@@@@ooXX",
"Xoo@@@@@@@oXXoo@@@@@@@oXX",
"Xooo@@@o@@oXXooo@@@o@@oXX",
"XXoOXXXOX@oXXXoOXXXOX@oXX",
"OXXOOO.OOXXXOXXOOO.OOXXXX",
"O.OO+OO+OO.OO.OO+OO+OO.OO",
"+OO++O++++OO+OO++O++++OOO",
"++++++++++O+++++++++++O++",
"+++++++++++++++++++++++++",
"+++++++++++++++++++++++++"
};
