/* XPM */
static char *_30963a8af6d4e7dc2f418cf75bfcc7bDSLiu9zg57uemkiR[] = {
/* columns rows colors chars-per-pixel */
"25 25 12 1 ",
"  c None",
". c #915841",
"X c #A0654D",
"o c #B56E4B",
"O c #4FAF7B",
"+ c #74C857",
"@ c #CA8054",
"# c #54AD9F",
"$ c #58CBB9",
"% c #79CDC0",
"& c #91EDDF",
"* c #BFFCF3",
/* pixels */
"++++OOXXXXXXXXX.%##$$$$  ",
"+++O.XXoooooXXX.%##$$    ",
"+++OOXoooooooXXX.*##$$   ",
"++++OOOo@ooooXXX.%##$$   ",
"+++++OX@@@@oooXXX.&##$$  ",
"+++OOOX@@@@@oooXX.*##$$  ",
"++++O.X@@@@@oooXX.&##$$  ",
"+++++OOo@@@@oooXX.&##$$  ",
"++++OOX@@@@oooXXX.&##$$  ",
"++++OX@@@ooooXXX.%##$$   ",
"++OO.XoooooooXX.%##$$$   ",
"+++OOXXXXXXXXXX.&##$$    ",
"++++OOXXXXXXXXX.%##$$    ",
"+++O.XXoooooXXX.%##$$    ",
"+++OOXoooooooXXX.*##$$   ",
"++++OOOo@ooooXXX.&##$$   ",
"+++++OX@@@@oooXXX.&##$$  ",
"+++OOOX@@@@@oooXX.*##$$  ",
"++++O.X@@@@@oooXX.&##$$  ",
"+++++OOo@@@@oooXX.%##$$  ",
"++++OOX@@@@oooXXX.&##$$  ",
"++++OX@@@ooooXXX.%##$$   ",
"++OO.XoooooooXX.%##$$$   ",
"+++OOXXXXXXXXXX.%##$$    ",
"+++OOXXXXXXXX..&##$$     "
};
