/* XPM */
static char *_3e33209bc494fd0c423bccde27937f7WYwrKiXGGOD3AJMF[] = {
/* columns rows colors chars-per-pixel */
"25 25 12 1 ",
"  c None",
". c #915841",
"X c #A0654D",
"o c #B56E4B",
"O c #4FAF7B",
"+ c #74C857",
"@ c #CA8054",
"# c #54AD9F",
"$ c #58CBB9",
"% c #79CDC0",
"& c #91EDDF",
"* c #BFFCF3",
/* pixels */
"     $$##&..XXXXXXXXOO+++",
"    $$##%.XXXXXXXXXXOO+++",
"   $$$##%.XXoooooooX.OO++",
"   $$##%.XXXoooo@@@XO++++",
"  $$##&.XXXooo@@@@XOO++++",
"  $$##%.XXooo@@@@oOO+++++",
"  $$##&.XXooo@@@@@X.O++++",
"  $$##*.XXooo@@@@@XOOO+++",
"  $$##&.XXXooo@@@@XO+++++",
"   $$##&.XXXoooo@oOOO++++",
"   $$##*.XXXoooooooXOO+++",
"    $$##%.XXXoooooXX.O+++",
"    $$##%.XXXXXXXXXOO++++",
"    $$##&.XXXXXXXXXXOO+++",
"   $$$##%.XXoooooooX.OO++",
"   $$##%.XXXoooo@@@XO++++",
"  $$##&.XXXooo@@@@XOO++++",
"  $$##&.XXooo@@@@oOO+++++",
"  $$##&.XXooo@@@@@X.O++++",
"  $$##*.XXooo@@@@@XOOO+++",
"  $$##&.XXXooo@@@@XO+++++",
"   $$##%.XXXoooo@oOOO++++",
"   $$##*.XXXoooooooXOO+++",
"    $$##%.XXXoooooXX.O+++",
"  $$$$##%.XXXXXXXXXOO++++"
};
