/* XPM */
static char *_46a9c4073f54fe6d6bd60532ef9c634u7zBsm0pnPo1QQ6B[] = {
/* columns rows colors chars-per-pixel */
"36 36 12 1 ",
"  c None",
". c #915841",
"X c #A0654D",
"o c #B56E4B",
"O c #4FAF7B",
"+ c #74C857",
"@ c #CA8054",
"# c #54AD9F",
"$ c #58CBB9",
"% c #79CDC0",
"& c #91EDDF",
"* c #BFFCF3",
/* pixels */
"++++++++++++++++++++++++++++++++++++",
"++++++++++++++++++++++++++++++++++++",
"++++++++++++++++++++++++++++++++++++",
"++++++++++++++++++++++++++++++++++++",
"++++++++++++++++++++++++++++++++++++",
"++++++++++++++++++++++++++++++++++++",
"+O+++++++++++O++++++++++++++++++++++",
"OO++++O++OO+OO++++++++++++++++++++++",
"O.OO+OO+OO.OO.OO++++++++++++++++++++",
"XXXOO.OOOXXOXX.OO+++++++++++++++++++",
"Xo@XOXXXOoXXXXX.O+++++++++++++++++++",
"Xo@@o@@@oooXXXooXOO+++++++++++++++++",
"Xo@@@@@@@ooXXXooOO++++++++++++++++++",
"Xoo@@@@@oooXXXooX.O+++++++++++++++++",
"Xoo@@@@@oooXXXoo@@OOO+++++++++++++++",
"Xooo@@@ooooXXXoo@@XO.O++++++++++++++",
"XoooooooooXXXXXo@@@XXOO+++++++++++++",
"XXXoooooXXXXXXXoo@@ooX.O++++++++++++",
"XXXXoooXXXXX..XXoooooXOOO+++++++++++",
"..XXXXXXXX..%%.XXoooXXO+++++++++++++",
"*&.XXXXX..*&##.XXXXXXXOO++++++++++++",
"##%.....%%####&..XXXXX.OO+++++++++++",
"###&&*&&####$$#&%...XXX.O+++++++++++",
"$#########$$$$###*&...OO++++++++++++",
"$$$#####$$$$ $$####%.X.OO+++++++++++",
" $$$$$$$$$   $$$$###.XX.OO++++++++++",
"   $$$$$       $$$#.XXXO++++++++++++",
"                $$#.oXOO++++++++++++",
"                 $#.oXO+++++++++++++",
"                 $#.oX.O++++++++++++",
"                 $#.oXOOO+++++++++++",
"                 $#.XXO+++++++++++++",
"                 $##.XOO++++++++++++",
"                 $$#.X.OO+++++++++++",
"                  $##.X.O+++++++++++",
"                  $$#.OO++++++++++++"
};
