/* XPM */
static char *_a8a03c584a844939c51497877d6f25cuBamWtKoIAvqKHUl[] = {
/* columns rows colors chars-per-pixel */
"36 36 12 1 ",
"  c None",
". c #915841",
"X c #A0654D",
"o c #B56E4B",
"O c #4FAF7B",
"+ c #74C857",
"@ c #CA8054",
"# c #54AD9F",
"$ c #58CBB9",
"% c #79CDC0",
"& c #91EDDF",
"* c #BFFCF3",
/* pixels */
"++++++++++++++++++++++++++++++++++++",
"++++++++++++++++++++++++++++++++++++",
"++++++++++++++++++++++++++++++++++++",
"++++++++++++++++++++++++++++++++++++",
"++++++++++++++++++++++++++++++++++++",
"++++++++++++++++++++++++++++++++++++",
"+++++++++++++++++++++++++O++++++++++",
"+++++++++++++++++++++OO+OO++++O++OO+",
"++++++++++++++++++++OO.OO.OO+OO+OO.O",
"++++++++++++++++++++O.XOXXXOO.OOOXXO",
"++++++++++++++++++OO.XXXXo@XOXXXOoXX",
"+++++++++++++++++++OOoXXXo@@o@@@oooX",
"++++++++++++++++++O.XoXXXo@@@@@@@ooX",
"++++++++++++++++OOO@ooXXXoo@@@@@oooX",
"+++++++++++++++O.OX@ooXXXoo@@@@@oooX",
"++++++++++++++OOXX@@ooXXXooo@@@ooooX",
"+++++++++++++OO.@@@@oXXXXoooooooooXX",
"++++++++++++O.XXo@@ooXXXXXXoooooXXXX",
"+++++++++++OOOXXooooXX..XXXXoooXXXXX",
"+++++++++++++OXXXooXX.%%..XXXXXXXX..",
"++++++++++++OOXXXXXXX.##*&.XXXXX..*&",
"+++++++++++OO.XXXXX..%####%.....%%##",
"+++++++++++O.XXX...%*#$$###&&*&&####",
"++++++++++++OO...%&###$$$#########$$",
"+++++++++++OO.X.&####$$$$$$#####$$$$",
"++++++++++OO.XX.###$$$$  $$$$$$$$$  ",
"++++++++++++OXXX.#$$$      $$$$$    ",
"++++++++++++OOXo.#$$                ",
"+++++++++++++OXo.#$                 ",
"++++++++++++O.Xo.#$                 ",
"+++++++++++OOOXo.#$                 ",
"+++++++++++++OXX.#$                 ",
"++++++++++++OOX.##$                 ",
"+++++++++++OO.X.#$$                 ",
"+++++++++++O.X.##$                  ",
"++++++++++++OO.#$$                  "
};
