/* XPM */
static char *e7b33542a209406c84b44c2a527bb00e3ve59DVQF356R6rw[] = {
/* columns rows colors chars-per-pixel */
"25 25 12 1 ",
"  c None",
". c #915841",
"X c #A0654D",
"o c #B56E4B",
"O c #4FAF7B",
"+ c #74C857",
"@ c #CA8054",
"# c #54AD9F",
"$ c #58CBB9",
"% c #79CDC0",
"& c #91EDDF",
"* c #BFFCF3",
/* pixels */
"+++++++++++++++++++++++++",
"+++++++++++++++++++++++++",
"++O+++++++++++O++++++++++",
"OOO++++O++OO+OO++++O++OO+",
"OO.OO+OO+OO.OO.OO+OO+OO.O",
"XXXXOO.OOOXXOXXXOO.OOOXXO",
"XXo@XOXXXOoXXXo@XOXXXOoXX",
"XXo@@o@@@oooXXo@@o@@@oooX",
"XXo@@@@@@@ooXXo@@@@@@@ooX",
"XXoo@@@@@oooXXoo@@@@@oooX",
"XXoo@@@@@oooXXoo@@@@@oooX",
"XXooo@@@ooooXXooo@@@ooooX",
"XXoooooooooXXXoooooooooXX",
".XXXoooooXXXXXXXoooooXXXX",
".XXXXoooXXXXXXXXXoooXXXXX",
"&..XXXXXXXX....XXXXXXXX..",
"#%%.XXXXX..%%&%.XXXXX..%%",
"###%.....&*####%.....%*##",
"$###&%&*&#######&&&*&####",
"$$$########$$$$########$$",
" $$$#####$$$$$$$#####$$$$",
"  $$$$$$$$$   $$$$$$$$$ $",
"    $$$$$       $$$$$   $",
"                         ",
"                         "
};
