/* XPM */
static char *result[] = {
/* columns rows colors chars-per-pixel */
"36 36 184 2 ",
"   c #2A636F",
".  c #216B75",
"X  c #594658",
"o  c #495160",
"O  c #097283",
"+  c #017C85",
"@  c #007588",
"#  c #007F89",
"$  c #037C91",
"%  c #017AA4",
"&  c #017AA5",
"*  c #017AA6",
"=  c #007DB8",
"-  c #017EB8",
";  c #0A8084",
":  c #088287",
">  c #00818A",
",  c #01818A",
"<  c #01828A",
"1  c #008789",
"2  c #00878A",
"3  c #0F808F",
"4  c #00898A",
"5  c #008D8A",
"6  c #00938A",
"7  c #00938B",
"8  c #00958E",
"9  c #00958F",
"0  c #01978F",
"q  c #05988E",
"w  c #018D9F",
"e  c #049790",
"r  c #049D90",
"t  c #00A092",
"y  c #00A791",
"u  c #08A393",
"i  c #09A195",
"p  c #00A993",
"a  c #0FAA95",
"s  c #00B096",
"d  c #01B496",
"f  c #00B596",
"g  c #00B597",
"h  c #00B697",
"j  c #00B797",
"k  c #00BD99",
"l  c #02BD99",
"z  c #00BE99",
"x  c #00BF99",
"c  c #01BF9A",
"v  c #04BE9A",
"b  c #05BE9A",
"n  c #18BC9B",
"m  c #23B49A",
"M  c #39B79C",
"N  c #3AB89D",
"B  c #0089A9",
"V  c #0680B8",
"C  c #1581B5",
"Z  c #58A6BD",
"A  c #5FB0B3",
"S  c #00C099",
"D  c #01C09A",
"F  c #00C19A",
"G  c #00C29A",
"H  c #02C29A",
"J  c #02C39B",
"K  c #04C39B",
"L  c #05C69C",
"P  c #09C59C",
"I  c #0AC69C",
"U  c #0DC99D",
"Y  c #10CB9E",
"T  c #14CC9F",
"R  c #15CD9F",
"E  c #17CD9F",
"W  c #14CF9F",
"Q  c #18CD9F",
"!  c #1ACC9F",
"~  c #20C99F",
"^  c #19CFA0",
"/  c #1DCFA0",
"(  c #20D1A1",
")  c #21D1A1",
"_  c #25D3A2",
"`  c #24D6A2",
"'  c #2FD3A2",
"]  c #28D5A2",
"[  c #2CD6A3",
"{  c #2CD7A3",
"}  c #30D9A4",
"|  c #31D9A4",
" . c #32DAA5",
".. c #35DBA5",
"X. c #38DDA6",
"o. c #3DE2A7",
"O. c #41C09F",
"+. c #41C7A1",
"@. c #40DCA6",
"#. c #41E1A8",
"$. c #40E3A8",
"%. c #42E3A8",
"&. c #44E2A8",
"*. c #45E3A8",
"=. c #47E4A9",
"-. c #49E7AA",
";. c #4AE6AA",
":. c #4DE7AA",
">. c #4BE8AA",
",. c #4DE8AA",
"<. c #4DE9AB",
"1. c #4EE9AB",
"2. c #5BE0AA",
"3. c #53EAAC",
"4. c #54EAAC",
"5. c #58EEAD",
"6. c #5BEEAD",
"7. c #5DEFAE",
"8. c #61F1AF",
"9. c #62F2AF",
"0. c #63F2AF",
"q. c #65F3AF",
"w. c #66F3AF",
"e. c #66F4B0",
"r. c #6AF3B0",
"t. c #68F5B0",
"y. c #6AF5B0",
"u. c #6BF5B0",
"i. c #6CF6B1",
"p. c #6CF7B1",
"a. c #6DF7B1",
"s. c #6EF6B1",
"d. c #6EF7B1",
"f. c #6EF8B1",
"g. c #6FF8B1",
"h. c #6EF9B1",
"j. c #6FF9B2",
"k. c #70F8B1",
"l. c #70F9B2",
"z. c #71F9B2",
"x. c #72F9B2",
"c. c #70FBB2",
"v. c #71FBB2",
"b. c #72FAB2",
"n. c #0081C4",
"m. c #0081C6",
"M. c #0086CB",
"N. c #0085CF",
"B. c #158FD8",
"V. c #0089E8",
"C. c #008CEB",
"Z. c #008CEC",
"A. c #008DEE",
"S. c #008DEF",
"D. c #008AF0",
"F. c #008BF0",
"G. c #008AF1",
"H. c #008BF1",
"J. c #008DF0",
"K. c #008CF1",
"L. c #008DF1",
"P. c #018EF0",
"I. c #038EF0",
"U. c #008DF2",
"Y. c #008EF2",
"T. c #008EF3",
"R. c #008EF5",
"E. c #0991F2",
"W. c #1395F1",
"Q. c #1697F1",
"!. c #1597F2",
"~. c #1B99F2",
"^. c #1C99F2",
"/. c #1D9BF5",
"(. c #9F93A3",
"). c #A0ACB1",
"_. c #AAAAB0",
"`. c #C3989E",
"'. c #9DCBDF",
"]. c #92CEF8",
"[. c #A6D8FA",
"{. c #CEE9FC",
"}. c #D6ECFC",
"|. c #DDF0FF",
/* pixels */
"J.J.J.J.J.J.J.J.J.D.~.{.`.X O @ 0 g < O.c.a.a.a.a.a.a.a.a.a.a.a.a.a.a.a.",
"J.J.J.J.J.J.J.J.J.D.^.}.).. r t n @.+.2.h.a.a.a.a.a.a.a.a.a.a.a.a.a.a.a.",
"J.J.J.J.J.J.J.J.J.F.W.].Z 2 c W %.l.v.h.a.a.a.a.a.a.a.a.a.a.a.a.a.a.a.a.",
"J.J.J.J.J.J.J.J.J.J.P.E.V 1 v -.d.a.a.a.a.a.a.a.a.a.a.a.a.a.a.a.a.a.a.a.",
"J.J.J.J.J.J.J.J.J.J.J.K.= 1 b 1.x.a.a.a.a.a.a.a.a.a.a.a.a.a.a.a.a.a.a.a.",
"J.J.J.J.J.J.J.J.J.J.J.L.- 1 b <.z.a.a.a.a.a.a.a.a.a.a.a.a.a.a.a.a.a.a.a.",
"J.J.J.J.J.J.J.J.J.J.J.L.- 1 b 1.x.a.a.a.a.a.a.a.a.a.a.a.a.a.a.a.a.a.a.a.",
"J.J.J.J.J.J.J.J.J.J.J.L.- 1 b >.k.a.a.a.a.a.a.a.a.a.a.a.a.a.a.a.a.a.a.a.",
"J.J.J.J.J.J.J.J.J.J.J.L.- 1 l ^ *.a.a.a.a.a.a.a.a.a.a.a.a.a.a.a.a.a.a.a.",
"J.J.J.J.J.J.J.J.J.J.J.H.= 4 k S [ g.d.a.a.a.a.a.a.a.a.a.a.a.a.a.a.a.a.a.",
"J.J.J.J.J.J.J.J.J.J.I.!.C ; d x ] 0.i.a.a.a.a.a.a.a.a.a.a.a.a.a.a.a.a.a.",
"J.J.J.J.J.J.J.J.J.F.Q.[.(.o : s L ) 8.l.a.a.a.a.a.a.a.a.a.a.a.a.a.a.a.a.",
"J.J.J.J.J.J.J.J.J.G./.|._.  q g T ..| 3.g.a.a.a.a.a.a.a.a.a.a.a.a.a.a.a.",
"J.J.J.J.J.L.U.L.Y.V.B.'.A 8 c Y #.9._ =.k.a.a.a.a.a.a.a.a.a.a.a.a.a.a.a.",
"J.J.J.J.J.A.C.Z.S.M.$ 3 i z K =.p.i.e.y.a.a.a.a.a.a.a.a.a.a.a.a.a.a.a.a.",
"T.T.T.T.R.N.% & * w p y f G H :.b.a.g.d.a.a.a.a.a.a.a.a.a.a.a.a.a.a.a.a.",
"n.n.n.n.m.B 6 7 + 5 J ` R P { 6.g.a.a.a.a.a.a.a.a.a.a.a.a.a.a.a.a.a.a.a.",
", , , > # u U D 9 e ! 7. .E q.g.a.a.a.a.a.a.a.a.a.a.a.a.a.a.a.a.a.a.a.a.",
"h h h h f ' ,.I j ~ 7.a.} Q w.g.a.a.a.a.a.a.a.a.a.a.a.a.a.a.a.a.a.a.a.a.",
"F S Y o.$.5.t.&.a m s.j.4.;.y.d.a.a.a.a.a.a.a.a.a.a.a.a.a.a.a.a.a.a.a.a.",
"( / X.a.x.g.f.d.N M u.f.g.k.a.a.a.a.a.a.a.a.a.a.a.a.a.a.a.a.a.a.a.a.a.a.",
"t.t.y.a.a.a.a.a.r.r.a.a.a.a.a.a.a.a.a.a.a.a.a.a.a.a.a.a.a.a.a.a.a.a.a.a.",
"g.g.f.a.a.a.a.a.f.f.a.a.a.a.a.a.a.a.a.a.a.a.a.a.a.a.a.a.a.a.a.a.a.a.a.a.",
"a.a.a.a.a.a.a.a.a.a.a.a.a.a.a.a.a.a.a.a.a.a.a.a.a.a.a.a.a.a.a.a.a.a.a.a.",
"a.a.a.a.a.a.a.a.a.a.a.a.a.a.a.a.a.a.a.a.a.a.a.a.a.a.a.a.a.a.a.a.a.a.a.a.",
"a.a.a.a.a.a.a.a.a.a.a.a.a.a.a.a.a.a.a.a.a.a.a.a.a.a.a.a.a.a.a.a.a.a.a.a.",
"a.a.a.a.a.a.a.a.a.a.a.a.a.a.a.a.a.a.a.a.a.a.a.a.a.a.a.a.a.a.a.a.a.a.a.a.",
"a.a.a.a.a.a.a.a.a.a.a.a.a.a.a.a.a.a.a.a.a.a.a.a.a.a.a.a.a.a.a.a.a.a.a.a.",
"a.a.a.a.a.a.a.a.a.a.a.a.a.a.a.a.a.a.a.a.a.a.a.a.a.a.a.a.a.a.a.a.a.a.a.a.",
"a.a.a.a.a.a.a.a.a.a.a.a.a.a.a.a.a.a.a.a.a.a.a.a.a.a.a.a.a.a.a.a.a.a.a.a.",
"a.a.a.a.a.a.a.a.a.a.a.a.a.a.a.a.a.a.a.a.a.a.a.a.a.a.a.a.a.a.a.a.a.a.a.a.",
"a.a.a.a.a.a.a.a.a.a.a.a.a.a.a.a.a.a.a.a.a.a.a.a.a.a.a.a.a.a.a.a.a.a.a.a.",
"a.a.a.a.a.a.a.a.a.a.a.a.a.a.a.a.a.a.a.a.a.a.a.a.a.a.a.a.a.a.a.a.a.a.a.a.",
"a.a.a.a.a.a.a.a.a.a.a.a.a.a.a.a.a.a.a.a.a.a.a.a.a.a.a.a.a.a.a.a.a.a.a.a.",
"a.a.a.a.a.a.a.a.a.a.a.a.a.a.a.a.a.a.a.a.a.a.a.a.a.a.a.a.a.a.a.a.a.a.a.a.",
"a.a.a.a.a.a.a.a.a.a.a.a.a.a.a.a.a.a.a.a.a.a.a.a.a.a.a.a.a.a.a.a.a.a.a.a."
};
