/* XPM */
static char *result[] = {
/* columns rows colors chars-per-pixel */
"36 36 241 2 ",
"   c #5F3F52",
".  c #793546",
"X  c #335A6E",
"o  c #28626E",
"O  c #257079",
"+  c #4E4256",
"@  c #5E4255",
"#  c #5C4B5C",
"$  c #485766",
"%  c #716675",
"&  c #935D6A",
"*  c #94636F",
"=  c #9E606D",
"-  c #846B78",
";  c #057084",
":  c #097283",
">  c #0B7885",
",  c #007588",
"<  c #01738C",
"1  c #01799A",
"2  c #00799B",
"3  c #01799B",
"4  c #017AA8",
"5  c #017BAB",
"6  c #4B7281",
"7  c #018187",
"8  c #018088",
"9  c #01818A",
"0  c #01828A",
"q  c #05818A",
"w  c #008588",
"e  c #008589",
"r  c #01848B",
"t  c #068588",
"y  c #00868C",
"u  c #008A8C",
"i  c #008A8D",
"p  c #008C8D",
"a  c #088889",
"s  c #0D888D",
"d  c #148D8F",
"f  c #019088",
"g  c #009289",
"h  c #01908B",
"j  c #01908D",
"k  c #02918E",
"l  c #00978F",
"z  c #01978F",
"x  c #009B8D",
"c  c #009D8D",
"v  c #009C8E",
"b  c #018096",
"n  c #01839B",
"m  c #008B9C",
"M  c #118190",
"N  c #10829D",
"B  c #009B90",
"V  c #009C90",
"C  c #049D90",
"Z  c #3D8A98",
"A  c #00A291",
"S  c #00A092",
"D  c #00A393",
"F  c #00A490",
"G  c #00A893",
"H  c #00AA97",
"J  c #06A894",
"K  c #00AC94",
"L  c #00AC95",
"P  c #00AD96",
"I  c #00B597",
"U  c #00B697",
"Y  c #05B697",
"T  c #00B897",
"R  c #00BA98",
"E  c #00BC98",
"W  c #00BF9A",
"Q  c #01BF9A",
"!  c #06BC99",
"~  c #04BE9A",
"^  c #05BE9A",
"/  c #0FBC9B",
"(  c #16BB9A",
")  c #18BC9B",
"_  c #31B49B",
"`  c #37B69C",
"'  c #008BA4",
"]  c #208CBB",
"[  c #73AEBA",
"{  c #00C19A",
"}  c #02C09A",
"|  c #00C29A",
" . c #01C39B",
".. c #02C29A",
"X. c #05C29B",
"o. c #07C39B",
"O. c #00C49B",
"+. c #00C59B",
"@. c #04C59B",
"#. c #08C59C",
"$. c #0BC69C",
"%. c #0CC69C",
"&. c #0CC79D",
"*. c #0FC89D",
"=. c #1CC09C",
"-. c #11C99E",
";. c #12CA9E",
":. c #14CB9E",
">. c #10CD9E",
",. c #17CD9F",
"<. c #14CF9F",
"1. c #17CE9F",
"2. c #2AC19E",
"3. c #1ACFA0",
"4. c #1CCFA0",
"5. c #1CD1A0",
"6. c #1DD1A1",
"7. c #2DCFA1",
"8. c #20D1A1",
"9. c #21D1A1",
"0. c #28D5A2",
"q. c #28D7A3",
"w. c #29D7A3",
"e. c #2DD7A3",
"r. c #2FD8A4",
"t. c #31D9A4",
"y. c #33DAA5",
"u. c #33DBA5",
"i. c #34DBA5",
"p. c #33DDA5",
"a. c #34DCA5",
"s. c #3BDEA6",
"d. c #3FE3A8",
"f. c #41C09F",
"g. c #41C7A1",
"h. c #49CBA3",
"j. c #4DCFA4",
"k. c #40DCA6",
"l. c #48DCA7",
"z. c #4ADCA7",
"x. c #57DCA8",
"c. c #42E2A8",
"v. c #42E3A8",
"b. c #44E1A8",
"n. c #44E3A8",
"m. c #43E4A9",
"M. c #46E4A9",
"N. c #49E7AA",
"B. c #4AE6AA",
"V. c #4BE6AA",
"C. c #4CE7AA",
"Z. c #4EE9AB",
"A. c #5BE0AA",
"S. c #50E9AB",
"D. c #51E9AB",
"F. c #52EAAB",
"G. c #53EAAC",
"H. c #56EBAC",
"J. c #55ECAC",
"K. c #56ECAC",
"L. c #58EEAD",
"P. c #5AEEAD",
"I. c #5BEEAD",
"U. c #5CEFAD",
"Y. c #5CEFAE",
"T. c #5DEFAE",
"R. c #5EF0AE",
"E. c #5FF0AE",
"W. c #5EF1AE",
"Q. c #61E9AD",
"!. c #61F1AF",
"~. c #63F2AF",
"^. c #68F1AF",
"/. c #67F4B0",
"(. c #66F6B0",
"). c #68F5B0",
"_. c #69F5B0",
"`. c #6AF5B0",
"'. c #6AF6B0",
"]. c #6BF6B1",
"[. c #6CF6B1",
"{. c #6CF7B1",
"}. c #6DF7B1",
"|. c #6EF7B1",
" X c #6EF8B1",
".X c #6FF8B1",
"XX c #6EF9B1",
"oX c #6FF9B2",
"OX c #70F8B1",
"+X c #70F8B2",
"@X c #70F9B2",
"#X c #71F9B2",
"$X c #72F9B2",
"%X c #70FAB2",
"&X c #71FAB2",
"*X c #70FBB2",
"=X c #71FBB2",
"-X c #73FAB2",
";X c #71FCB2",
":X c #0181C1",
">X c #0081C3",
",X c #0081C4",
"<X c #0081C8",
"1X c #0084CE",
"2X c #0789CC",
"3X c #0088D6",
"4X c #0087E5",
"5X c #008AE5",
"6X c #008BEB",
"7X c #0089EF",
"8X c #008CEC",
"9X c #008DEF",
"0X c #0089F0",
"qX c #008AF0",
"wX c #008BF2",
"eX c #008CF0",
"rX c #008DF0",
"tX c #008DF1",
"yX c #038FF1",
"uX c #008CF2",
"iX c #008EF3",
"pX c #229BF1",
"aX c #219CF4",
"sX c #3FABF6",
"dX c #33A6F8",
"fX c #46ACEF",
"gX c #4DADE9",
"hX c #5DB7F7",
"jX c #5DB9F8",
"kX c #5CB9F9",
"lX c #5FBBF9",
"zX c #5FBBFA",
"xX c #AB8B98",
"cX c #B1CAD2",
"vX c #ADCFEC",
"bX c #BEDCF5",
"nX c #DAE9EF",
"mX c #E9E6E9",
"MX c #E9E8EB",
"NX c #F1E8E9",
"BX c #F2EAED",
/* pixels */
"}.}.}.}.}.}.}.}.}.}.}.}.}.}.}.*Xf.0 I z , : # . * mXkX0XrXrXrXrXrXrXrXrX",
"#Xn.s.'.|.}.}.}.}.}.}.}.}.}.}.XXA.g.k.) S C O + & NXlX0XrXrXrXrXrXrXrXrX",
"V.e.y.`. X}.}.}.}.}.}.}.}.}.}.}.XX=X@Xv.<.Q i 6 xXvXsXqXrXrXrXrXrXrXrXrX",
"&.c.}.}.}.}.}.}.}.}.}.}.}.}.}.}.}.}.}.|.N.~ e [ bXpXeXrXrXrXrXrXrXrXrXrX",
"D.~..X}.}.}.}.}.}.}.}.}.}.}.}.}.}.}.}.$XZ.^ w ] dXyXeXrXrXrXrXrXrXrXrXrX",
"#X.X}.}.}.}.}.}.}.}.}.}.}.}.}.}.}.}.}.#XC.Q A ' <X6XtXrXrXrXrXrXrXrXrXrX",
"}.}.}.}.}.}.}.}.}.}.}.}.}.}.}.}.}.}.}.@XG.,.@.c 1 5XiXrXrXrXrXrXrXrXrXrX",
"}.}.}.}.}.}.}.}.}.}.}.}.}.}.}.}.}.}.}.}.[.I.1.x 3 5XiXrXrXrXrXrXrXrXrXrX",
"}.}.}.}.}.}.}.}.}.}.}.}.}.}.}.}.}.|.@X X#X].5.x 2 4XuXrXrXrXrXrXrXrXrXrX",
"%X X}.}.}.}.}.}.}.}.}.}.}.}.}.}. X/.B.W.(.m.>.v N gXaXeXrXrXrXrXrXrXrXrX",
"Q.^.}.}.}.}.}.}.}.}.}.}.}.}.}.}.+XE.4.k.l.! R g Z nXhX0XrXrXrXrXrXrXrXrX",
"d h.%X}.}.}.}.}.}.}.}.}.}.}.}.}.|.'.P._ s r y o - MXjX0XrXrXrXrXrXrXrXrX",
"` x.oX}.}.}.}.}.}.}.}.}.}.}.}.}.}. X+X2.u ; X   = BXzX7XrXrXrXrXrXrXrXrX",
"%X X}.}.}.}.}.}.}.}.}.}.}.}.}.}.}.|. Xd./ a $ @ % cXfXwXrXrXrXrXrXrXrXrX",
"}.}.}.}.}.}.}.}.}.}.}.}.}.}.}.}.}.{._./.b.Y t : > M 2XrXrXrXrXrXrXrXrXrX",
"}.}.}.}.}.}.}.}.}.}.}.}.}.}.}.}..X!.0.6.( k D P L G m :X9XiXiXiXiXiXiXiX",
"}.}.}.}.}.}.}.}.}.}.}.}.}.}.}.}..X~.y.q.=.l I +.O.| f 5 8X1X>X,X,X,X,X,X",
"}.}.}.}.}.}.}.}.}.}.}.}.}.}.}.}.}.}.}.@XD.:.*.#.{ W h 4 3Xn 7 9 9 9 9 9 ",
"}.}.}.}.}.}.}.}.}.}.}.}.}.}.}.}.}.}.}. X_.R.E.t.{ W j < b H T U U U U U ",
";X&X+X}.}.}.}.}.}.}.}.}.}.}.}.}.}.}.}.}.|.@X#XU.u.o.p 8 F E | { { { { { ",
"j.z.J.[.}.}.}.}.}.}.}.}.}.}.}.}.}.}.}.}.}.}.}.-XT.%.B V  .3.9.8.8.8.8.8.",
"q J w._. X}.}.}.}.}.}.}.}.}.}.}.}.}.}.}.}.}.}.}.F.$.} X.;.K.[.).).).).).",
"K 7.Y.[.}.}.}.}.}.}.}.}.}.}.}.}.}.}.}.}.}.}..XM.-...a.J.H._.OX.X.X.X.X.X",
"p.L.$X}.}.}.}.}.}.}.}.}.}.}.}.}.}.}.}.}.}.}. XS.r.i.I.-X@X|.}.}.}.}.}.}.",
" X|.}.}.}.}.}.}.}.}.}.}.}.}.}.}.}.}.}.}.}.}.}.|. X X}.}.}.}.}.}.}.}.}.}.",
"}.}.}.}.}.}.}.}.}.}.}.}.}.}.}.}.}.}.}.}.}.}.}.}.}.}.}.}.}.}.}.}.}.}.}.}.",
"}.}.}.}.}.}.}.}.}.}.}.}.}.}.}.}.}.}.}.}.}.}.}.}.}.}.}.}.}.}.}.}.}.}.}.}.",
"}.}.}.}.}.}.}.}.}.}.}.}.}.}.}.}.}.}.}.}.}.}.}.}.}.}.}.}.}.}.}.}.}.}.}.}.",
"}.}.}.}.}.}.}.}.}.}.}.}.}.}.}.}.}.}.}.}.}.}.}.}.}.}.}.}.}.}.}.}.}.}.}.}.",
"}.}.}.}.}.}.}.}.}.}.}.}.}.}.}.}.}.}.}.}.}.}.}.}.}.}.}.}.}.}.}.}.}.}.}.}.",
"}.}.}.}.}.}.}.}.}.}.}.}.}.}.}.}.}.}.}.}.}.}.}.}.}.}.}.}.}.}.}.}.}.}.}.}.",
"}.}.}.}.}.}.}.}.}.}.}.}.}.}.}.}.}.}.}.}.}.}.}.}.}.}.}.}.}.}.}.}.}.}.}.}.",
"}.}.}.}.}.}.}.}.}.}.}.}.}.}.}.}.}.}.}.}.}.}.}.}.}.}.}.}.}.}.}.}.}.}.}.}.",
"}.}.}.}.}.}.}.}.}.}.}.}.}.}.}.}.}.}.}.}.}.}.}.}.}.}.}.}.}.}.}.}.}.}.}.}.",
"}.}.}.}.}.}.}.}.}.}.}.}.}.}.}.}.}.}.}.}.}.}.}.}.}.}.}.}.}.}.}.}.}.}.}.}.",
"}.}.}.}.}.}.}.}.}.}.}.}.}.}.}.}.}.}.}.}.}.}.}.}.}.}.}.}.}.}.}.}.}.}.}.}."
};
