/* XPM */
static char *result[] = {
/* columns rows colors chars-per-pixel */
"26 26 7 1 ",
"  c #793D4E",
". c #017687",
"X c #1664C5",
"o c #00C19A",
"O c #6DF7B1",
"+ c #008DF0",
"@ c gray99",
/* pixels */
"+++++++@.ooOoOOOOOOOOOOOOO",
"++++++++.oOOOOOOOOOOOOOOOO",
"++++++++.oOOOOOOOOOOOOOOOO",
"++++++++.ooOOOOOOOOOOOOOOO",
"+++++++++.oOOOOOOOOOOOOOOO",
"++++++++@.oOOOOOOOOOOOOOOo",
"+++++++@ .ooOOOOOOOOOOOOoO",
"+++++++@  ..o.OOOOOOOOOOOO",
"+++++++@ .oOOOOOOOOOOOOOOO",
"++++++++.ooOOOOOOOOOOOOOOO",
"++++++++.ooOOOOOOOOOOOOOOO",
"++++++++.ooOOOOOOOOOOOOOOO",
"XX++++++X.ooOoOOOOOOOOOOOO",
"+++++++@.ooOoOOOOOOOOOOOOO",
"++++++++.oOOOOOOOOOOOOOOOO",
"++++++++.oOOOOOOOOOOOOOOOO",
"++++++++.ooOOOOOOOOOOOOOOO",
"+++++++++.oOOOOOOOOOOOOOOO",
"++++++++@.oOOOOOOOOOOOOOOo",
"+++++++@ .ooOOOOOOOOOOOOoO",
"+++++++@  ..o.OOOOOOOOOOOO",
"+++++++@ .oOOOOOOOOOOOOOOO",
"++++++++.ooOOOOOOOOOOOOOOO",
"++++++++.ooOOOOOOOOOOOOOOO",
"++++++++.ooOOOOOOOOOOOOOOO",
"XX++++++X.ooOoOOOOOOOOOOOO"
};
