/* XPM */
static char *result[] = {
/* columns rows colors chars-per-pixel */
"36 36 211 2 ",
"   c #71384A",
".  c #177B7C",
"X  c #22727B",
"o  c #4C4457",
"O  c #434B5F",
"+  c #505262",
"@  c #935D6A",
"#  c #95626F",
"$  c #98626E",
"%  c #097B86",
"&  c #107B83",
"*  c #09709F",
"=  c #017999",
"-  c #007A99",
";  c #00799B",
":  c #01799B",
">  c #007A9C",
",  c #0C6AA2",
"<  c #0773B1",
"1  c #0874B0",
"2  c #476E86",
"3  c #507886",
"4  c #1763C3",
"5  c #1664C5",
"6  c #1369CA",
"7  c #136ACB",
"8  c #126CCE",
"9  c #1771C7",
"0  c #0F70D2",
"q  c #0D74D6",
"w  c #0A7ADC",
"e  c #0A7BDD",
"r  c #097CDE",
"t  c #008588",
"y  c #008489",
"u  c #07828C",
"i  c #00898A",
"p  c #008A8D",
"a  c #00918C",
"s  c #0E908F",
"d  c #00998D",
"f  c #009A8D",
"g  c #009B8D",
"h  c #009C8C",
"j  c #009D8C",
"k  c #009F8D",
"l  c #009D8E",
"z  c #009F8E",
"x  c #068697",
"c  c #058896",
"v  c #17849A",
"b  c #16839C",
"n  c #009290",
"m  c #33909D",
"M  c #03A090",
"N  c #00A292",
"B  c #00A692",
"V  c #0DA293",
"C  c #00A993",
"Z  c #00A995",
"A  c #00AA94",
"S  c #06AF95",
"D  c #00B998",
"F  c #00BC99",
"G  c #00BD99",
"H  c #01BF9A",
"J  c #04BE9A",
"K  c #05BE9A",
"L  c #0DBD9A",
"P  c #18BD9B",
"I  c #008DA1",
"U  c #1A89BA",
"Y  c #2F8AA5",
"T  c #71AEBB",
"R  c #00C19A",
"E  c #03C09A",
"W  c #00C29A",
"Q  c #00C39A",
"!  c #04C29B",
"~  c #04C39B",
"^  c #05C39B",
"/  c #00C49B",
"(  c #05C79C",
")  c #09C79C",
"_  c #0EC89D",
"`  c #0FCA9E",
"'  c #0FCC9E",
"]  c #10C99D",
"[  c #11C99E",
"{  c #18CFA0",
"}  c #1BCEA0",
"|  c #1CCFA0",
" . c #19D1A0",
".. c #1CD0A0",
"X. c #29D6A3",
"o. c #2CD7A3",
"O. c #2ED8A4",
"+. c #3ED2A4",
"@. c #30D9A4",
"#. c #32DAA5",
"$. c #36DCA5",
"%. c #37DCA6",
"&. c #3DDFA7",
"*. c #3EE0A7",
"=. c #46C7A1",
"-. c #45CBA2",
";. c #44DEA7",
":. c #57DFA9",
">. c #40E1A7",
",. c #41E1A8",
"<. c #44E3A8",
"1. c #45E3A8",
"2. c #47E4A9",
"3. c #46E5A9",
"4. c #4CE7AA",
"5. c #4DE7AA",
"6. c #4BE8AA",
"7. c #4FE8AB",
"8. c #4EE9AB",
"9. c #4FECAC",
"0. c #5CE2AA",
"q. c #5BE6AB",
"w. c #50E9AB",
"e. c #51E9AB",
"r. c #55EBAC",
"t. c #57EAAC",
"y. c #56EBAC",
"u. c #56ECAC",
"i. c #57ECAC",
"p. c #58ECAD",
"a. c #59EDAD",
"s. c #5BEEAD",
"d. c #5CEFAE",
"f. c #5DEFAE",
"g. c #5FF0AE",
"h. c #64ECAD",
"j. c #62F2AF",
"k. c #65F3AF",
"l. c #66F4B0",
"z. c #68F5B0",
"x. c #69F5B0",
"c. c #6AF5B0",
"v. c #6AF6B0",
"b. c #6BF6B1",
"n. c #6CF6B1",
"m. c #6DF7B1",
"M. c #6EF7B1",
"N. c #6EF8B1",
"B. c #6EF9B2",
"V. c #6FF9B2",
"C. c #70F8B1",
"Z. c #70F8B2",
"A. c #70F9B2",
"S. c #71F9B2",
"D. c #72F9B2",
"F. c #70FAB2",
"G. c #71FBB2",
"H. c #73FAB2",
"J. c #75FCB3",
"K. c #0080C3",
"L. c #0780E3",
"P. c #0681E4",
"I. c #0087E5",
"U. c #0088E5",
"Y. c #008AE5",
"T. c #0087E8",
"R. c #0387E9",
"E. c #018AE8",
"W. c #0289EB",
"Q. c #008BEA",
"!. c #0289EC",
"~. c #018BEE",
"^. c #018CEE",
"/. c #008CEF",
"(. c #0089F0",
"). c #008AF0",
"_. c #008BF0",
"`. c #008CF0",
"'. c #008DF0",
"]. c #008DF1",
"[. c #008EF0",
"{. c #008EF1",
"}. c #038FF1",
"|. c #008CF2",
" X c #008DF2",
".X c #008EF2",
"XX c #008EF3",
"oX c #0E94F2",
"OX c #1C99F1",
"+X c #2398EC",
"@X c #279FF4",
"#X c #2AA0F5",
"$X c #2BA2F5",
"%X c #28A0F6",
"&X c #39A8F5",
"*X c #5BB2E9",
"=X c #51B1F6",
"-X c #5FB7F7",
";X c #5CB9F9",
":X c #5DB9F9",
">X c #5FBAF9",
",X c #6EB5E7",
"<X c #61B5E9",
"1X c #AF93A0",
"2X c #A2CBEC",
"3X c #BDDDEF",
"4X c #B8DCF8",
"5X c #DDECEF",
"6X c #EAE6E9",
"7X c #EDE7E9",
"8X c #F1E8E9",
/* pixels */
"m.m.m.m.m.m.m.m.m.m.m.m.m.m.m.A.&.[ d.@.R F i , 8 !.{.'.'.'.'.{.~.0 4 5 ",
"m.m.m.m.m.m.m.m.m.m.m.m.m.m.m.N.a.2.l.u.o.E A c 1 E..X'.'.'.'.'./.P.r r ",
"m.m.m.m.m.m.m.m.m.m.m.m.m.m.m.m.N.Z.m.H.7.^ / k - Y.XX'.'.'.'.'.'.{.{.{.",
"m.m.m.m.m.m.m.m.m.m.m.m.m.m.m.m.m.m.m.S.5.^ W l : Y.XX'.'.'.'.'.'.'.'.'.",
"m.m.m.m.m.m.m.m.m.m.m.m.m.m.m.m.m.m.m.S.5.^ Q z > U. X'.'.'.'.'.'.'.'.'.",
"m.m.m.m.m.m.m.m.m.m.m.m.m.m.m.m.B.G.S.J.9.~ Z . 2 ,X$X_.'.'.'.'.'.'.'.'.",
"m.M.M.m.m.m.m.m.m.m.m.m.m.m.m.N.h.:.t.q.+.S & O $ 7X:X(.'.'.'.'.'.'.'.'.",
"m.n.b.m.m.m.m.m.m.m.m.m.m.m.m.F.=.s L V u % +   # 6X;X(.'.'.'.'.'.'.'.'.",
"S.>.$.c.N.m.m.m.m.m.m.m.m.m.m.N.0.-.;.P N M X o @ 8X>X(.'.'.'.'.'.'.'.'.",
"<.O.%.c.N.m.m.m.m.m.m.m.m.m.m.m.V.G.S.3. .H p 3 1X2X&X).'.'.'.'.'.'.'.'.",
"_ <.N.m.m.m.m.m.m.m.m.m.m.m.m.m.m.m.m.C.6.J y T 4XOX_.'.'.'.'.'.'.'.'.'.",
"i.k.N.m.m.m.m.m.m.m.m.m.m.m.m.m.m.m.m.D.8.K t U %X}.`.'.'.'.'.'.'.'.'.'.",
"S.N.m.m.m.m.m.m.m.m.m.m.m.m.m.m.m.m.m.S.4.H B I K.Q.].'.'.'.'.'.'.'.'.'.",
"m.m.m.m.m.m.m.m.m.m.m.m.m.m.m.m.m.m.m.Z.r.| ( j = Y.XX'.'.'.'.'.'.'.'.'.",
"m.m.m.m.m.m.m.m.m.m.m.m.m.m.m.m.m.m.m.m.m.g.{ g : Y.XX'.'.'.'.'.'.'.'.'.",
"m.m.m.m.m.m.m.m.m.m.m.m.m.m.m.m.m.m.Z.N.S.v...g ; I.|.'.'.'.'.'.'.'.'.'.",
"m.m.m.m.m.m.m.m.m.m.m.m.m.m.m.m.Z.z.1.s.k.*.' h v <X#X_.'.'.'.'.'.{.{.{.",
"m.m.m.m.m.m.m.m.m.m.m.m.m.m.m.m.x.e.} *.<.! D n Y 3X=X).'.'.'.'.'.W.R.R.",
"m.m.m.m.m.m.m.m.m.m.m.m.m.m.m.Z.1.| e.#.) G a * 9 +XoX`.'.'.'.[.^.q 6 7 ",
"m.m.m.m.m.m.m.m.m.m.m.m.m.m.m.N.p.1.z.y.X.E C x < T. X'.'.'.'.'./.L.w e ",
"m.m.m.m.m.m.m.m.m.m.m.m.m.m.m.m.N.Z.m.H.7.^ / k - Y.XX'.'.'.'.'.'.{.{.{.",
"m.m.m.m.m.m.m.m.m.m.m.m.m.m.m.m.m.m.m.S.5.^ W l : Y.XX'.'.'.'.'.'.'.'.'.",
"m.m.m.m.m.m.m.m.m.m.m.m.m.m.m.m.m.m.m.S.5.^ Q z > U. X'.'.'.'.'.'.'.'.'.",
"m.m.m.m.m.m.m.m.m.m.m.m.m.m.m.m.B.G.S.J.9.~ Z . 2 ,X$X_.'.'.'.'.'.'.'.'.",
"m.M.M.m.m.m.m.m.m.m.m.m.m.m.m.N.h.:.t.q.+.S & O $ 7X:X(.'.'.'.'.'.'.'.'.",
"m.n.b.m.m.m.m.m.m.m.m.m.m.m.m.F.=.s L V u % +   # 6X;X(.'.'.'.'.'.'.'.'.",
"S.>.$.c.N.m.m.m.m.m.m.m.m.m.m.N.0.-.;.P N M X o @ 8X>X(.'.'.'.'.'.'.'.'.",
"<.O.%.c.N.m.m.m.m.m.m.m.m.m.m.m.V.G.S.3. .H p 3 1X2X&X).'.'.'.'.'.'.'.'.",
"_ <.N.m.m.m.m.m.m.m.m.m.m.m.m.m.m.m.m.C.6.J y T 4XOX_.'.'.'.'.'.'.'.'.'.",
"i.k.N.m.m.m.m.m.m.m.m.m.m.m.m.m.m.m.m.D.8.K t U %X}.`.'.'.'.'.'.'.'.'.'.",
"S.N.m.m.m.m.m.m.m.m.m.m.m.m.m.m.m.m.m.S.4.H B I K.Q.].'.'.'.'.'.'.'.'.'.",
"m.m.m.m.m.m.m.m.m.m.m.m.m.m.m.m.m.m.m.Z.r.| ( j = Y.XX'.'.'.'.'.'.'.'.'.",
"m.m.m.m.m.m.m.m.m.m.m.m.m.m.m.m.m.m.m.m.m.g.{ g : Y.XX'.'.'.'.'.'.'.'.'.",
"m.m.m.m.m.m.m.m.m.m.m.m.m.m.m.m.m.m.Z.N.S.v...g ; I.|.'.'.'.'.'.'.'.'.'.",
"m.m.m.m.m.m.m.m.m.m.m.m.m.m.m.m.N.l.2.s.j.*.` f b *X@X_.'.'.'.'.'.'.'.'.",
"m.m.m.m.m.m.m.m.m.m.m.m.m.m.m.m.A.f.] ,.w.^ W d m 5X-X(.'.'.'.'.'.'.'.'."
};
