/* XPM */
static char *result[] = {
/* columns rows colors chars-per-pixel */
"36 36 43 1 ",
"  c #017487",
". c #017887",
"X c #017688",
"o c #017B8A",
"O c #01838C",
"+ c #018C8D",
"@ c #01938F",
"# c #08948F",
"$ c #00988F",
"% c #018691",
"& c #018E90",
"* c #019291",
"= c #009C91",
"- c #00A393",
"; c #00AB95",
": c #00B396",
"> c #00B897",
", c #00BD99",
"< c #1BB99A",
"1 c #27B69A",
"2 c #01C29A",
"3 c #09C49C",
"4 c #0DC99D",
"5 c #15CC9E",
"6 c #1BCFA0",
"7 c #1DD0A0",
"8 c #22D2A1",
"9 c #2BD6A3",
"0 c #2ED8A4",
"q c #34DBA5",
"w c #3ADEA6",
"e c #54DFA9",
"r c #40E0A7",
"t c #45E3A9",
"y c #49E6AA",
"u c #4EE8AB",
"i c #53EBAC",
"p c #5AEEAD",
"a c #63F2AF",
"s c #6DF7B1",
"d c #6EF8B1",
"f c #71F9B2",
"g c None",
/* pixels */
"ggggggggggg o XX    . .o ggggggggggg",
"ggggg       +---@  @-=O        ggggg",
"gggg %&+oo++;222;++;22$O+&oo&*% gggg",
"g .oo=,,##3,33333,333333,,*@,,= o  g",
"g &;;>4yueiiiiiiiiiiiiiir3:>22>-oo g",
"g *236wsfffffffffffddfffawqqqq6>=O g",
"g &,2qfsssssssssdsssdssdsddssfq2,* g",
"  +,,qfsssssssssssssdsssssssssq2,+  ",
"X +,2qdssssssssdsssssssssdssssq,,:$X",
"X +,2qfsssssssssssssssssssssffq22:@ ",
"  +>29adsssssssdssssssssssssap0,:+ X",
". oO:39afsssssssssssssssssfu664:+oXX",
"    +<tasssssdssssdssssssstqqw<+ XXg",
".X  O1aassssdsssssssssssssqqap1O+o g",
" ..O;28adssssssssssssssssssaa72,>+  ",
" $;;>8iassssssssssssssssssdssi82,+ o",
"X;22,wfssdssdddssssssssssssssfq2,+  ",
"X-2229assssssddssdssdssssssssdq2,+  ",
"X-22227adssssssssssssssssdssssq2,+  ",
" -222,6adsssssdssssssssssssfsq62,+  ",
"o*:2224raddsssssdsdsssssssfar32,;O o",
"X +>,,23yfsssssssssssssssssr322;o  o",
"g OOO-22tfsssssssssssssdssw422-oXo g",
"g O$*;,,tddsssssssssssssssy5,,;=*O g",
"go=,2366yfssssssssssdsssssfi5532,=og",
" -,2,0apssssssssssdsssssssdaaa0222-X",
"o-22,qfffffdssssssssssssssssdfpq32-o",
"o@:228yytyyafsssssssssssssssddfp4;*.",
"X &,2222>>4issssssssssdssssdddsy3+  ",
"g &,222,$$24rfsdsdddsssssdddddr4,& g",
"g *,2222;;2,6rdfpqqpfdffawqqqq5>=% g",
"g &;:>22::2225yp0,,0piipr3::,2>-.o g",
"g .oo=,,#+,,,,332222433332@+>2=XX  g",
"gggg %&&Oo+++++:22222222,*oO&+OoX gg",
"ggggg          @--------$o     ..ggg",
"ggggggggggXX   X.   o  o ggggggggggg"
};
