/* XPM */
static char *result[] = {
/* columns rows colors chars-per-pixel */
"36 36 174 2 ",
"   c #2A636F",
".  c #216B75",
"X  c #594658",
"o  c #495160",
"O  c #097283",
"+  c #017C85",
"@  c #007588",
"#  c #007F89",
"$  c #037C91",
"%  c #0A8084",
"&  c #088287",
"*  c #00818A",
"=  c #01818A",
"-  c #01828A",
";  c #008789",
":  c #00878A",
">  c #0F808F",
",  c #00898A",
"<  c #008D8A",
"1  c #00938A",
"2  c #00938B",
"3  c #00958E",
"4  c #00958F",
"5  c #01978F",
"6  c #05988E",
"7  c #018D9F",
"8  c #049790",
"9  c #049D90",
"0  c #00A092",
"q  c #00A791",
"w  c #08A393",
"e  c #09A195",
"r  c #00A993",
"t  c #0FAA95",
"y  c #00B096",
"u  c #01B496",
"i  c #00B596",
"p  c #00B597",
"a  c #00B697",
"s  c #00B797",
"d  c #00BD99",
"f  c #02BD99",
"g  c #00BE99",
"h  c #00BF99",
"j  c #01BF9A",
"k  c #04BE9A",
"l  c #05BE9A",
"z  c #18BC9B",
"x  c #23B49A",
"c  c #39B79C",
"v  c #3AB89D",
"b  c #0084A3",
"n  c #0285A3",
"m  c #0086BD",
"M  c #0087BD",
"N  c #0087BE",
"B  c #0489BD",
"V  c #5FB0B3",
"C  c #00C099",
"Z  c #01C09A",
"A  c #00C19A",
"S  c #00C29A",
"D  c #02C29A",
"F  c #02C39B",
"G  c #04C39B",
"H  c #05C69C",
"J  c #09C59C",
"K  c #0AC69C",
"L  c #0DC99D",
"P  c #10CB9E",
"I  c #14CC9F",
"U  c #15CD9F",
"Y  c #17CD9F",
"T  c #14CF9F",
"R  c #18CD9F",
"E  c #1ACC9F",
"W  c #20C99F",
"Q  c #19CFA0",
"!  c #1DCFA0",
"~  c #20D1A1",
"^  c #21D1A1",
"/  c #25D3A2",
"(  c #24D6A2",
")  c #2FD3A2",
"_  c #28D5A2",
"`  c #2CD6A3",
"'  c #2CD7A3",
"]  c #30D9A4",
"[  c #31D9A4",
"{  c #32DAA5",
"}  c #35DBA5",
"|  c #38DDA6",
" . c #3DE2A7",
".. c #41C09F",
"X. c #41C7A1",
"o. c #40DCA6",
"O. c #41E1A8",
"+. c #40E3A8",
"@. c #42E3A8",
"#. c #44E2A8",
"$. c #45E3A8",
"%. c #47E4A9",
"&. c #49E7AA",
"*. c #4AE6AA",
"=. c #4DE7AA",
"-. c #4BE8AA",
";. c #4DE8AA",
":. c #4DE9AB",
">. c #4EE9AB",
",. c #5BE0AA",
"<. c #53EAAC",
"1. c #54EAAC",
"2. c #58EEAD",
"3. c #5BEEAD",
"4. c #5DEFAE",
"5. c #61F1AF",
"6. c #62F2AF",
"7. c #63F2AF",
"8. c #65F3AF",
"9. c #66F3AF",
"0. c #66F4B0",
"q. c #6AF3B0",
"w. c #68F5B0",
"e. c #6AF5B0",
"r. c #6BF5B0",
"t. c #6CF6B1",
"y. c #6CF7B1",
"u. c #6DF7B1",
"i. c #6EF6B1",
"p. c #6EF7B1",
"a. c #6EF8B1",
"s. c #6FF8B1",
"d. c #6EF9B1",
"f. c #6FF9B2",
"g. c #70F8B1",
"h. c #70F9B2",
"j. c #71F9B2",
"k. c #72F9B2",
"l. c #70FBB2",
"z. c #71FBB2",
"x. c #72FAB2",
"c. c #008CEF",
"v. c #008DEF",
"b. c #0891EF",
"n. c #1093EF",
"m. c #008BF0",
"M. c #008BF1",
"N. c #008CF0",
"B. c #008DF0",
"V. c #008CF1",
"C. c #008DF1",
"Z. c #008EF0",
"A. c #008CF2",
"S. c #0890F0",
"D. c #0891F0",
"F. c #0891F1",
"G. c #0892F0",
"H. c #1093F0",
"J. c #1A98F1",
"K. c #1A99F1",
"L. c #38A6F2",
"P. c #38A6F4",
"I. c #63B8F5",
"U. c #63B9F5",
"Y. c #6FBEF7",
"T. c #78C2F7",
"R. c #73C0F8",
"E. c #9F93A3",
"W. c #A0ACB1",
"Q. c #AAAAB0",
"!. c #C3989E",
"~. c #CEE9FC",
"^. c #D6ECFC",
"/. c #DDF0FF",
/* pixels */
"C.C.v.C.B.C.F.n.C.C.R.~.!.X O @ 5 p - ..l.u.u.u.u.u.u.u.u.u.u.u.u.u.u.u.",
"N.v.N.D.D.D.b.S.H.H.R.^.W.. 9 0 z o.X.,.d.u.u.u.u.u.u.u.u.u.u.u.u.u.u.u.",
"V.N.S.G.B.N.V.N.C.V.F.R.B : j T @.h.z.d.u.u.u.u.u.u.u.u.u.u.u.u.u.u.u.u.",
"C.D.N.b.D.C.N.C.C.A.C.C.N ; k &.p.u.u.u.u.u.u.u.u.u.u.u.u.u.u.u.u.u.u.u.",
"v.v.C.c.B.B.V.m.m.N.B.N.M ; l >.k.u.u.u.u.u.u.u.u.u.u.u.u.u.u.u.u.u.u.u.",
"c.c.N.K.L.T.P.B.U.N.N.C.b ; l :.j.u.u.u.u.u.u.u.u.u.u.u.u.u.u.u.u.u.u.u.",
"N.B.v.B.C.B.N.C.N.V.m.c.n ; l >.k.u.u.u.u.u.u.u.u.u.u.u.u.u.u.u.u.u.u.u.",
"N.C.N.m.B.C.N.N.B.B.V.V.b ; l -.g.u.u.u.u.u.u.u.u.u.u.u.u.u.u.u.u.u.u.u.",
"C.C.C.C.B.B.C.B.Z.B.Z.v.M ; f Q $.u.u.u.u.u.u.u.u.u.u.u.u.u.u.u.u.u.u.u.",
"N.C.N.B.C.v.B.B.B.N.v.v.b , d C ` s.p.u.u.u.u.u.u.u.u.u.u.u.u.u.u.u.u.u.",
"B.B.B.N.N.N.N.N.B.N.B.M b % u h _ 7.t.u.u.u.u.u.u.u.u.u.u.u.u.u.u.u.u.u.",
"V.B.N.N.V.B.B.N.N.N.D.R.E.o & y H ^ 5.h.u.u.u.u.u.u.u.u.u.u.u.u.u.u.u.u.",
"C.N.B.C.C.V.N.V.v.v.c./.Q.  6 p I } [ <.s.u.u.u.u.u.u.u.u.u.u.u.u.u.u.u.",
"N.N.N.M.V.c.m.V.v.B.m Y.V 3 j P O.6./ %.g.u.u.u.u.u.u.u.u.u.u.u.u.u.u.u.",
"B.N.L.I.J.v.V.v.v.M $ > e g G %.y.t.0.e.u.u.u.u.u.u.u.u.u.u.u.u.u.u.u.u.",
"B.N.V.B.D.M M M B 7 r q i S D =.x.u.s.p.u.u.u.u.u.u.u.u.u.u.u.u.u.u.u.u.",
"M b b b M M 1 2 + < F ( U J ' 3.s.u.u.u.u.u.u.u.u.u.u.u.u.u.u.u.u.u.u.u.",
"= = = * # w L Z 4 8 E 4.{ Y 8.s.u.u.u.u.u.u.u.u.u.u.u.u.u.u.u.u.u.u.u.u.",
"a a a a i ) ;.K s W 4.u.] R 9.s.u.u.u.u.u.u.u.u.u.u.u.u.u.u.u.u.u.u.u.u.",
"A C P  .+.2.w.#.t x i.f.1.*.e.p.u.u.u.u.u.u.u.u.u.u.u.u.u.u.u.u.u.u.u.u.",
"~ ! | u.k.s.a.p.v c r.a.s.g.u.u.u.u.u.u.u.u.u.u.u.u.u.u.u.u.u.u.u.u.u.u.",
"w.w.e.u.u.u.u.u.q.q.u.u.u.u.u.u.u.u.u.u.u.u.u.u.u.u.u.u.u.u.u.u.u.u.u.u.",
"s.s.a.u.u.u.u.u.a.a.u.u.u.u.u.u.u.u.u.u.u.u.u.u.u.u.u.u.u.u.u.u.u.u.u.u.",
"u.u.u.u.u.u.u.u.u.u.u.u.u.u.u.u.u.u.u.u.u.u.u.u.u.u.u.u.u.u.u.u.u.u.u.u.",
"u.u.u.u.u.u.u.u.u.u.u.u.u.u.u.u.u.u.u.u.u.u.u.u.u.u.u.u.u.u.u.u.u.u.u.u.",
"u.u.u.u.u.u.u.u.u.u.u.u.u.u.u.u.u.u.u.u.u.u.u.u.u.u.u.u.u.u.u.u.u.u.u.u.",
"u.u.u.u.u.u.u.u.u.u.u.u.u.u.u.u.u.u.u.u.u.u.u.u.u.u.u.u.u.u.u.u.u.u.u.u.",
"u.u.u.u.u.u.u.u.u.u.u.u.u.u.u.u.u.u.u.u.u.u.u.u.u.u.u.u.u.u.u.u.u.u.u.u.",
"u.u.u.u.u.u.u.u.u.u.u.u.u.u.u.u.u.u.u.u.u.u.u.u.u.u.u.u.u.u.u.u.u.u.u.u.",
"u.u.u.u.u.u.u.u.u.u.u.u.u.u.u.u.u.u.u.u.u.u.u.u.u.u.u.u.u.u.u.u.u.u.u.u.",
"u.u.u.u.u.u.u.u.u.u.u.u.u.u.u.u.u.u.u.u.u.u.u.u.u.u.u.u.u.u.u.u.u.u.u.u.",
"u.u.u.u.u.u.u.u.u.u.u.u.u.u.u.u.u.u.u.u.u.u.u.u.u.u.u.u.u.u.u.u.u.u.u.u.",
"u.u.u.u.u.u.u.u.u.u.u.u.u.u.u.u.u.u.u.u.u.u.u.u.u.u.u.u.u.u.u.u.u.u.u.u.",
"u.u.u.u.u.u.u.u.u.u.u.u.u.u.u.u.u.u.u.u.u.u.u.u.u.u.u.u.u.u.u.u.u.u.u.u.",
"u.u.u.u.u.u.u.u.u.u.u.u.u.u.u.u.u.u.u.u.u.u.u.u.u.u.u.u.u.u.u.u.u.u.u.u.",
"u.u.u.u.u.u.u.u.u.u.u.u.u.u.u.u.u.u.u.u.u.u.u.u.u.u.u.u.u.u.u.u.u.u.u.u."
};
