/* XPM */
static char *result[] = {
/* columns rows colors chars-per-pixel */
"36 36 181 2 ",
"   c #71384A",
".  c #177B7C",
"X  c #22727B",
"o  c #4C4457",
"O  c #434B5F",
"+  c #505262",
"@  c #935D6A",
"#  c #95626F",
"$  c #98626E",
"%  c #097B86",
"&  c #107B83",
"*  c #507886",
"=  c #4B76AF",
"-  c #4B77AF",
";  c #4B78AF",
":  c #5C7FAF",
">  c #008588",
",  c #008489",
"<  c #07828C",
"1  c #00898A",
"2  c #008A8D",
"3  c #00918C",
"4  c #0E908F",
"5  c #00998D",
"6  c #009A8D",
"7  c #009B8D",
"8  c #009C8C",
"9  c #009D8C",
"0  c #009F8D",
"q  c #009D8E",
"w  c #009F8E",
"e  c #009290",
"r  c #33909D",
"t  c #03A090",
"y  c #00A292",
"u  c #00A692",
"i  c #0DA293",
"p  c #00A993",
"a  c #00A995",
"s  c #00AA94",
"d  c #06AF95",
"f  c #00B998",
"g  c #00BC99",
"h  c #00BD99",
"j  c #01BF9A",
"k  c #04BE9A",
"l  c #05BE9A",
"z  c #0DBD9A",
"x  c #18BD9B",
"c  c #078EBF",
"v  c #0095BE",
"b  c #0095BF",
"n  c #0497BE",
"m  c #0497BF",
"M  c #109BBF",
"N  c #00C19A",
"B  c #03C09A",
"V  c #00C29A",
"C  c #00C39A",
"Z  c #04C29B",
"A  c #04C39B",
"S  c #05C39B",
"D  c #00C49B",
"F  c #05C79C",
"G  c #09C79C",
"H  c #0EC89D",
"J  c #0FCA9E",
"K  c #0FCC9E",
"L  c #10C99D",
"P  c #11C99E",
"I  c #18CFA0",
"U  c #1BCEA0",
"Y  c #1CCFA0",
"T  c #19D1A0",
"R  c #1CD0A0",
"E  c #29D6A3",
"W  c #2CD7A3",
"Q  c #2ED8A4",
"!  c #3ED2A4",
"~  c #30D9A4",
"^  c #32DAA5",
"/  c #36DCA5",
"(  c #37DCA6",
")  c #3DDFA7",
"_  c #3EE0A7",
"`  c #46C7A1",
"'  c #45CBA2",
"]  c #44DEA7",
"[  c #57DFA9",
"{  c #40E1A7",
"}  c #41E1A8",
"|  c #44E3A8",
" . c #45E3A8",
".. c #47E4A9",
"X. c #46E5A9",
"o. c #4CE7AA",
"O. c #4DE7AA",
"+. c #4BE8AA",
"@. c #4FE8AB",
"#. c #4EE9AB",
"$. c #4FECAC",
"%. c #5CE2AA",
"&. c #5BE6AB",
"*. c #50E9AB",
"=. c #51E9AB",
"-. c #55EBAC",
";. c #57EAAC",
":. c #56EBAC",
">. c #56ECAC",
",. c #57ECAC",
"<. c #58ECAD",
"1. c #59EDAD",
"2. c #5BEEAD",
"3. c #5CEFAE",
"4. c #5DEFAE",
"5. c #5FF0AE",
"6. c #64ECAD",
"7. c #62F2AF",
"8. c #65F3AF",
"9. c #66F4B0",
"0. c #68F5B0",
"q. c #69F5B0",
"w. c #6AF5B0",
"e. c #6AF6B0",
"r. c #6BF6B1",
"t. c #6CF6B1",
"y. c #6DF7B1",
"u. c #6EF7B1",
"i. c #6EF8B1",
"p. c #6EF9B2",
"a. c #6FF9B2",
"s. c #70F8B1",
"d. c #70F8B2",
"f. c #70F9B2",
"g. c #71F9B2",
"h. c #72F9B2",
"j. c #70FAB2",
"k. c #71FBB2",
"l. c #73FAB2",
"z. c #75FCB3",
"x. c #078EC0",
"c. c #0B90C0",
"v. c #0F91C0",
"b. c #008BEF",
"n. c #008CEF",
"m. c #008DEF",
"M. c #088FEF",
"N. c #0890EF",
"B. c #0891EF",
"V. c #008BF0",
"C. c #008CF0",
"Z. c #008DF0",
"A. c #008CF1",
"S. c #008DF1",
"D. c #008EF0",
"F. c #008EF1",
"G. c #0890F0",
"H. c #0891F0",
"J. c #0890F1",
"K. c #0891F1",
"L. c #0892F0",
"P. c #0892F1",
"I. c #1092F0",
"U. c #1093F1",
"Y. c #1094F0",
"T. c #1A98F0",
"R. c #1A99F1",
"E. c #2099F0",
"W. c #38A5F3",
"Q. c #38A6F3",
"!. c #77B9EC",
"~. c #77BAEC",
"^. c #77BAED",
"/. c #63B9F5",
"(. c #78C2F6",
"). c #78C2F7",
"_. c #84C0ED",
"`. c #DDECEF",
"'. c #EAE6E9",
"]. c #EDE7E9",
"[. c #F1E8E9",
/* pixels */
"y.y.y.y.y.y.y.y.y.y.y.y.y.y.y.f.) P 3.~ N g 1 b c m.C.P.S.Z.Z.S.S.F.m.n.",
"y.y.y.y.y.y.y.y.y.y.y.y.y.y.y.i.1...9.>.W B s v x.C.M.n.H.D.Z.Z.H.C.Z.m.",
"y.y.y.y.y.y.y.y.y.y.y.y.y.y.y.y.i.d.y.l.@.S D 0 b B.B.G.B.I.H.Z.Z.Z.S.C.",
"y.y.y.y.y.y.y.y.y.y.y.y.y.y.y.y.y.y.y.g.O.S V q n m.Z.Z.C.B.G.C.Z.Z.F.D.",
"y.y.y.y.y.y.y.y.y.y.y.y.y.y.y.y.y.y.y.g.O.S C w b Z.Z.Z.C.C.m.V.m.L.D.m.",
"y.y.y.y.y.y.y.y.y.y.y.y.y.y.y.y.p.k.g.z.$.A a . ; ^.C.Z.Z.C.C.m.Z.F.S.Z.",
"y.u.u.y.y.y.y.y.y.y.y.y.y.y.y.i.6.[ ;.&.! d & O $ ].^.C.Z.Z.Z.C.Z.Z.F.Z.",
"y.t.r.y.y.y.y.y.y.y.y.y.y.y.y.j.` 4 z i < % +   # '.^.m.Z.m.n.Z.n.C.n.A.",
"g.{ / w.i.y.y.y.y.y.y.y.y.y.y.i.%.' ] x y t X o @ [.~.Z.Z.m.m.m.n.n.n.b.",
"| Q ( w.i.y.y.y.y.y.y.y.y.y.y.y.a.k.g.X.T j 2 * = !.C.K.T.R.C.W.(.T.V.m.",
"H | i.y.y.y.y.y.y.y.y.y.y.y.y.y.y.y.y.s.+.k , m x.S.S.Z.C.C.C.Z.Z.S.Z.Z.",
",.8.i.y.y.y.y.y.y.y.y.y.y.y.y.y.y.y.y.h.#.l > b c.G.H.K.G.K.K.H.H.N.C.n.",
"g.i.y.y.y.y.y.y.y.y.y.y.y.y.y.y.y.y.y.g.o.j u M v.E.Y.J.C.A.C.A.S.S.n.S.",
"y.y.y.y.y.y.y.y.y.y.y.y.y.y.y.y.y.y.y.d.-.Y F 9 c.J.Y.U.G.S.A.C.C.Z.V.C.",
"y.y.y.y.y.y.y.y.y.y.y.y.y.y.y.y.y.y.y.y.y.5.I 7 x.Z.F.A.S.S.C.Z.Z.Z.A.Z.",
"y.y.y.y.y.y.y.y.y.y.y.y.y.y.y.y.y.y.d.i.g.e.R 7 x.Z.Z.Z.A.S.C.S.Z.Z.J.H.",
"y.y.y.y.y.y.y.y.y.y.y.y.y.y.y.y.d.0. .2.8._ K 8 x.B.Z.S.S.C.A.A.Z.A.S.m.",
"y.y.y.y.y.y.y.y.y.y.y.y.y.y.y.y.q.=.U _ | Z f e x.C.D./.Z.Q.).R.R.C.S.C.",
"y.y.y.y.y.y.y.y.y.y.y.y.y.y.y.d. .Y =.^ G h 3 b x.Z.C.C.Z.C.Z.S.S.S.m.A.",
"y.y.y.y.y.y.y.y.y.y.y.y.y.y.y.i.<. .0.:.E B p b x.S.C.Z.n.Z.m.S.S.A.S.m.",
"y.y.y.y.y.y.y.y.y.y.y.y.y.y.y.y.i.d.y.l.@.S D 0 b Z.Z.Z.Z.Z.D.m.D.n.A.Z.",
"y.y.y.y.y.y.y.y.y.y.y.y.y.y.y.y.y.y.y.g.O.S V q b Z.Z.Z.Z.Z.Z.Z.Z.Z.Z.S.",
"y.y.y.y.y.y.y.y.y.y.y.y.y.y.y.y.y.y.y.g.O.S C w b Z.Z.Z.Z.C.C.C.D.Z.m.C.",
"y.y.y.y.y.y.y.y.y.y.y.y.y.y.y.y.p.k.g.z.$.A a . - ^.Z.Z.Z.Z.C.C.C.Z.D.Z.",
"y.u.u.y.y.y.y.y.y.y.y.y.y.y.y.i.6.[ ;.&.! d & O $ ].^.Z.Z.H.C.C.C.C.C.Z.",
"y.t.r.y.y.y.y.y.y.y.y.y.y.y.y.j.` 4 z i < % +   # '.^.Z.Z.Z.C.C.C.C.Z.Z.",
"g.{ / w.i.y.y.y.y.y.y.y.y.y.y.i.%.' ] x y t X o @ [.^.Z.Z.Z.C.C.C.C.Z.Z.",
"| Q ( w.i.y.y.y.y.y.y.y.y.y.y.y.a.k.g.X.T j 2 * : _.Q.).Z.Q.C.C.C.C.Z.D.",
"H | i.y.y.y.y.y.y.y.y.y.y.y.y.y.y.y.y.s.+.k , b x.Z.Z.Z.Z.Z.C.C.C.C.Z.Z.",
",.8.i.y.y.y.y.y.y.y.y.y.y.y.y.y.y.y.y.h.#.l > m c.H.Z.Z.Z.Z.C.C.C.m.Z.m.",
"g.i.y.y.y.y.y.y.y.y.y.y.y.y.y.y.y.y.y.g.o.j u b x.H.H.H.H.H.G.G.Z.Z.C.C.",
"y.y.y.y.y.y.y.y.y.y.y.y.y.y.y.y.y.y.y.d.-.Y F 9 x.Z.Z.Z.Z.Z.Z.C.D.m.Z.C.",
"y.y.y.y.y.y.y.y.y.y.y.y.y.y.y.y.y.y.y.y.y.5.I 7 x.Z.Z.Z.Z.R.Q.).Q.C.S.A.",
"y.y.y.y.y.y.y.y.y.y.y.y.y.y.y.y.y.y.d.i.g.e.R 7 x.K.J.K.H.B.Z.Z.C.C.A.Z.",
"y.y.y.y.y.y.y.y.y.y.y.y.y.y.y.y.i.9...2.7._ J 6 c.^.Z.C.C.S.Z.C.C.S.Z.Z.",
"y.y.y.y.y.y.y.y.y.y.y.y.y.y.y.y.f.4.L } *.S V 5 r `.^.Z.Z.Z.Z.S.Z.S.Z.C."
};
