/* XPM */
static char *ko1t0_t7rye[] = {
/* columns rows colors chars-per-pixel */
"36 36 138 2 ",
"   c #71384A",
".  c #177B7C",
"X  c #22727B",
"o  c #4C4457",
"O  c #434B5F",
"+  c #505262",
"@  c #935D6A",
"#  c #95626E",
"$  c #95626F",
"%  c #98626E",
"&  c #097B86",
"*  c #107B83",
"=  c #507886",
"-  c #008588",
";  c #008489",
":  c #07828C",
">  c #00898A",
",  c #008A8D",
"<  c #0E8F8F",
"1  c #00918C",
"2  c #0E908F",
"3  c #00998D",
"4  c #009A8D",
"5  c #009B8D",
"6  c #009C8C",
"7  c #009D8C",
"8  c #009D8D",
"9  c #009F8D",
"0  c #009D8E",
"q  c #009F8E",
"w  c #009290",
"e  c #33909D",
"r  c #03A090",
"t  c #00A292",
"y  c #00A692",
"u  c #0DA293",
"i  c #00A993",
"p  c #00A995",
"a  c #00AA94",
"s  c #06AF95",
"d  c #00B998",
"f  c #00BC99",
"g  c #00BD99",
"h  c #01BF9A",
"j  c #04BE9A",
"k  c #05BE9A",
"l  c #0DBD9A",
"z  c #18BD9B",
"x  c #00C19A",
"c  c #03C09A",
"v  c #00C29A",
"b  c #00C39A",
"n  c #04C29B",
"m  c #04C39B",
"M  c #05C39B",
"N  c #00C49B",
"B  c #05C79C",
"V  c #09C79C",
"C  c #0EC89D",
"Z  c #0FCA9E",
"A  c #0FCC9E",
"S  c #10C99D",
"D  c #11C99E",
"F  c #18CFA0",
"G  c #1BCEA0",
"H  c #1CCFA0",
"J  c #19D1A0",
"K  c #1CD0A0",
"L  c #29D6A3",
"P  c #2CD7A3",
"I  c #2ED8A4",
"U  c #3ED2A4",
"Y  c #30D9A4",
"T  c #32DAA5",
"R  c #36DCA5",
"E  c #37DCA6",
"W  c #3DDFA7",
"Q  c #3EE0A7",
"!  c #46C7A1",
"~  c #45CBA2",
"^  c #44DEA7",
"/  c #57DFA9",
"(  c #40E1A7",
")  c #41E1A8",
"_  c #44E3A8",
"`  c #45E3A8",
"'  c #47E4A9",
"]  c #46E5A9",
"[  c #4CE7AA",
"{  c #4DE7AA",
"}  c #4BE8AA",
"|  c #4FE8AB",
" . c #4EE9AB",
".. c #4FECAC",
"X. c #5CE2AA",
"o. c #5BE6AB",
"O. c #50E9AB",
"+. c #51E9AB",
"@. c #55EBAC",
"#. c #57EAAC",
"$. c #56EBAC",
"%. c #56ECAC",
"&. c #57ECAC",
"*. c #58ECAD",
"=. c #59EDAD",
"-. c #5BEEAD",
";. c #5CEFAE",
":. c #5DEFAE",
">. c #5FF0AE",
",. c #64ECAD",
"<. c #62F2AF",
"1. c #65F3AF",
"2. c #66F4B0",
"3. c #68F5B0",
"4. c #69F5B0",
"5. c #6AF5B0",
"6. c #6AF6B0",
"7. c #6BF6B1",
"8. c #6CF6B1",
"9. c #6DF7B1",
"0. c #6EF7B1",
"q. c #6EF8B1",
"w. c #6EF9B2",
"e. c #6FF9B2",
"r. c #70F8B1",
"t. c #70F8B2",
"y. c #70F9B2",
"u. c #71F9B2",
"i. c #72F9B2",
"p. c #70FAB2",
"a. c #71FBB2",
"s. c #73FAB2",
"d. c #75FCB3",
"f. c #DDECEF",
"g. c #EAE6E9",
"h. c #EDE7E9",
"j. c #F1E8E9",
"k. c None",
/* pixels */
"9.9.9.9.9.9.9.9.9.9.9.9.9.9.9.y.W D ;.Y x f > 8 < k.k.k.k.k.k.k.k.k.k.k.",
"9.9.9.9.9.9.9.9.9.9.9.9.9.9.9.q.=.' 2.%.P c a 8 < k.k.k.k.k.k.k.k.k.k.k.",
"9.9.9.9.9.9.9.9.9.9.9.9.9.9.9.9.q.t.9.s.| M N 9 8 k.k.k.k.k.k.k.k.k.k.k.",
"9.9.9.9.9.9.9.9.9.9.9.9.9.9.9.9.9.9.9.u.{ M v 0 8 k.k.k.k.k.k.k.k.k.k.k.",
"9.9.9.9.9.9.9.9.9.9.9.9.9.9.9.9.9.9.9.u.{ M b q 8 k.k.k.k.k.k.k.k.k.k.k.",
"9.9.9.9.9.9.9.9.9.9.9.9.9.9.9.9.w.a.u.d...m p . # h.k.k.k.k.k.k.k.k.k.k.",
"9.0.0.9.9.9.9.9.9.9.9.9.9.9.9.q.,./ #.o.U s * O % h.h.k.k.k.k.k.k.k.k.k.",
"9.8.7.9.9.9.9.9.9.9.9.9.9.9.9.p.! 2 l u : & +   $ g.h.k.k.k.k.k.k.k.k.k.",
"u.( R 5.q.9.9.9.9.9.9.9.9.9.9.q.X.~ ^ z t r X o @ j.h.k.k.k.k.k.k.k.k.k.",
"_ I E 5.q.9.9.9.9.9.9.9.9.9.9.9.e.a.u.] J h , = # h.k.k.k.k.k.k.k.k.k.k.",
"C _ q.9.9.9.9.9.9.9.9.9.9.9.9.9.9.9.9.r.} j ; 8 < k.k.k.k.k.k.k.k.k.k.k.",
"&.1.q.9.9.9.9.9.9.9.9.9.9.9.9.9.9.9.9.i. .k - 8 < k.k.k.k.k.k.k.k.k.k.k.",
"u.q.9.9.9.9.9.9.9.9.9.9.9.9.9.9.9.9.9.u.[ h y 8 < k.k.k.k.k.k.k.k.k.k.k.",
"9.9.9.9.9.9.9.9.9.9.9.9.9.9.9.9.9.9.9.t.@.H B 7 < k.k.k.k.k.k.k.k.k.k.k.",
"9.9.9.9.9.9.9.9.9.9.9.9.9.9.9.9.9.9.9.9.9.>.F 5 < k.k.k.k.k.k.k.k.k.k.k.",
"9.9.9.9.9.9.9.9.9.9.9.9.9.9.9.9.9.9.t.q.u.6.K 5 < k.k.k.k.k.k.k.k.k.k.k.",
"9.9.9.9.9.9.9.9.9.9.9.9.9.9.9.9.t.3.` -.1.Q A 6 < k.k.k.k.k.k.k.k.k.k.k.",
"9.9.9.9.9.9.9.9.9.9.9.9.9.9.9.9.4.+.G Q _ n d w < k.k.k.k.k.k.k.k.k.k.k.",
"9.9.9.9.9.9.9.9.9.9.9.9.9.9.9.t.` H +.T V g 1 8 < k.k.k.k.k.k.k.k.k.k.k.",
"9.9.9.9.9.9.9.9.9.9.9.9.9.9.9.q.*.` 3.$.L c i 8 < k.k.k.k.k.k.k.k.k.k.k.",
"9.9.9.9.9.9.9.9.9.9.9.9.9.9.9.9.q.t.9.s.| M N 9 8 k.k.k.k.k.k.k.k.k.k.k.",
"9.9.9.9.9.9.9.9.9.9.9.9.9.9.9.9.9.9.9.u.{ M v 0 8 k.k.k.k.k.k.k.k.k.k.k.",
"9.9.9.9.9.9.9.9.9.9.9.9.9.9.9.9.9.9.9.u.{ M b q 8 k.k.k.k.k.k.k.k.k.k.k.",
"9.9.9.9.9.9.9.9.9.9.9.9.9.9.9.9.w.a.u.d...m p . # h.k.k.k.k.k.k.k.k.k.k.",
"9.0.0.9.9.9.9.9.9.9.9.9.9.9.9.q.,./ #.o.U s * O % h.h.k.k.k.k.k.k.k.k.k.",
"9.8.7.9.9.9.9.9.9.9.9.9.9.9.9.p.! 2 l u : & +   $ g.h.k.k.k.k.k.k.k.k.k.",
"u.( R 5.q.9.9.9.9.9.9.9.9.9.9.q.X.~ ^ z t r X o @ j.h.k.k.k.k.k.k.k.k.k.",
"_ I E 5.q.9.9.9.9.9.9.9.9.9.9.9.e.a.u.] J h , = # h.k.k.k.k.k.k.k.k.k.k.",
"C _ q.9.9.9.9.9.9.9.9.9.9.9.9.9.9.9.9.r.} j ; 8 < k.k.k.k.k.k.k.k.k.k.k.",
"&.1.q.9.9.9.9.9.9.9.9.9.9.9.9.9.9.9.9.i. .k - 8 < k.k.k.k.k.k.k.k.k.k.k.",
"u.q.9.9.9.9.9.9.9.9.9.9.9.9.9.9.9.9.9.u.[ h y 8 < k.k.k.k.k.k.k.k.k.k.k.",
"9.9.9.9.9.9.9.9.9.9.9.9.9.9.9.9.9.9.9.t.@.H B 7 < k.k.k.k.k.k.k.k.k.k.k.",
"9.9.9.9.9.9.9.9.9.9.9.9.9.9.9.9.9.9.9.9.9.>.F 5 < k.k.k.k.k.k.k.k.k.k.k.",
"9.9.9.9.9.9.9.9.9.9.9.9.9.9.9.9.9.9.t.q.u.6.K 5 < k.k.k.k.k.k.k.k.k.k.k.",
"9.9.9.9.9.9.9.9.9.9.9.9.9.9.9.9.q.2.' -.<.Q Z 4 < h.k.k.k.k.k.k.k.k.k.k.",
"9.9.9.9.9.9.9.9.9.9.9.9.9.9.9.9.y.:.S ) O.M v 3 e f.h.k.k.k.k.k.k.k.k.k."
};
