/* XPM */
static char *result[] = {
/* columns rows colors chars-per-pixel */
"36 36 237 2 ",
"   c #5F3F52",
".  c #793546",
"X  c #335A6E",
"o  c #28626E",
"O  c #257079",
"+  c #4E4256",
"@  c #5E4255",
"#  c #5C4B5C",
"$  c #485766",
"%  c #716675",
"&  c #935D6A",
"*  c #94636F",
"=  c #9E606D",
"-  c #846B78",
";  c #057084",
":  c #097283",
">  c #0B7885",
",  c #007588",
"<  c #01738C",
"1  c #0079A5",
"2  c #007AA5",
"3  c #077CA5",
"4  c #007FBD",
"5  c #007EBE",
"6  c #007FBE",
"7  c #4B7281",
"8  c #018187",
"9  c #018088",
"0  c #01818A",
"q  c #01828A",
"w  c #05818A",
"e  c #008588",
"r  c #008589",
"t  c #01848B",
"y  c #068588",
"u  c #00868C",
"i  c #008A8C",
"p  c #008A8D",
"a  c #008C8D",
"s  c #088889",
"d  c #0D888D",
"f  c #148D8F",
"g  c #019088",
"h  c #009289",
"j  c #01908B",
"k  c #01908D",
"l  c #02918E",
"z  c #00978F",
"x  c #01978F",
"c  c #009B8D",
"v  c #009D8D",
"b  c #009C8E",
"n  c #018096",
"m  c #01839B",
"M  c #118190",
"N  c #009B90",
"B  c #009C90",
"V  c #049D90",
"C  c #3D8A98",
"Z  c #00A291",
"A  c #00A092",
"S  c #00A393",
"D  c #00A490",
"F  c #00A893",
"G  c #00AA97",
"H  c #06A894",
"J  c #00AC94",
"K  c #00AC95",
"L  c #00AD96",
"P  c #00B597",
"I  c #00B697",
"U  c #05B697",
"Y  c #00B897",
"T  c #00BA98",
"R  c #00BC98",
"E  c #00BF9A",
"W  c #01BF9A",
"Q  c #06BC99",
"!  c #04BE9A",
"~  c #05BE9A",
"^  c #0FBC9B",
"/  c #16BB9A",
"(  c #18BC9B",
")  c #31B49B",
"_  c #37B69C",
"`  c #1984A6",
"'  c #0883BE",
"]  c #73AEBA",
"[  c #00C19A",
"{  c #02C09A",
"}  c #00C29A",
"|  c #01C39B",
" . c #02C29A",
".. c #05C29B",
"X. c #07C39B",
"o. c #00C49B",
"O. c #00C59B",
"+. c #04C59B",
"@. c #08C59C",
"#. c #0BC69C",
"$. c #0CC69C",
"%. c #0CC79D",
"&. c #0FC89D",
"*. c #1CC09C",
"=. c #11C99E",
"-. c #12CA9E",
";. c #14CB9E",
":. c #10CD9E",
">. c #17CD9F",
",. c #14CF9F",
"<. c #17CE9F",
"1. c #2AC19E",
"2. c #1ACFA0",
"3. c #1CCFA0",
"4. c #1CD1A0",
"5. c #1DD1A1",
"6. c #2DCFA1",
"7. c #20D1A1",
"8. c #21D1A1",
"9. c #28D5A2",
"0. c #28D7A3",
"q. c #29D7A3",
"w. c #2DD7A3",
"e. c #2FD8A4",
"r. c #31D9A4",
"t. c #33DAA5",
"y. c #33DBA5",
"u. c #34DBA5",
"i. c #33DDA5",
"p. c #34DCA5",
"a. c #3BDEA6",
"s. c #3FE3A8",
"d. c #41C09F",
"f. c #41C7A1",
"g. c #49CBA3",
"h. c #4DCFA4",
"j. c #40DCA6",
"k. c #48DCA7",
"l. c #4ADCA7",
"z. c #57DCA8",
"x. c #42E2A8",
"c. c #42E3A8",
"v. c #44E1A8",
"b. c #44E3A8",
"n. c #43E4A9",
"m. c #46E4A9",
"M. c #49E7AA",
"N. c #4AE6AA",
"B. c #4BE6AA",
"V. c #4CE7AA",
"C. c #4EE9AB",
"Z. c #5BE0AA",
"A. c #50E9AB",
"S. c #51E9AB",
"D. c #52EAAB",
"F. c #53EAAC",
"G. c #56EBAC",
"H. c #55ECAC",
"J. c #56ECAC",
"K. c #58EEAD",
"L. c #5AEEAD",
"P. c #5BEEAD",
"I. c #5CEFAD",
"U. c #5CEFAE",
"Y. c #5DEFAE",
"T. c #5EF0AE",
"R. c #5FF0AE",
"E. c #5EF1AE",
"W. c #61E9AD",
"Q. c #61F1AF",
"!. c #63F2AF",
"~. c #68F1AF",
"^. c #67F4B0",
"/. c #66F6B0",
"(. c #68F5B0",
"). c #69F5B0",
"_. c #6AF5B0",
"`. c #6AF6B0",
"'. c #6BF6B1",
"]. c #6CF6B1",
"[. c #6CF7B1",
"{. c #6DF7B1",
"}. c #6EF7B1",
"|. c #6EF8B1",
" X c #6FF8B1",
".X c #6EF9B1",
"XX c #6FF9B2",
"oX c #70F8B1",
"OX c #70F8B2",
"+X c #70F9B2",
"@X c #71F9B2",
"#X c #72F9B2",
"$X c #70FAB2",
"%X c #71FAB2",
"&X c #70FBB2",
"*X c #71FBB2",
"=X c #73FAB2",
"-X c #71FCB2",
";X c #008BEF",
":X c #008CEF",
">X c #008DEF",
",X c #0890EF",
"<X c #0891EF",
"1X c #008BF0",
"2X c #008CF0",
"3X c #008DF0",
"4X c #008CF1",
"5X c #008DF1",
"6X c #008EF0",
"7X c #008EF1",
"8X c #0890F0",
"9X c #0891F0",
"0X c #0890F1",
"qX c #0891F1",
"wX c #0892F0",
"eX c #0892F1",
"rX c #1092F0",
"tX c #1093F1",
"yX c #1A98F0",
"uX c #1A99F1",
"iX c #38A5F3",
"pX c #75B8EC",
"aX c #75B9EC",
"sX c #75B9ED",
"dX c #79BAEC",
"fX c #79BBEC",
"gX c #79BBED",
"hX c #7DBDED",
"jX c #78C2F6",
"kX c #AB8B98",
"lX c #B1CAD2",
"zX c #BEDCF5",
"xX c #DAE9EF",
"cX c #E9E6E9",
"vX c #E9E8EB",
"bX c #F1E8E9",
"nX c #F2EAED",
/* pixels */
"{.{.{.{.{.{.{.{.{.{.{.{.{.{.{.&Xd.q P x , : # . * cXsXeX5X3X3X5X5X7X>X:X",
"@Xb.a.`.}.{.{.{.{.{.{.{.{.{.{..XZ.f.j.( A V O + & bXdX:X9X6X3X3X9X2X3X>X",
"B.w.t._.|.{.{.{.{.{.{.{.{.{.{.{..X*X+Xc.,.W p 7 kXfX<X8X<XrX9X3X3X3X5X2X",
"%.x.{.{.{.{.{.{.{.{.{.{.{.{.{.{.{.{.{.}.M.! r ] zXaX3X3X2X<X8X2X3X3X7X6X",
"S.!. X{.{.{.{.{.{.{.{.{.{.{.{.{.{.{.{.#XC.~ e 1 sX3X3X3X2X2X>X1X>XwX6X>X",
"@X X{.{.{.{.{.{.{.{.{.{.{.{.{.{.{.{.{.@XV.W Z 3 2 3X2X3X3X2X2X>X3X7X5X3X",
"{.{.{.{.{.{.{.{.{.{.{.{.{.{.{.{.{.{.{.+XF.>.+.v 6 4X3X2X3X3X3X2X3X3X7X3X",
"{.{.{.{.{.{.{.{.{.{.{.{.{.{.{.{.{.{.{.{.].P.<.c 1 2X3X>X3X>X:X3X:X2X:X4X",
"{.{.{.{.{.{.{.{.{.{.{.{.{.{.{.{.{.}.+X|.@X'.4.c 1 5X>X3X3X>X>X>X:X:X:X;X",
"$X|.{.{.{.{.{.{.{.{.{.{.{.{.{.{.|.^.N.E./.n.:.b 5 pX2XqXyXuX2XiXjXyX1X>X",
"W.~.{.{.{.{.{.{.{.{.{.{.{.{.{.{.OXR.3.j.k.Q T h C xXsX3X2X2X2X3X3X5X3X3X",
"f g.$X{.{.{.{.{.{.{.{.{.{.{.{.{.}.`.L.) d t u o - vXgXqX8XqXqX9X9X,X2X:X",
"_ z.XX{.{.{.{.{.{.{.{.{.{.{.{.{.{.|.OX1.i ; X   = nXhX0X2X4X2X4X5X5X:X5X",
"$X|.{.{.{.{.{.{.{.{.{.{.{.{.{.{.{.}.|.s.^ s $ @ % lX' tX8X5X4X2X2X3X1X2X",
"{.{.{.{.{.{.{.{.{.{.{.{.{.{.{.{.{.[.).^.v.U y : > M 2 4X5X5X2X3X3X3X4X3X",
"{.{.{.{.{.{.{.{.{.{.{.{.{.{.{.{. XQ.9.5./ l S L K F 1 3X4X5X2X5X3X3X0X9X",
"{.{.{.{.{.{.{.{.{.{.{.{.{.{.{.{. X!.t.0.*.z P O.o.} g 5X5X6 6 1 6 6 6 4 ",
"{.{.{.{.{.{.{.{.{.{.{.{.{.{.{.{.{.{.{.+XS.;.&.@.[ E j ` 6 m 8 0 0 0 0 0 ",
"{.{.{.{.{.{.{.{.{.{.{.{.{.{.{.{.{.{.{.|.).T.R.r.[ E k < n G Y I I I I I ",
"-X%XOX{.{.{.{.{.{.{.{.{.{.{.{.{.{.{.{.{.}.+X@XI.y.X.a 9 D R } [ [ [ [ [ ",
"h.l.H.].{.{.{.{.{.{.{.{.{.{.{.{.{.{.{.{.{.{.{.=XY.$.N B | 2.8.7.7.7.7.7.",
"w H q.).|.{.{.{.{.{.{.{.{.{.{.{.{.{.{.{.{.{.{.{.D.#.{ ..-.J.].(.(.(.(.(.",
"J 6.U.].{.{.{.{.{.{.{.{.{.{.{.{.{.{.{.{.{.{. Xm.=. .p.H.G.).oX X X X X X",
"i.K.#X{.{.{.{.{.{.{.{.{.{.{.{.{.{.{.{.{.{.{.|.A.e.u.P.=X+X}.{.{.{.{.{.{.",
"|.}.{.{.{.{.{.{.{.{.{.{.{.{.{.{.{.{.{.{.{.{.{.}.|.|.{.{.{.{.{.{.{.{.{.{.",
"{.{.{.{.{.{.{.{.{.{.{.{.{.{.{.{.{.{.{.{.{.{.{.{.{.{.{.{.{.{.{.{.{.{.{.{.",
"{.{.{.{.{.{.{.{.{.{.{.{.{.{.{.{.{.{.{.{.{.{.{.{.{.{.{.{.{.{.{.{.{.{.{.{.",
"{.{.{.{.{.{.{.{.{.{.{.{.{.{.{.{.{.{.{.{.{.{.{.{.{.{.{.{.{.{.{.{.{.{.{.{.",
"{.{.{.{.{.{.{.{.{.{.{.{.{.{.{.{.{.{.{.{.{.{.{.{.{.{.{.{.{.{.{.{.{.{.{.{.",
"{.{.{.{.{.{.{.{.{.{.{.{.{.{.{.{.{.{.{.{.{.{.{.{.{.{.{.{.{.{.{.{.{.{.{.{.",
"{.{.{.{.{.{.{.{.{.{.{.{.{.{.{.{.{.{.{.{.{.{.{.{.{.{.{.{.{.{.{.{.{.{.{.{.",
"{.{.{.{.{.{.{.{.{.{.{.{.{.{.{.{.{.{.{.{.{.{.{.{.{.{.{.{.{.{.{.{.{.{.{.{.",
"{.{.{.{.{.{.{.{.{.{.{.{.{.{.{.{.{.{.{.{.{.{.{.{.{.{.{.{.{.{.{.{.{.{.{.{.",
"{.{.{.{.{.{.{.{.{.{.{.{.{.{.{.{.{.{.{.{.{.{.{.{.{.{.{.{.{.{.{.{.{.{.{.{.",
"{.{.{.{.{.{.{.{.{.{.{.{.{.{.{.{.{.{.{.{.{.{.{.{.{.{.{.{.{.{.{.{.{.{.{.{.",
"{.{.{.{.{.{.{.{.{.{.{.{.{.{.{.{.{.{.{.{.{.{.{.{.{.{.{.{.{.{.{.{.{.{.{.{."
};
