/* XPM */
static char *ufk5w_rg2xm[] = {
/* columns rows colors chars-per-pixel */
"36 36 136 2 ",
"   c #374F64",
".  c #2E5C6F",
"X  c #385F6D",
"o  c #35566A",
"O  c #1D6679",
"+  c #37616F",
"@  c #266871",
"#  c #336070",
"$  c #5B495B",
"%  c #7F424E",
"&  c #764B57",
"*  c #734252",
"=  c #79615F",
"-  c #574B64",
";  c #465063",
":  c #475467",
">  c #5F5661",
",  c #6F446A",
"<  c #873D4A",
"1  c #8F375E",
"2  c #8B3B5D",
"3  c #9D3F50",
"4  c #9F3E5C",
"5  c #963963",
"6  c #AF3D69",
"7  c #83424D",
"8  c #96494D",
"9  c #8B4055",
"0  c #974552",
"q  c #9A5351",
"w  c #A4554E",
"e  c #AB564C",
"r  c #B8534F",
"t  c #AB4C58",
"y  c #B5475F",
"u  c #AA5750",
"i  c #AB5950",
"p  c #B15755",
"a  c #B45C53",
"s  c #B9505A",
"d  c #BE5C59",
"f  c #9D735A",
"g  c #BB644E",
"h  c #B96350",
"j  c #B4665E",
"k  c #904D71",
"l  c #AF4861",
"z  c #BB4768",
"x  c #96626F",
"c  c #9B616D",
"v  c #826474",
"b  c #C0575E",
"n  c #C46D4D",
"m  c #C7714D",
"M  c #CA724D",
"N  c #D67B45",
"B  c #D87D47",
"V  c #D17748",
"C  c #D3794C",
"Z  c #C46A50",
"A  c #C96459",
"S  c #C06F5C",
"D  c #D27451",
"F  c #D66766",
"G  c #3A8477",
"H  c #D7804F",
"J  c #DA8757",
"K  c #DD8956",
"L  c #D78458",
"P  c #DA8758",
"I  c #E39F78",
"U  c #0B7584",
"Y  c #067C87",
"T  c #017C89",
"R  c #0B7684",
"E  c #147580",
"W  c #006F9B",
"Q  c #00749C",
"!  c #0060A3",
"~  c #02848B",
"^  c #008D8D",
"/  c #0C8185",
"(  c #03928E",
")  c #09908A",
"_  c #019D8D",
"`  c #009A91",
"'  c #029493",
"]  c #06A591",
"[  c #00AA95",
"{  c #01B597",
"}  c #00B598",
"|  c #01BB99",
" . c #3ABB9D",
".. c #5F8BA3",
"X. c #02C29A",
"o. c #08C59C",
"O. c #0EC99D",
"+. c #1AC39E",
"@. c #14CC9F",
"#. c #1AD0A0",
"$. c #30CBA1",
"%. c #27D4A2",
"&. c #2BD6A3",
"*. c #2DD9A4",
"=. c #35DCA5",
"-. c #3ADEA6",
";. c #3EE0A7",
":. c #42D4A4",
">. c #40E1A7",
",. c #42E2A8",
"<. c #4BE6AA",
"1. c #4BE8AA",
"2. c #53EAAC",
"3. c #5CEEAE",
"4. c #5AF1AE",
"5. c #66EBAD",
"6. c #63F2AF",
"7. c #67F4B0",
"8. c #6DF7B1",
"9. c #6FF8B1",
"0. c #71F9B2",
"q. c #DEA787",
"w. c #EEB497",
"e. c #CFBCB9",
"r. c #F4C0A0",
"t. c #AABED0",
"y. c #EFD9D4",
"u. c #F1DBD3",
"i. c #F8DFD0",
"p. c #F9E1D2",
"a. c #CED6E5",
"s. c #D2D9E6",
"d. c #D7E7F9",
"f. c #E9E5E9",
"g. c #F2E9EA",
"h. c None",
/* pixels */
"8.8.8.8.8.8.8.8.8.8.8.8.8.8.8.8.8.8.8.8.8.8.8.8.8.8.8.8.8.8.8.8.8.8.8.8.",
"8.8.8.8.8.8.8.8.8.8.8.8.8.8.8.8.8.8.8.8.8.8.8.8.8.8.8.8.8.8.8.8.8.8.8.8.",
"8.8.8.8.8.8.8.8.8.8.8.8.8.8.8.8.8.8.8.8.8.8.8.8.8.8.8.8.8.8.8.8.8.8.8.8.",
"8.8.8.8.8.8.8.8.8.8.8.8.8.8.8.8.8.8.8.8.8.8.8.8.8.8.8.8.8.8.8.8.8.8.8.8.",
"8.8.8.8.8.8.8.8.8.8.8.8.8.8.8.8.8.8.8.8.8.8.8.8.8.0.8.8.8.8.8.8.8.8.8.8.",
"8.8.8.8.8.8.8.8.8.8.8.8.8.8.8.8.8.8.8.8.8.8.8.8.8.8.8.8.8.8.8.8.8.8.8.0.",
"8.8.8.8.8.8.8.8.8.8.8.8.8.8.8.8.8.8.8.8.8.8.8.8.8.8.8.8.8.8.8.8.8.0.6.2.",
"8.8.8.8.8.8.8.8.8.8.8.8.8.8.8.8.8.8.8.8.8.8.8.8.8.8.8.8.8.8.8.8.8.0.,.@.",
"8.8.8.8.8.8.8.8.8.8.8.8.8.8.8.8.8.8.8.8.8.8.8.8.8.8.8.8.8.8.8.8.8.-.&.,.",
"0.8.8.8.9.8.8.8.8.8.8.8.8.8.8.8.8.8.8.8.8.8.8.8.8.8.8.8.8.8.8.8.7.=.>.0.",
"6.7.8.8.7.7.8.9.8.8.8.8.8.8.8.8.8.8.8.8.8.8.8.8.8.8.8.8.8.8.8.8.8.8.8.8.",
"@.1.0.7.%.-.9.0.9.8.8.8.8.8.8.8.8.0.8.8.8.8.8.8.8.8.8.8.8.8.8.8.8.8.8.8.",
"` +.=.=.-.2.5. .$.1.8.0.8.8.8.0.8.8.8.8.8.8.8.8.8.8.8.8.8.8.8.8.8.8.8.8.",
"@ ) } X.,.4.:./ ' +.2.2.6.7.2.2.4.0.8.8.8.8.8.8.8.8.8.8.8.8.8.8.8.8.8.8.",
"* . ^ | X.o.{ Y U ( X.o.;.2.@.o.=.8.8.8.8.8.8.8.8.8.8.8.8.8.8.8.8.8.8.8.",
"w & + ^ ^ ' R : $ # ^ { O.*.1.1.3.8.8.8.8.8.8.8.8.8.8.8.8.8.8.8.8.8.8.8.",
"n u & X . . : 2 0 > T } X.O.>.7.0.8.8.8.8.8.8.8.8.8.8.8.8.8.8.8.8.8.8.8.",
"D Z u 7 % % 9 6 s = E [ } | o.>.6.8.8.8.8.8.8.8.8.8.8.8.8.8.8.8.8.8.8.8.",
"6 A n i u u i p a q $ E ~ ^ | o.=.8.8.8.8.8.8.8.8.8.8.8.8.8.8.8.8.8.8.8.",
"5 l d a n m M m g t 5 - ; + ) { &.8.0.8.8.8.8.8.8.8.8.8.8.8.8.8.8.8.8.8.",
"7 4 y g V H B N m b z 0 < $ U [ *.8.0.8.8.8.8.8.8.8.8.8.8.8.8.8.8.8.8.8.",
"j j S L J J J J B C C g 8 $ R [ *.8.8.8.8.8.8.8.8.8.8.8.8.8.8.8.8.8.8.8.",
"u.u.u.p.p.p.p.i.I N B C w $ R [ *.8.8.8.8.8.8.8.8.8.8.8.8.8.8.8.8.8.8.8.",
"i.p.p.p.p.p.p.p.e.r.w.K r , R [ #.>.6.0.8.8.8.8.8.8.8.8.8.8.8.8.8.8.8.8.",
"! ! ! ! ! ! ! ! e.d.s.q.F k R [ X.O.3.0.8.8.8.8.8.8.8.8.8.8.8.8.8.8.8.8.",
"! ! ! ! ! ! ! ! ! d.s.a.w.f R [ X.@.3.0.8.8.8.8.8.8.8.8.8.8.8.8.8.8.8.8.",
"! ! ! ! ! ! ! ! ! ! ! t...G ] | @.,.%.1.0.8.8.8.8.8.8.8.8.8.8.8.8.8.8.8.",
"! ! ! ! ! ! ! ! ! ! ! ! Q ~ | #.<.6.*.1.0.8.8.8.8.8.8.8.8.8.8.8.8.8.8.8.",
"! ! ! ! h.h.h.h.! ! ! ! W ^ | 1.0.8.8.8.8.8.8.8.8.8.8.8.8.8.8.8.8.8.8.8.",
"! ! ! h.h.h.h.! ! ! ! Q ' { o.1.0.8.8.8.8.8.8.8.8.8.8.8.8.8.8.8.8.8.8.8.",
"! ! ! h.h.h.h.! ! ! ! _ _ X.X.2.0.8.8.8.8.8.8.8.8.8.8.8.8.8.8.8.8.8.8.8.",
"h.h.h.h.h.h.h.h.h.h.h._ _ X.X.-.6.8.8.8.8.8.8.8.8.8.8.8.8.8.8.8.8.8.8.8.",
"h.h.h.h.h.h.h.h.h.h.h._ _ | X.X.=.8.8.8.8.8.8.8.8.8.8.8.8.8.8.8.8.8.8.8.",
"h.h.h.h.h.h.h.h.h.h.f.v @ ` | X.&.8.8.8.8.8.8.8.8.8.8.8.8.8.8.8.8.8.8.8.",
"h.h.h.h.h.h.h.h.h.f.g.c   ^ | X.*.8.0.8.8.8.8.8.8.8.8.8.8.8.8.8.8.8.8.8.",
"h.h.h.h.h.h.h.h.h.f.f.x   ~ | X.&.8.8.7.8.8.8.8.8.8.8.8.8.8.8.8.8.8.8.8."
};
