/* XPM */
static char *result[] = {
/* columns rows colors chars-per-pixel */
"36 36 140 2 ",
"   c #2C5C6F",
".  c #355266",
"X  c #315B6F",
"o  c #385A74",
"O  c #1E6478",
"+  c #187B7D",
"@  c #306370",
"#  c #5F4456",
"$  c #72435C",
"%  c #495364",
"&  c #455768",
"*  c #5A5261",
"=  c #48597D",
"-  c #6C4663",
";  c #873D4F",
":  c #8D3D51",
">  c #9B3E5A",
",  c #AE3D6A",
"<  c #81424E",
"1  c #93404C",
"2  c #954B4F",
"3  c #884A51",
"4  c #8B4D5C",
"5  c #964953",
"6  c #914058",
"7  c #A44B5D",
"8  c #B7475F",
"9  c #B0485C",
"0  c #AA5751",
"q  c #AB5950",
"w  c #B25B52",
"e  c #B55856",
"r  c #B7644E",
"t  c #B9634D",
"y  c #BB6A5E",
"u  c #A0745B",
"i  c #875667",
"p  c #8A4973",
"a  c #964171",
"s  c #AD4660",
"d  c #B14763",
"f  c #BD5061",
"g  c #96626F",
"h  c #C56D4C",
"j  c #CD754D",
"k  c #D4774A",
"l  c #C76351",
"z  c #D46666",
"x  c #D98657",
"c  c #D88558",
"v  c #186D81",
"b  c #0D7585",
"n  c #027F8E",
"m  c #08788A",
"M  c #107984",
"N  c #007A9B",
"B  c #3E7089",
"V  c #0D67A9",
"C  c #136DB2",
"Z  c #0973B3",
"A  c #0E5FC3",
"S  c #1563C4",
"D  c #1966C5",
"F  c #1467C8",
"G  c #136ACB",
"H  c #0E73D5",
"J  c #0B78DA",
"K  c #266EC9",
"L  c #2A72CB",
"P  c #087EE1",
"I  c #A36B80",
"U  c #0F8185",
"Y  c #02838A",
"T  c #008D8D",
"R  c #12808C",
"E  c #02918E",
"W  c #08948C",
"Q  c #009E8E",
"!  c #048394",
"~  c #008F90",
"^  c #009390",
"/  c #239F94",
"(  c #00A392",
")  c #00AB94",
"_  c #0EAD96",
"`  c #11AD96",
"'  c #01B196",
"]  c #01BC99",
"[  c #21BC9C",
"{  c #03C39B",
"}  c #09C39B",
"|  c #0EC99D",
" . c #17CC9F",
".. c #19CD9F",
"X. c #1CD1A0",
"o. c #23D4A2",
"O. c #2BD6A3",
"+. c #2DDAA4",
"@. c #33DBA5",
"#. c #39DEA7",
"$. c #3FE0A7",
"%. c #44E3A9",
"&. c #4CE7AA",
"*. c #4EE8AB",
"=. c #54EBAC",
"-. c #5AEEAD",
";. c #64F3AF",
":. c #67F4B0",
">. c #6DF7B1",
",. c #6EF8B1",
"<. c #71F9B2",
"1. c #0584E6",
"2. c #0089E5",
"3. c #018BED",
"4. c #008DF0",
"5. c #269FF5",
"6. c #4381CF",
"7. c #5590D8",
"8. c #689BDF",
"9. c #5CB9F9",
"0. c #60B0E7",
"q. c #ADA7BA",
"w. c #DEA787",
"e. c #DAA699",
"r. c #F1B398",
"t. c #C8A1A1",
"y. c #C0C0B0",
"u. c #87B7D8",
"i. c #8FB5E3",
"p. c #95BBE7",
"a. c #92BAE8",
"s. c #C0C1D0",
"d. c #E1CFD0",
"f. c #EED9D5",
"g. c #F1DAD4",
"h. c #F9E2D2",
"j. c #CED6E5",
"k. c #D3D9E6",
"l. c #D8E8F9",
"z. c #E9E6E9",
/* pixels */
">.>.>.>.>.>.>.>.>.>.>.>.>.>.>.>.>.>.>.>.>.>.>.>.>.>.>.>.>.>.>.>.>.>.>.>.",
">.>.>.>.>.>.>.>.>.>.>.>.>.>.>.>.>.>.>.>.>.>.>.>.>.>.>.>.>.>.>.>.>.>.>.>.",
">.>.>.>.>.>.>.>.>.>.>.>.>.>.>.>.>.>.>.>.>.>.>.>.>.>.>.>.>.>.>.>.>.>.>.>.",
">.>.>.>.>.>.>.>.>.>.>.<.>.>.>.>.>.>.>.>.>.>.>.>.>.>.>.>.>.,.>.>.>.>.>.>.",
">.>.>.>.>.>.>.>.>.>.>.>.>.>.>.>.>.>.>.>.>.>.>.>.>.>.>.>.>.>.>.>.>.>.>.>.",
">.>.>.<.>.>.>.>.>.>.>.>.>.>.>.>.>.>.>.>.>.>.>.>.>.>.>.>.>.>.>.>.>.>.>.>.",
",.,.:.-.:.>.>.>.>.>.>.>.>.>.>.>.>.>.>.>.>.>.>.>.>.>.>.>.>.>.>.>.>.>.>.>.",
">.>.&...=.<.,.>.>.>.>.>.>.>.>.>.>.>.>.>.>.>.>.>.>.>.>.>.>.>.>.>.>.>.>.>.",
"/ [ O.%.;.>.>.>.>.>.>.>.>.>.>.>.>.,.>.>.>.>.>.>.>.>.>.>.>.>.>.>.>.>.>.>.",
"/ [ #.>.<.>.>.>.>.>.>.>.>.>.>.>.>.>.>.>.>.>.>.>.>.>.,.,.>.>.>.>.>.>.>.>.",
">.:.>.>.>.>.>.>.>.>.>.>.>.>.>.>.>.>.>.>.>.>.>.>.>.>.;.;.>.>.,.>.>.>.>.>.",
">.<.>.>.>.>.>.>.>.>.>.>.>.>.>.>.>.>.>.>.>.>.,.,.,.>.@.@.>.<.>.>.>.>.>.>.",
">.>.>.>.>.>.>.>.>.>.>.>.>.>.>.>.>.>.>.>.>.,.,.,.;.@._ _ @.@.=.<.>.<.<.<.",
">.>.>.>.>.>.>.>.>.>.>.>.>.>.>.>.>.>.>.>.;.=.;.<.-.} T Y ) ] +.=.=.=.=.=.",
">.>.>.>.>.>.>.>.>.>.>.>.>.>.>.>.>.>.>.,.=. .*.,.=.} E m n ' { } } } } } ",
">.>.>.>.>.>.>.>.>.>.>.>.>.>.>.>.>.>.,.,.;.&.O.o.X.{ E O % U ^ T T T ~ ~ ",
">.>.>.>.>.>.>.>.>.>.>.>.>.>.>.>.,.>.>.<.:.$.| ' ( ( + * 3 &   o = o X X ",
">.>.>.>.>.>.>.>.>.>.>.>.>.>.>.;.;.,.>.:.%.{ ] W v v * 2 q 3 < : , 6 < < ",
">.>.>.>.>.>.>.>.>.>.>.>.>.>.:.O.@.>.>.#.} ] T @ $ a s q q 0 0 0 e 0 q q ",
">.>.>.>.>.>.>.>.>.>.>.>.>.>.>.&.@.O.O.` T W @ # ; 9 w e d 5 7 f h r q w ",
">.>.>.>.>.>.>.>.>.>.>.>.>.>.>.<.*...{ Q Y b - : 2 r e s , < > f k h l t ",
">.>.>.>.>.>.>.>.>.>.>.>.>.>.>.>.>.-. .{ ( b p 8 r j f , 4 0 y y c x c c ",
">.>.>.>.>.>.>.>.>.>.>.>.>.>.>.>.,.>.=.o.) b i l j r 1 I d.f.f.g.g.h.g.g.",
">.>.>.>.>.>.>.>.>.>.>.>.>.>.>.>.>.>.,.@.) b i l c e.t.q.p.a.a.a.p.p.p.a.",
">.>.>.>.>.>.>.,.>.>.>.>.>.>.>.>.>.>.,.+.) b p z w.k.l.i.S S S S S S S S ",
">.>.>.>.>.>.>.>.>.>.>.>.>.>.>.>.>.>.>.+.) M u r.j.6.L K S S S S S S S S ",
"<.,.,.>.>.>.>.>.>.>.>.>.<.>.>.>.>.,.,.+.( R y.s.7.F A S S S S S S C S S ",
"%.-.,.>.>.>.>.>.>.>.>.>.>.>.>.>.<.:.&.X.) R u.8.A S S F H H H H H H H H ",
" .%.<.>.>.>.>.>.>.>.>.>.>.>.>.>.:.=...{ ) Y C D S F F H 3.3.4.3.4.3.3.3.",
"=.;.>.>.>.>.>.>.>.>.>.>.>.>.>.<.&.X.*.o.] ) ! V G 1.3.3.4.4.4.4.4.H G G ",
",.,.>.>.>.>.>.>.>.>.>.>.>.>.>.,.=.#.:.=.O.{ ) ! Z 3.4.4.4.4.4.4.4.P J J ",
">.>.>.>.>.>.>.>.>.>.>.>.>.>.>.,.,.<.<.<.&.} { Q N 2.4.4.4.4.4.4.4.4.4.4.",
">.>.>.>.>.>.>.>.>.>.>.>.>.>.>.>.>.>.>.<.&.{ { Q N 2.4.4.4.4.4.3.4.4.4.4.",
">.>.>.>.>.>.>.>.>.>.>.>.>.>.>.>.>.>.>.<.*.} { Q N 2.4.3.4.4.4.4.4.4.4.4.",
">.>.>.>.>.>.>.>.>.>.>.>.>.>.>.>.>.>.>.<.*.} ) + B 0.5.4.4.4.4.4.4.4.4.4.",
">.>.>.>.>.>.>.>.>.>.>.>.>.>.>.>.>.>.>.<.*.] T . g z.9.4.4.4.4.4.4.4.3.4."
};
