/* XPM */
static char *result[] = {
/* columns rows colors chars-per-pixel */
"36 36 132 2 ",
"   c #793546",
".  c #257079",
"X  c #4E4256",
"o  c #5C4B5C",
"O  c #935D6A",
"+  c #94636F",
"@  c #097283",
"#  c #0B7885",
"$  c #007588",
"%  c #00748B",
"&  c #01738C",
"*  c #00748C",
"=  c #018187",
"-  c #018088",
";  c #01818A",
":  c #01828A",
">  c #05818A",
",  c #068588",
"<  c #008C8D",
"1  c #019088",
"2  c #01908B",
"3  c #01908D",
"4  c #02918E",
"5  c #00978F",
"6  c #01978F",
"7  c #018096",
"8  c #01839B",
"9  c #118190",
"0  c #009B90",
"q  c #009C90",
"w  c #049D90",
"e  c #00A092",
"r  c #00A393",
"t  c #00A490",
"y  c #00A893",
"u  c #00AA97",
"i  c #06A894",
"p  c #00AC94",
"a  c #00AC95",
"s  c #00AD96",
"d  c #00B597",
"f  c #00B697",
"g  c #05B697",
"h  c #00B897",
"j  c #00BC98",
"k  c #00BF9A",
"l  c #16BB9A",
"z  c #18BC9B",
"x  c #00C19A",
"c  c #02C09A",
"v  c #00C29A",
"b  c #01C39B",
"n  c #02C29A",
"m  c #05C29B",
"M  c #07C39B",
"N  c #00C49B",
"B  c #00C59B",
"V  c #08C59C",
"C  c #0BC69C",
"Z  c #0CC69C",
"A  c #0FC89D",
"S  c #1CC09C",
"D  c #11C99E",
"F  c #12CA9E",
"G  c #14CB9E",
"H  c #1ACFA0",
"J  c #1DD1A1",
"K  c #2DCFA1",
"L  c #20D1A1",
"P  c #21D1A1",
"I  c #28D5A2",
"U  c #28D7A3",
"Y  c #29D7A3",
"T  c #2FD8A4",
"R  c #31D9A4",
"E  c #33DAA5",
"W  c #33DBA5",
"Q  c #34DBA5",
"!  c #33DDA5",
"~  c #34DCA5",
"^  c #3BDEA6",
"/  c #41C09F",
"(  c #41C7A1",
")  c #4DCFA4",
"_  c #40DCA6",
"`  c #4ADCA7",
"'  c #44E1A8",
"]  c #44E3A8",
"[  c #46E4A9",
"{  c #5BE0AA",
"}  c #50E9AB",
"|  c #51E9AB",
" . c #52EAAB",
".. c #56EBAC",
"X. c #55ECAC",
"o. c #56ECAC",
"O. c #58EEAD",
"+. c #5BEEAD",
"@. c #5CEFAD",
"#. c #5CEFAE",
"$. c #5DEFAE",
"%. c #5EF0AE",
"&. c #5FF0AE",
"*. c #61F1AF",
"=. c #63F2AF",
"-. c #67F4B0",
";. c #68F5B0",
":. c #69F5B0",
">. c #6AF6B0",
",. c #6CF6B1",
"<. c #6CF7B1",
"1. c #6DF7B1",
"2. c #6EF7B1",
"3. c #6DF8B1",
"4. c #6DF9B1",
"5. c #6EF8B1",
"6. c #6FF8B1",
"7. c #6EF9B1",
"8. c #6DF8B2",
"9. c #70F8B1",
"0. c #70F8B2",
"q. c #70F9B2",
"w. c #71F9B2",
"e. c #72F9B2",
"r. c #71FAB2",
"t. c #70FBB2",
"y. c #73FAB2",
"u. c #71FCB2",
"i. c #E9E5E9",
"p. c #E9E6E9",
"a. c #F1E8E9",
"s. c None",
/* pixels */
"1.1.1.1.1.1.1.1.1.1.1.1.1.1.1.t./ : d 6 $ @ o   + p.i.s.s.s.s.s.s.s.s.s.",
"w.] ^ >.2.1.1.1.1.1.1.1.1.1.1.7.{ ( _ z e w . X O a.i.s.s.s.s.s.s.s.s.s.",
"1.1.1.1.1.1.1.1.1.1.1.1.1.1.1.1.1.<.:.-.' g , @ # 9 * s.s.s.s.s.s.s.s.s.",
"1.1.1.1.1.1.1.1.1.1.1.1.1.1.1.1.6.*.I J l 4 r s a y * s.s.s.s.s.s.s.s.s.",
"1.1.1.1.1.1.1.1.1.1.1.1.1.1.1.1.6.=.E U S 5 d B N v 1 s.s.% % * % % % % ",
"1.1.1.1.1.1.1.1.1.1.1.1.1.1.1.1.1.1.1.q.| G A V x k 2 * % 8 = ; ; ; ; ; ",
"1.1.1.1.1.1.1.1.1.1.1.1.1.1.1.1.1.1.1.5.:.%.&.R x k 3 & 7 u h f f f f f ",
"u.r.0.1.1.1.1.1.1.1.1.1.1.1.1.1.1.1.1.1.2.q.w.@.W M < - t j v x x x x x ",
") ` X.,.1.1.1.1.1.1.1.1.1.1.1.1.1.1.1.1.1.1.1.y.$.Z 0 q b H P L L L L L ",
"> i Y :.5.1.1.1.1.1.1.1.1.1.1.1.1.1.1.1.1.1.1.1. .C c m F o.,.;.;.;.;.;.",
"p K #.,.1.1.1.1.1.1.1.1.1.1.1.1.1.1.1.1.1.1.6.[ D n ~ X...:.9.6.6.6.6.6.",
"! O.e.1.1.1.1.1.1.1.1.1.1.1.1.1.1.1.1.1.1.1.5.} T Q +.y.q.2.1.1.1.1.1.1.",
"5.2.1.1.1.1.1.1.1.1.1.1.1.1.1.1.1.1.1.1.1.1.1.2.5.5.1.1.1.1.1.1.1.1.1.1.",
"1.1.1.1.1.1.1.1.1.1.1.1.1.1.1.1.1.1.1.1.1.1.1.1.1.1.1.1.1.1.1.1.1.1.1.1.",
"1.1.1.1.1.1.1.1.1.1.1.1.1.1.1.1.1.1.1.1.1.1.1.1.1.1.1.1.1.1.1.1.1.1.1.1.",
"1.1.1.1.1.1.1.1.1.1.1.1.1.1.1.1.1.1.1.1.1.1.1.1.1.1.1.1.1.1.1.1.1.1.1.1.",
"1.1.1.1.1.1.1.1.1.1.1.1.1.1.1.1.1.1.1.1.1.1.1.1.1.1.1.1.1.1.1.1.1.1.1.1.",
"1.1.1.1.1.1.1.1.1.1.1.1.1.1.1.1.1.1.1.1.1.1.1.1.1.1.1.1.1.1.1.1.1.1.1.1.",
"1.1.1.1.1.1.1.1.1.1.1.1.1.1.1.1.1.1.1.1.1.1.1.1.1.1.1.1.1.1.1.1.1.1.1.1.",
"1.8.3.1.1.1.3.8.1.3.8.1.1.1.1.1.1.1.1.1.1.1.1.1.1.1.1.1.1.1.1.1.1.1.1.1.",
"3.1.1.1.1.1.1.1.3.1.1.3.1.8.3.1.8.3.1.1.1.3.8.1.1.1.1.1.1.1.1.1.1.1.1.1.",
"1.1.1.1.1.1.1.1.1.3.1.1.4.1.1.3.1.1.1.1.1.1.1.3.1.1.8.3.8.3.1.1.1.3.8.1.",
"1.8.3.1.1.1.3.8.1.1.8.3.1.1.3.1.1.1.1.8.3.1.1.1.3.8.1.3.8.1.3.8.1.1.1.3.",
"3.1.1.1.1.1.1.1.3.1.8.1.1.8.1.1.8.3.1.1.1.3.8.1.1.1.3.1.1.3.1.1.3.1.1.1.",
"1.1.1.1.1.1.1.1.1.3.8.3.1.1.1.3.8.1.3.8.1.1.1.3.1.1.1.3.1.1.3.1.1.3.1.1.",
"1.8.3.1.1.1.3.8.3.1.1.1.3.8.1.1.1.3.1.1.3.1.1.1.3.1.1.1.8.1.1.8.1.1.8.1.",
"3.8.8.3.1.1.1.8.8.3.8.1.1.1.3.1.1.1.3.1.1.3.1.1.1.8.1.1.3.1.1.3.1.1.3.1.",
"1.3.8.3.1.1.1.3.8.1.3.8.1.3.8.1.3.8.1.3.8.1.3.8.1.3.8.1.1.1.1.1.1.1.1.1.",
"3.3.1.1.1.1.1.1.1.3.1.1.3.1.1.3.1.1.3.1.1.3.1.1.3.1.1.3.3.8.1.3.8.1.3.8.",
"3.1.1.1.1.1.1.1.1.1.3.1.1.3.1.1.3.1.1.3.1.1.3.1.1.3.1.1.3.1.3.1.1.3.1.1.",
"1.1.1.1.1.1.1.1.1.1.1.8.1.1.8.1.1.8.1.1.8.1.1.8.1.1.8.1.1.8.1.3.1.1.3.1.",
"1.1.1.1.1.1.1.1.1.1.1.3.1.1.3.1.1.3.1.1.3.1.1.3.1.1.3.1.1.3.1.1.8.1.1.8.",
"1.1.1.1.1.1.1.1.1.1.1.1.1.1.1.1.1.1.1.1.1.1.1.1.1.1.1.1.1.1.1.1.3.1.1.3.",
"1.1.1.1.1.1.1.1.1.1.1.1.1.1.1.1.1.1.1.1.1.1.1.1.1.1.1.1.1.1.1.1.1.1.1.1.",
"1.1.1.1.1.1.1.1.1.1.1.1.1.1.1.1.1.1.1.1.1.1.1.1.1.1.1.1.1.1.1.1.1.1.1.1.",
"1.1.1.1.1.1.1.1.1.1.1.3.1.1.3.1.1.3.1.1.3.1.1.3.1.1.3.1.1.3.1.1.1.1.1.1."
};
