/* XPM */
static char *_soc6_455iu[] = {
/* columns rows colors chars-per-pixel */
"36 36 202 2 ",
"   c #5F3F52",
".  c #793546",
"X  c #335A6E",
"o  c #28626E",
"O  c #257079",
"+  c #4E4256",
"@  c #5E4255",
"#  c #5C4B5C",
"$  c #485766",
"%  c #716675",
"&  c #935D6A",
"*  c #94636F",
"=  c #9E606D",
"-  c #846B78",
";  c #057084",
":  c #097283",
">  c #0B7885",
",  c #00728B",
"<  c #007588",
"1  c #00738C",
"2  c #01738C",
"3  c #4B7281",
"4  c #018187",
"5  c #018088",
"6  c #01818A",
"7  c #01828A",
"8  c #05818A",
"9  c #008588",
"0  c #008589",
"q  c #01848B",
"w  c #068588",
"e  c #00868C",
"r  c #008A8C",
"t  c #008A8D",
"y  c #008C8D",
"u  c #088889",
"i  c #0D888D",
"p  c #148D8F",
"a  c #019088",
"s  c #009289",
"d  c #01908B",
"f  c #01908D",
"g  c #02918E",
"h  c #00978F",
"j  c #01978F",
"k  c #009B8D",
"l  c #009D8D",
"z  c #009C8E",
"x  c #018096",
"c  c #01839B",
"v  c #118190",
"b  c #009B90",
"n  c #009C90",
"m  c #049D90",
"M  c #3D8A98",
"N  c #00A291",
"B  c #00A092",
"V  c #00A393",
"C  c #00A490",
"Z  c #00A893",
"A  c #00AA97",
"S  c #06A894",
"D  c #00AC94",
"F  c #00AC95",
"G  c #00AD96",
"H  c #00B597",
"J  c #00B697",
"K  c #05B697",
"L  c #00B897",
"P  c #00BA98",
"I  c #00BC98",
"U  c #00BF9A",
"Y  c #01BF9A",
"T  c #06BC99",
"R  c #04BE9A",
"E  c #05BE9A",
"W  c #0FBC9B",
"Q  c #16BB9A",
"!  c #18BC9B",
"~  c #31B49B",
"^  c #37B69C",
"/  c #73AEBA",
"(  c #00C19A",
")  c #02C09A",
"_  c #00C29A",
"`  c #01C39B",
"'  c #02C29A",
"]  c #05C29B",
"[  c #07C39B",
"{  c #00C49B",
"}  c #00C59B",
"|  c #04C59B",
" . c #08C59C",
".. c #0BC69C",
"X. c #0CC69C",
"o. c #0CC79D",
"O. c #0FC89D",
"+. c #1CC09C",
"@. c #11C99E",
"#. c #12CA9E",
"$. c #14CB9E",
"%. c #10CD9E",
"&. c #17CD9F",
"*. c #14CF9F",
"=. c #17CE9F",
"-. c #2AC19E",
";. c #1ACFA0",
":. c #1CCFA0",
">. c #1CD1A0",
",. c #1DD1A1",
"<. c #2DCFA1",
"1. c #20D1A1",
"2. c #21D1A1",
"3. c #28D5A2",
"4. c #28D7A3",
"5. c #29D7A3",
"6. c #2DD7A3",
"7. c #2FD8A4",
"8. c #31D9A4",
"9. c #33DAA5",
"0. c #33DBA5",
"q. c #34DBA5",
"w. c #33DDA5",
"e. c #34DCA5",
"r. c #3BDEA6",
"t. c #3FE3A8",
"y. c #41C09F",
"u. c #41C7A1",
"i. c #49CBA3",
"p. c #4DCFA4",
"a. c #40DCA6",
"s. c #48DCA7",
"d. c #4ADCA7",
"f. c #57DCA8",
"g. c #42E2A8",
"h. c #42E3A8",
"j. c #44E1A8",
"k. c #44E3A8",
"l. c #43E4A9",
"z. c #46E4A9",
"x. c #49E7AA",
"c. c #4AE6AA",
"v. c #4BE6AA",
"b. c #4CE7AA",
"n. c #4EE9AB",
"m. c #5BE0AA",
"M. c #50E9AB",
"N. c #51E9AB",
"B. c #52EAAB",
"V. c #53EAAC",
"C. c #56EBAC",
"Z. c #55ECAC",
"A. c #56ECAC",
"S. c #58EEAD",
"D. c #5AEEAD",
"F. c #5BEEAD",
"G. c #5CEFAD",
"H. c #5CEFAE",
"J. c #5DEFAE",
"K. c #5EF0AE",
"L. c #5FF0AE",
"P. c #5EF1AE",
"I. c #61E9AD",
"U. c #61F1AF",
"Y. c #63F2AF",
"T. c #68F1AF",
"R. c #67F4B0",
"E. c #66F6B0",
"W. c #68F5B0",
"Q. c #69F5B0",
"!. c #6AF5B0",
"~. c #6AF6B0",
"^. c #6BF6B1",
"/. c #6CF6B1",
"(. c #6CF7B1",
"). c #6DF7B1",
"_. c #6EF7B1",
"`. c #6EF8B1",
"'. c #6FF8B1",
"]. c #6EF9B1",
"[. c #6FF9B2",
"{. c #70F8B1",
"}. c #70F8B2",
"|. c #70F9B2",
" X c #71F9B2",
".X c #72F9B2",
"XX c #70FAB2",
"oX c #71FAB2",
"OX c #70FBB2",
"+X c #71FBB2",
"@X c #73FAB2",
"#X c #71FCB2",
"$X c #AB8B98",
"%X c #B1CAD2",
"&X c #BEDCF5",
"*X c #DAE9EF",
"=X c #E9E5E9",
"-X c #E9E6E9",
";X c #E9E8EB",
":X c #F1E8E9",
">X c #F2EAED",
",X c None",
/* pixels */
").).).).).).).).).).).).).).).OXy.7 H j < : # . * -X=X,X,X,X,X,X,X,X,X,X",
" Xk.r.~._.).).).).).).).).).).].m.u.a.! B m O + & :X=X,X,X,X,X,X,X,X,X,X",
"v.6.9.!.`.).).).).).).).).).).).].+X|.h.*.Y t 3 $X=X,X,X,X,X,X,X,X,X,X,X",
"o.g.).).).).).).).).).).).).).).).).)._.x.R 0 / &X=X,X,X,X,X,X,X,X,X,X,X",
"N.Y.'.).).).).).).).).).).).).).).).)..Xn.E 9 1 =X,X,X,X,X,X,X,X,X,X,X,X",
" X'.).).).).).).).).).).).).).).).).). Xb.Y N 1 1 ,X,X,X,X,X,X,X,X,X,X,X",
").).).).).).).).).).).).).).).).).).).|.V.&.| l , ,X,X,X,X,X,X,X,X,X,X,X",
").).).).).).).).).).).).).).).).).).).)./.F.=.k 1 ,X,X,X,X,X,X,X,X,X,X,X",
").).).).).).).).).).).).).).).).)._.|.`. X^.>.k 1 ,X,X,X,X,X,X,X,X,X,X,X",
"XX`.).).).).).).).).).).).).).).`.R.c.P.E.l.%.z , =X,X,X,X,X,X,X,X,X,X,X",
"I.T.).).).).).).).).).).).).).).}.L.:.a.s.T P s M *X=X,X,X,X,X,X,X,X,X,X",
"p i.XX).).).).).).).).).).).).)._.~.D.~ i q e o - ;X=X,X,X,X,X,X,X,X,X,X",
"^ f.[.).).).).).).).).).).).).).).`.}.-.r ; X   = >X=X,X,X,X,X,X,X,X,X,X",
"XX`.).).).).).).).).).).).).).).)._.`.t.W u $ @ % %X, ,X,X,X,X,X,X,X,X,X",
").).).).).).).).).).).).).).).).).(.Q.R.j.K w : > v 1 ,X,X,X,X,X,X,X,X,X",
").).).).).).).).).).).).).).).).'.U.3.,.Q g V G F Z 1 ,X,X,X,X,X,X,X,X,X",
").).).).).).).).).).).).).).).).'.Y.9.4.+.h H } { _ a ,X,X, , 1 , , , , ",
").).).).).).).).).).).).).).).).).).).|.N.$.O. .( U d 1 , c 4 6 6 6 6 6 ",
").).).).).).).).).).).).).).).).).).).`.Q.K.L.8.( U f 2 x A L J J J J J ",
"#XoX}.).).).).).).).).).).).).).).).).)._.|. XG.0.[ y 5 C I _ ( ( ( ( ( ",
"p.d.Z./.).).).).).).).).).).).).).).).).).).).@XJ.X.b n ` ;.2.1.1.1.1.1.",
"8 S 5.Q.`.).).).).).).).).).).).).).).).).).).).B...) ] #.A./.W.W.W.W.W.",
"D <.H./.).).).).).).).).).).).).).).).).).).'.z.@.' e.Z.C.Q.{.'.'.'.'.'.",
"w.S..X).).).).).).).).).).).).).).).).).).).`.M.7.q.F.@X|._.).).).).).).",
"`._.).).).).).).).).).).).).).).).).).).).).)._.`.`.).).).).).).).).).).",
").).).).).).).).).).).).).).).).).).).).).).).).).).).).).).).).).).).).",
").).).).).).).).).).).).).).).).).).).).).).).).).).).).).).).).).).).).",
").).).).).).).).).).).).).).).).).).).).).).).).).).).).).).).).).).).).",
").).).).).).).).).).).).).).).).).).).).).).).).).).).).).).).).).).).).",
").).).).).).).).).).).).).).).).).).).).).).).).).).).).).).).).).).).).",
").).).).).).).).).).).).).).).).).).).).).).).).).).).).).).).).).).).).",
").).).).).).).).).).).).).).).).).).).).).).).).).).).).).).).).).).).).",
").).).).).).).).).).).).).).).).).).).).).).).).).).).).).).).).).).).).",
").).).).).).).).).).).).).).).).).).).).).).).).).).).).).).).).).).).).",
").).).).).).).).).).).).).).).).).).).).).).).).).).).).).).).).).).).).",
").).).).).).).).).).).).).).).).).).).).).).).).).).).).).).).).).).).)."
};
