/* XPM */
static char *result[] = {
/* columns rows colors chars-per-pixel */
"36 36 189 2 ",
"   c #017794",
".  c #017993",
"X  c #017995",
"o  c #017996",
"O  c #017B9D",
"+  c #017D9D",
"@  c #017DA0",
"#  c #017EAC",
"$  c #007CAF",
"%  c #017FAF",
"&  c #0079B2",
"*  c #017BB3",
"=  c #017FB1",
"-  c #017AB4",
";  c #018085",
":  c #018187",
">  c #008687",
",  c #018189",
"<  c #01818A",
"1  c #008888",
"2  c #008E8A",
"3  c #00958C",
"4  c #00978D",
"5  c #009F8D",
"6  c #009F8E",
"7  c #079C8F",
"8  c #018293",
"9  c #018595",
"0  c #019296",
"q  c #009D91",
"w  c #009E93",
"e  c #019997",
"r  c #009699",
"t  c #219990",
"y  c #209D91",
"u  c #00A28D",
"i  c #00A08E",
"p  c #00A28E",
"a  c #00A390",
"s  c #00A092",
"d  c #00A790",
"f  c #00A094",
"g  c #00A495",
"h  c #00AD93",
"j  c #0EA993",
"k  c #00B096",
"l  c #00B496",
"z  c #00B697",
"x  c #09B797",
"c  c #00B896",
"v  c #00B996",
"b  c #00B897",
"n  c #00BA97",
"m  c #00BC98",
"M  c #00BD99",
"N  c #00BF99",
"B  c #00BF9A",
"V  c #22B698",
"C  c #0183A3",
"Z  c #008BA0",
"A  c #008BA3",
"S  c #018DA2",
"D  c #0183AB",
"F  c #0184A8",
"G  c #0085A9",
"H  c #0184AA",
"J  c #0086BD",
"K  c #00C099",
"L  c #00C19A",
"P  c #00C29A",
"I  c #01C29A",
"U  c #04C09A",
"Y  c #05C39B",
"T  c #07C29B",
"R  c #00C59B",
"E  c #05C49B",
"W  c #04C69C",
"Q  c #08C29B",
"!  c #08C49C",
"~  c #08C59C",
"^  c #0BC69C",
"/  c #0CCB9E",
"(  c #0ECC9E",
")  c #10CA9D",
"_  c #12CA9E",
"`  c #13CB9E",
"'  c #13CC9E",
"]  c #16CE9F",
"[  c #1ACE9F",
"{  c #1BCFA0",
"}  c #1CCEA0",
"|  c #1ECEA0",
" . c #1FCEA0",
".. c #1AD0A0",
"X. c #1DD1A1",
"o. c #20D1A1",
"O. c #21D1A1",
"+. c #20D2A1",
"@. c #20D3A1",
"#. c #21D3A1",
"$. c #23D2A1",
"%. c #23D3A1",
"&. c #21D4A1",
"*. c #21D5A2",
"=. c #27D4A2",
"-. c #29D5A3",
";. c #2BD4A2",
":. c #29D6A3",
">. c #32DAA5",
",. c #35DBA5",
"<. c #36DCA5",
"1. c #41E1A8",
"2. c #42E2A8",
"3. c #44E2A8",
"4. c #44E3A8",
"5. c #49E5A9",
"6. c #4CE7AA",
"7. c #4EE8AA",
"8. c #4FE9AB",
"9. c #52EAAB",
"0. c #53EAAB",
"q. c #52EBAC",
"w. c #53EBAC",
"e. c #56EBAC",
"r. c #56ECAC",
"t. c #59EEAD",
"y. c #5BEEAD",
"u. c #5EF0AE",
"i. c #64EFAE",
"p. c #60F0AE",
"a. c #61F1AF",
"s. c #62F1AF",
"d. c #63F2AF",
"f. c #6AF2AF",
"g. c #67F4B0",
"h. c #68F4B0",
"j. c #68F5B0",
"k. c #69F5B0",
"l. c #6AF5B0",
"z. c #6AF6B0",
"x. c #6BF6B0",
"c. c #6AF6B1",
"v. c #6CF5B0",
"b. c #6CF6B1",
"n. c #6CF7B1",
"m. c #6DF7B1",
"M. c #6EF7B1",
"N. c #6EF8B1",
"B. c #6FF8B1",
"V. c #70F8B1",
"C. c #70F8B2",
"Z. c #70F9B2",
"A. c #71F9B2",
"S. c #72F9B2",
"D. c #70FAB2",
"F. c #0081C2",
"G. c #0081C3",
"H. c #0081C4",
"J. c #0082C6",
"K. c #0083C9",
"L. c #0084C9",
"P. c #0085CB",
"I. c #0085D2",
"U. c #0086D5",
"Y. c #0088D0",
"T. c #0088DA",
"R. c #0088DC",
"E. c #0089DE",
"W. c #0089DF",
"Q. c #0089E0",
"!. c #0089E1",
"~. c #0089E3",
"^. c #008AE2",
"/. c #008AE4",
"(. c #008AE5",
"). c #008BEA",
"_. c #008CEA",
"`. c #008CEC",
"'. c #008CED",
"]. c #008CEE",
"[. c #008DEF",
"{. c #008DF0",
"}. c #008DF1",
"|. c #008DF2",
" X c #008EF2",
".X c #008EF3",
"XX c #008EF4",
"oX c #008EF5",
"OX c #008EF6",
/* pixels */
"{.{.{.{.{.{.{.{.{.{.{.{.{.{.{.{.{.{.{.{.{.{.{.{.{.{.{.{.{.{.{.{.{.{.{.{.",
"{.{.{.{.{.{.{.{.{.{.{.{.{.{.{.{.{.{.{.{.{.{.{.{.{.{.{.{.{.{.{.{.{.{.{.{.",
"{.{.{.{.{.{.{.{.{.{.{.{.{.{.{.{.{.{.{.{.{.{.{.{.{.{.{.{.{.{.{.{.{.{.{.{.",
"{.{.{.{.{.{.{.{.{.{.{.{.{.{.{.{.{.{.{.{.{.{.{.{.{.{.{.{.{.{.{.{.{.{.{.{.",
"{.{.{.{.{.{.{.{.{.{.{.{.{.{.{.{.{.{.{.{.{.{.{.{.{.{.{.{.{.{.{.{.{.{.{.{.",
"{.{.{.{.{.{.{.{.{.{.{.{.{.{.{.{.{.{.{.{.{.{.{.{.{.{.{.{.{.{.{.{.{.{.{.{.",
"{.{.{.{.{.{.{.{.{.{.{.{.{.{.{.{.{.{.{.{.{.{.{.{.{.{.{.{.{.{.{.{.{.{.{.{.",
"{.{.{.{.{.{.{.{.{.{.{.{.{.{.{.{.{.{.{.{.{.{.{.{.{.{.{.{.{.{.{.{.{.{.{.{.",
"{.{.{.{.{.{.{.{.{.{.{.{.{.{.{.{.{.{.{.{.{.{.{.{.{.{.{.{.{.{.{.{.{.{.{.{.",
"{.{.{.{.{.{.{.{.{.{.{.{.{.{.{.{.{.{.{.{.{.{.{.{.{.{.{.{.{.{.{.{.{.{.{.{.",
"{.{.{.{.{.{.{.{.{.{.{.{.{.{.{.{.{.{.{.{.{.{.{.{.{.{.{.{.{.{.{.{.{.{.{.{.",
"{.{.{.{.{.{.{.{.{.{.{.{.{.{.{.{.{.{.{.{.{.{.{.{.{.{.{.{.{.{.{.{.{.{.{.{.",
"{.{.{.{.{.{.{.{.{.{.{.{.{.{.{.{.{.{.{.{.{.{.{.{.{.{.{.{.{.{.{.{.{.{.{.{.",
"{.{.{.{.{.{.{.{.{.{.{.{.{.{.{.{.{.{.{.{.{.{.{.{.{.{.{.{.{.{.{.{.{.{.{.{.",
"{.{.{.{.{.{.{.{.{.{.{.{.{.{.{.{.{.{.{.{.{.{.{.{.{.{.{.{.{.{.{.{.{.{.{.{.",
"{.{.{.{.{.{.{.{.{.{.{.{.{.{.{.|..X.X.X}.{.{.{.{.{.{.|..X.X}.{.{.{.{.{.{.",
".X}.{.{. X.X.X.X.X.X.X.X}.}.}.I.G.H.H.Q.oX.X}.{.}.|.U.F.K.)..X{.{.|..X.X",
"!._.}.[./.Q.!.!.!.!.!.Q.).].E.C : , < J ~.^.'.|.].!.F ; 8 Y.`.}.{.(.Q.!.",
"o P.XX_.# . o o o o o X L.R.+ g b z z 0   O T.OXW.@ f n k 9 J..X`.= . o ",
"6 A * % e u i i i 6 i p S H s v P L L h 5 q G - D w c R K d Z & $ r p i ",
"@.j 1 2 l ( #.@.@.&.X.W a 4 N ] O.o.o.+.*.| 7 > 3 m P N I ..V t y x / @.",
"j.;.M T Y ,.l.k.j.x.u.[ B N ^ 6.b.j.j.j.z.s. .U Q ! ~ E _ r.v.f.i.} =.j.",
"N.:.' 8.w.p.B.B.B.B.n.y.%.) 7.h.V.B.B.B.B.m.t.q.w.0.0.9.e.k.Z.D.c.{ -.A.",
"m.5.3.N.S.B.m.m.m.N.h.4.>.2.n.B.m.m.m.m.m.m.C.A.A.A.A.A.Z.M.m.M.x.4.>.<.",
"m.M.M.m.m.m.m.m.m.B.d.$.1.Z.m.m.m.m.m.m.m.m.m.m.m.m.m.m.m.m.m.m.m.A.5.` ",
"m.m.m.m.m.m.m.m.m.m.b.d.g.m.m.m.m.m.m.m.m.m.m.m.m.m.m.m.m.m.m.m.m.M.j.a.",
"m.m.m.m.m.m.m.m.m.m.m.B.N.m.m.m.m.m.m.m.m.m.m.m.m.m.m.m.m.m.m.m.m.m.N.C.",
"m.m.m.m.m.m.m.m.m.m.m.m.m.m.m.m.m.m.m.m.m.m.m.m.m.m.m.m.m.m.m.m.m.m.m.m.",
"m.m.m.m.m.m.m.m.m.m.m.m.m.m.m.m.m.m.m.m.m.m.m.m.m.m.m.m.m.m.m.m.m.m.m.m.",
"m.m.m.m.m.m.m.m.m.m.m.m.m.m.m.m.m.m.m.m.m.m.m.m.m.m.m.m.m.m.m.m.m.m.m.m.",
"m.m.m.m.m.m.m.m.m.m.m.m.m.m.m.m.m.m.m.m.m.m.m.m.m.m.m.m.m.m.m.m.m.m.m.m.",
"m.m.m.m.m.m.m.m.m.m.m.m.m.m.m.m.m.m.m.m.m.m.m.m.m.m.m.m.m.m.m.m.m.m.m.m.",
"m.m.m.m.m.m.m.m.m.m.m.m.m.m.m.m.m.m.m.m.m.m.m.m.m.m.m.m.m.m.m.m.m.m.m.m.",
"m.m.m.m.m.m.m.m.m.m.m.m.m.m.m.m.m.m.m.m.m.m.m.m.m.m.m.m.m.m.m.m.m.m.m.m.",
"m.m.m.m.m.m.m.m.m.m.m.m.m.m.m.m.m.m.m.m.m.m.m.m.m.m.m.m.m.m.m.m.m.m.m.m.",
"m.m.m.m.m.m.m.m.m.m.m.m.m.m.m.m.m.m.m.m.m.m.m.m.m.m.m.m.m.m.m.m.m.m.m.m."
};
