/* XPM */
static char *result[] = {
/* columns rows colors chars-per-pixel */
"36 36 140 2 ",
"   c #374F64",
".  c #2E5C6F",
"X  c #35566A",
"o  c #1D6679",
"O  c #37616F",
"+  c #266871",
"@  c #336070",
"#  c #5B495B",
"$  c #7F424E",
"%  c #734252",
"&  c #764B57",
"*  c #79615F",
"=  c #574B64",
"-  c #475366",
";  c #5F5661",
":  c #6F446A",
">  c #6A697C",
",  c #8F375E",
"<  c #8B3B5D",
"1  c #963963",
"2  c #AF3D69",
"3  c #83424D",
"4  c #96494D",
"5  c #974552",
"6  c #9A5351",
"7  c #A4554E",
"8  c #AB564C",
"9  c #B8534F",
"0  c #AB4C58",
"q  c #B5475F",
"w  c #AA5750",
"e  c #AB5950",
"r  c #B45C53",
"t  c #B85658",
"y  c #9D735A",
"u  c #BB644E",
"i  c #B4665E",
"p  c #904D71",
"a  c #AF4861",
"s  c #BB4768",
"d  c #99626E",
"f  c #C46D4D",
"g  c #C7714D",
"h  c #CA724D",
"j  c #D67B45",
"k  c #D87D47",
"l  c #D17748",
"z  c #D3794C",
"x  c #C76755",
"c  c #C06F5C",
"v  c #D27451",
"b  c #D66766",
"n  c #3A8477",
"m  c #D7804F",
"M  c #DA8757",
"N  c #DD8956",
"B  c #DA8758",
"V  c #E39F78",
"C  c #0B7584",
"Z  c #077986",
"A  c #086F9C",
"S  c #04799B",
"D  c #0367A4",
"F  c #1465BF",
"G  c #0E5FC3",
"H  c #105FC5",
"J  c #1563C4",
"K  c #1967C6",
"L  c #126BCD",
"P  c #106FD1",
"I  c #0E72D4",
"U  c #0979D3",
"Y  c #0B7ADC",
"T  c #256EC9",
"R  c #2A72CB",
"E  c #0C8185",
"W  c #02848B",
"Q  c #008D8D",
"!  c #09908A",
"~  c #019D8D",
"^  c #029493",
"/  c #009A91",
"(  c #06A591",
")  c #00AA95",
"_  c #01B597",
"`  c #00B598",
"'  c #01BB99",
"]  c #3ABB9D",
"[  c #5F8BA3",
"{  c #02C29A",
"}  c #08C59C",
"|  c #0EC99D",
" . c #1BC49E",
".. c #14CC9F",
"X. c #1BD0A0",
"o. c #30CBA1",
"O. c #27D4A2",
"+. c #2BD6A3",
"@. c #2DD9A4",
"#. c #35DCA5",
"$. c #3ADEA6",
"%. c #3EE0A7",
"&. c #42D4A4",
"*. c #40E1A7",
"=. c #42E2A8",
"-. c #4BE6AA",
";. c #4BE8AA",
":. c #53EAAC",
">. c #5CEEAE",
",. c #5AF1AE",
"<. c #66EBAD",
"1. c #63F2AF",
"2. c #67F4B0",
"3. c #6DF7B1",
"4. c #6FF8B1",
"5. c #71F9B2",
"6. c #0683E5",
"7. c #008AE6",
"8. c #078BE8",
"9. c #028AED",
"0. c #008DF0",
"q. c #4381CF",
"w. c #5791D9",
"e. c #41ACF7",
"r. c #5EBAF9",
"t. c #DEA787",
"y. c #EEB497",
"u. c #CFBCB9",
"i. c #F4C0A0",
"p. c #8EB4E3",
"a. c #93B9E7",
"s. c #92B9E8",
"d. c #A5CBE8",
"f. c #F1DBD4",
"g. c #F9E1D3",
"h. c #CED6E5",
"j. c #D2D9E6",
"k. c #D7E7F9",
"l. c #EAE6E9",
"z. c #F2E9EA",
/* pixels */
"3.3.3.3.3.3.3.3.3.3.3.3.3.3.3.3.3.3.3.3.3.3.3.3.3.3.3.3.3.3.3.3.3.3.3.3.",
"3.3.3.3.3.3.3.3.3.3.3.3.3.3.3.3.3.3.3.3.3.3.3.3.3.3.3.3.3.3.3.4.3.3.3.3.",
"3.3.3.3.3.3.3.3.3.3.3.3.3.3.3.3.3.3.3.3.3.3.3.3.3.3.3.3.3.3.3.3.3.3.3.3.",
"3.3.3.3.3.3.3.3.3.3.3.3.3.3.3.3.3.3.3.4.3.3.3.3.3.3.3.3.3.3.3.3.3.3.3.3.",
"3.3.3.3.3.3.3.3.3.3.3.3.3.3.3.3.3.3.3.3.3.3.3.3.3.3.3.3.3.3.3.3.3.3.3.3.",
"3.3.3.3.3.3.3.3.3.3.3.3.3.3.3.3.3.3.3.3.3.3.3.3.3.3.3.3.3.3.3.3.3.3.4.5.",
"3.3.3.3.3.3.3.3.3.3.3.3.3.3.3.3.3.3.3.3.3.3.3.3.3.3.3.3.3.3.3.3.3.4.1.:.",
"3.3.3.3.3.3.3.3.3.3.3.3.3.3.3.3.3.3.3.3.3.3.3.3.3.3.3.3.3.3.3.3.4.5.=.| ",
"3.3.3.3.4.3.3.3.3.3.3.3.3.3.3.3.3.3.3.3.3.3.3.3.3.3.3.3.3.3.3.5.3.#.@.-.",
"5.3.3.3.4.4.3.3.3.3.3.3.3.3.3.3.3.3.3.3.3.3.3.3.3.3.3.3.3.3.3.3.2.#.&.5.",
"1.2.3.3.2.2.4.5.3.3.3.3.3.3.3.3.3.3.3.3.3.3.3.3.3.3.3.3.3.3.3.3.3.3.3.3.",
"..;.5.2.O.$.4.5.4.4.3.3.3.3.3.3.3.3.3.3.3.3.3.3.3.3.3.3.3.3.3.3.3.4.4.3.",
"/  .#.#.$.:.<.] o.-.3.5.3.3.5.5.5.3.3.3.3.3.3.3.3.3.3.3.3.3.3.3.3.3.3.3.",
"+ ! ` { =.,.&.E ^  .:.:.2.2.:.;.>.3.3.3.3.3.3.3.3.3.3.3.3.3.3.3.3.3.3.3.",
"% . Q ' { } _ Z Z ! { } %.:...} #.3.3.3.3.3.3.3.3.3.3.3.3.3.3.3.3.3.3.3.",
"7 & O Q Q ^ Z - # . Q ` | @.-.-.>.3.3.3.3.3.3.3.3.3.3.3.3.3.3.3.3.3.3.3.",
"f 8 & @ . . - < 5 ; Z ' { | *.2.5.3.3.3.3.3.3.3.3.3.3.3.3.3.3.3.3.3.3.3.",
"v x w 3 $ $ < 2 t * C _ _ ' } %.2.3.3.3.3.3.3.3.3.3.3.3.3.3.3.3.3.3.3.3.",
"s x h e w w e r 9 6 # o W Q ' } $.3.3.3.3.3.3.3.3.3.3.3.3.3.3.3.3.3.3.3.",
", a t r f g h g u 0 1 = - O ! _ +.3.3.3.3.3.3.3.3.3.3.3.3.3.3.3.3.3.3.3.",
"3 1 q f l j j k f t s 5 3 # C ) @.3.3.3.3.3.3.3.3.3.3.3.3.3.3.3.3.3.3.3.",
"i i c v M M B B m k z u 4 # C ) @.3.3.3.3.3.3.3.3.3.3.3.3.3.3.3.3.3.3.3.",
"f.f.f.g.g.g.g.g.V j k z 8 # C ) @.3.3.3.3.3.3.3.3.3.3.3.3.3.3.3.3.3.3.3.",
"s.s.s.s.s.s.s.a.u.i.y.N 9 : C ) X.%.2.5.3.3.3.3.3.3.3.3.3.3.3.3.3.3.3.3.",
"J J J H J H H J p.k.j.t.b p C ) { | >.5.3.3.3.3.3.3.3.3.3.3.3.3.3.3.3.3.",
"J K J J J J J K T R q.h.y.y C ) { ..>.3.3.3.3.3.3.3.3.3.3.3.3.3.3.3.3.3.",
"J J K J J J J J J G K w.[ n ( ' X.*.+.;.5.3.3.3.3.3.3.3.3.3.3.3.3.3.3.3.",
"K J J J P I I I L J J G D W ' X.-.1.@.;.3.3.3.3.3.3.3.3.3.3.3.3.3.3.4.3.",
"J J K L 6.0.0.9.I J J J A Q ' -.4.3.3.3.3.3.3.3.3.3.3.3.3.3.3.3.3.3.3.3.",
"J J P 6.0.0.9.P K K F A ^ _ } ;.5.3.3.3.3.3.3.3.3.3.3.3.3.3.3.3.3.3.3.3.",
"Y Y 6.9.0.0.9.Y Y Y U S ~ { { :.5.3.3.3.3.3.3.3.3.5.3.3.3.3.3.3.3.3.3.3.",
"0.0.0.0.0.0.0.9.0.0.7.S ~ { { $.1.3.3.3.3.3.3.3.3.3.3.3.3.3.3.3.3.3.3.3.",
"0.0.0.0.0.0.0.0.0.0.8.S ~ ' { { #.2.3.3.3.3.3.3.3.3.3.3.3.3.3.3.3.3.3.3.",
"9.0.0.0.0.0.0.0.9.e.d.> + ~ ' { +.3.3.3.3.3.3.3.3.3.3.3.3.3.3.3.3.3.3.3.",
"0.0.0.0.0.0.0.0.9.r.z.d   W ' { @.3.3.3.3.3.3.3.3.3.3.3.3.3.3.3.3.3.3.3.",
"0.0.0.0.0.0.0.0.0.r.l.d X W ' { @.3.3.3.3.3.3.3.3.3.3.3.3.3.3.3.3.3.3.3."
};
