/* XPM */
static char *result[] = {
/* columns rows colors chars-per-pixel */
"36 36 149 2 ",
"   c #018085",
".  c #018187",
"X  c #008687",
"o  c #008787",
"O  c #01818A",
"+  c #008488",
"@  c #008588",
"#  c #00848A",
"$  c #00878A",
"%  c #00878B",
"&  c #00808D",
"*  c #00808E",
"=  c #00858D",
"-  c #00868E",
";  c #00878F",
":  c #008888",
">  c #008E8A",
",  c #00958C",
"<  c #00978D",
"1  c #009F8D",
"2  c #009F8E",
"3  c #079C8F",
"4  c #008192",
"5  c #008292",
"6  c #008293",
"7  c #008690",
"8  c #008993",
"9  c #008A94",
"0  c #019296",
"q  c #009D91",
"w  c #009E93",
"e  c #019997",
"r  c #009699",
"t  c #219990",
"y  c #209D91",
"u  c #00A28D",
"i  c #00A08E",
"p  c #00A28E",
"a  c #00A390",
"s  c #00A092",
"d  c #00A790",
"f  c #00A094",
"g  c #00A495",
"h  c #00AD93",
"j  c #0EA993",
"k  c #00B096",
"l  c #00B496",
"z  c #00B697",
"x  c #09B797",
"c  c #00B896",
"v  c #00B996",
"b  c #00B897",
"n  c #00BA97",
"m  c #00BC98",
"M  c #00BD99",
"N  c #00BF99",
"B  c #00BF9A",
"V  c #22B698",
"C  c #00C099",
"Z  c #00C19A",
"A  c #00C29A",
"S  c #01C29A",
"D  c #04C09A",
"F  c #05C39B",
"G  c #07C29B",
"H  c #00C59B",
"J  c #05C49B",
"K  c #04C69C",
"L  c #08C29B",
"P  c #08C49C",
"I  c #08C59C",
"U  c #0BC69C",
"Y  c #0CCB9E",
"T  c #0ECC9E",
"R  c #10CA9D",
"E  c #12CA9E",
"W  c #13CB9E",
"Q  c #13CC9E",
"!  c #16CE9F",
"~  c #1ACE9F",
"^  c #1BCFA0",
"/  c #1CCEA0",
"(  c #1ECEA0",
")  c #1FCEA0",
"_  c #1AD0A0",
"`  c #1DD1A1",
"'  c #20D1A1",
"]  c #21D1A1",
"[  c #20D2A1",
"{  c #20D3A1",
"}  c #21D3A1",
"|  c #23D2A1",
" . c #23D3A1",
".. c #21D4A1",
"X. c #21D5A2",
"o. c #27D4A2",
"O. c #29D5A3",
"+. c #2BD4A2",
"@. c #29D6A3",
"#. c #32DAA5",
"$. c #35DBA5",
"%. c #36DCA5",
"&. c #41E1A8",
"*. c #42E2A8",
"=. c #44E2A8",
"-. c #44E3A8",
";. c #49E5A9",
":. c #4CE7AA",
">. c #4EE8AA",
",. c #4FE9AB",
"<. c #52EAAB",
"1. c #53EAAB",
"2. c #52EBAC",
"3. c #53EBAC",
"4. c #56EBAC",
"5. c #56ECAC",
"6. c #59EEAD",
"7. c #5BEEAD",
"8. c #5EF0AE",
"9. c #64EFAE",
"0. c #60F0AE",
"q. c #61F1AF",
"w. c #62F1AF",
"e. c #63F2AF",
"r. c #6AF2AF",
"t. c #67F4B0",
"y. c #68F4B0",
"u. c #68F5B0",
"i. c #69F5B0",
"p. c #6AF5B0",
"a. c #6AF6B0",
"s. c #6BF6B0",
"d. c #6AF6B1",
"f. c #6CF5B0",
"g. c #6CF6B1",
"h. c #6CF7B1",
"j. c #6DF7B1",
"k. c #6EF7B1",
"l. c #6DF8B1",
"z. c #6EF8B1",
"x. c #6FF8B1",
"c. c #6DF8B2",
"v. c #70F8B1",
"b. c #70F8B2",
"n. c #70F9B2",
"m. c #71F9B2",
"M. c #72F9B2",
"N. c #70FAB2",
"B. c None",
/* pixels */
"B.B.B.B.B.B.B.B.B.B.B.B.B.B.B.B.B.B.B.B.B.B.B.B.B.B.B.B.B.B.B.B.B.B.B.B.",
"B.B.B.B.B.B.B.B.B.B.B.B.B.B.B.B.B.B.B.B.B.B.B.B.B.B.B.B.B.B.B.B.B.B.B.B.",
"B.B.B.B.B.B.B.B.B.B.B.B.B.B.B.B.B.B.B.B.B.B.B.B.B.B.B.B.B.B.B.B.B.B.B.B.",
"B.B.B.B.B.B.B.B.B.B.B.B.B.B.B.B.B.B.B.B.B.B.B.B.B.B.B.B.o B.B.B.B.B.B.B.",
"B.B.B.B.B.B.B.B.B.B.B.B.B.B.B.o o : : o B.B.B.B.B.B.o o : o B.B.B.B.B.B.",
"B.B.B.B.B.o : : : : : o B.B.o $ . + O o : o B.B.B.o ;   = o B.B.B.B.o o ",
"o B.B.B.o & * * * # * * o o 5 g b z z 0 @ 4 o o o 6 f n k - : B.B.o # # ",
"2 o o o e u i i i 2 i p 9 % s v A Z Z h 1 q ; o 7 w c H C d 8 o o r p i ",
"{ j : > l T } { { ..` K a < N ! ] ' ' [ X.( 3 X , m A N S _ V t y x Y { ",
"u.+.M G F $.p.i.u.s.8.~ B N U :.g.u.u.u.a.w.) D L P I J E 5.f.r.9./ o.u.",
"z.@.Q ,.3.0.x.x.x.x.h.7. .R >.y.v.x.x.x.x.j.6.2.3.1.1.<.4.i.n.N.d.^ O.m.",
"j.;.=.z.M.x.j.j.j.z.y.-.#.*.h.x.j.j.j.j.j.j.b.m.m.m.m.m.n.k.j.k.s.-.#.%.",
"j.k.k.j.j.j.j.j.j.x.e.| &.n.j.j.j.j.j.j.j.j.j.j.j.j.j.j.j.j.j.j.j.m.;.W ",
"j.j.j.j.j.j.j.j.j.j.g.e.t.j.j.j.j.j.j.j.j.j.j.j.j.j.j.j.j.j.j.j.j.k.u.q.",
"j.j.j.j.j.j.j.j.j.j.j.x.z.j.j.j.j.j.j.j.j.j.j.j.j.j.j.j.j.j.j.j.j.j.z.b.",
"j.j.j.j.j.j.j.j.j.j.j.j.j.j.j.j.j.j.j.j.j.j.j.j.j.j.j.j.j.j.j.j.j.j.j.j.",
"j.j.j.j.j.j.j.j.j.j.j.j.j.j.j.j.j.j.j.j.j.j.j.j.j.j.j.j.j.j.j.j.j.j.j.j.",
"j.j.j.j.j.j.j.j.j.j.j.j.j.j.j.j.j.j.j.j.j.j.j.j.j.j.j.j.j.j.j.j.j.j.j.j.",
"j.j.j.j.j.j.j.j.j.c.l.j.j.j.l.c.j.l.c.j.l.c.j.l.c.j.l.c.j.l.c.j.j.j.j.j.",
"l.j.j.j.l.c.j.j.l.j.j.j.j.j.j.j.l.j.j.l.j.j.l.j.j.l.j.j.l.j.j.l.l.c.j.l.",
"j.j.c.l.j.c.l.l.j.j.j.j.j.j.j.j.j.l.j.j.l.j.j.l.j.j.l.j.j.l.j.j.l.j.l.j.",
"j.l.j.j.l.j.c.j.j.j.j.j.j.j.j.j.j.j.c.j.j.c.j.j.c.j.j.c.j.j.c.j.j.c.j.l.",
"l.j.j.l.j.j.l.j.j.j.j.j.j.j.j.j.j.j.l.j.j.l.j.j.l.j.j.l.j.j.l.j.j.l.j.j.",
"j.j.c.j.j.c.j.j.j.j.j.j.j.j.j.j.j.j.j.j.j.j.j.j.j.j.j.j.j.j.j.j.j.j.j.j.",
"l.j.j.j.l.c.j.j.j.j.j.j.j.j.j.j.j.j.j.j.j.j.j.j.j.j.j.j.j.j.j.j.j.j.j.j.",
"j.j.j.j.j.j.j.j.j.j.j.j.j.j.j.j.j.j.j.j.j.j.j.j.j.j.j.j.j.j.j.j.j.j.j.j.",
"j.j.c.c.l.j.l.j.j.j.j.j.j.j.j.j.j.j.l.j.j.l.j.j.l.j.j.l.j.j.l.j.j.l.j.j.",
"j.l.l.j.j.j.c.j.j.j.j.j.j.j.j.j.j.j.c.j.j.c.j.j.c.j.j.c.j.j.c.j.j.c.j.j.",
"l.l.j.j.j.l.j.l.j.j.j.j.j.j.j.j.j.l.j.j.l.j.j.l.j.j.l.j.j.l.j.j.l.j.j.j.",
"c.j.j.j.l.j.j.l.l.j.j.j.j.j.j.j.l.j.j.l.j.j.l.j.j.l.j.j.l.j.j.l.j.j.j.l.",
"l.j.j.c.j.j.c.j.j.c.l.j.j.j.l.c.j.l.c.j.l.c.j.l.c.j.l.c.j.l.c.j.j.j.l.j.",
"j.j.j.l.j.j.l.j.j.l.j.j.j.j.j.j.j.j.j.j.j.j.j.j.j.j.j.c.l.j.j.j.l.c.j.l.",
"j.j.j.j.j.j.j.j.j.j.j.j.j.j.j.j.j.j.j.j.j.j.j.j.j.j.j.l.j.j.l.j.j.c.l.j.",
"j.j.j.j.j.j.j.j.j.j.j.j.j.j.j.l.j.j.l.j.j.l.j.j.l.j.j.c.j.j.c.j.j.j.l.j.",
"l.j.j.j.j.j.j.j.j.j.j.j.l.j.j.c.j.j.c.j.j.c.j.j.c.j.j.j.l.j.j.l.j.j.j.l.",
"c.j.j.l.j.j.l.j.j.l.j.j.c.j.j.j.l.j.j.l.j.j.l.j.j.l.j.j.j.l.j.j.l.j.j.j."
};
