/* XPM */
static char *result[] = {
/* columns rows colors chars-per-pixel */
"26 26 7 1 ",
"  c #793D4E",
". c #017687",
"X c #1664C5",
"o c #00C19A",
"O c #6DF7B1",
"+ c #008DF0",
"@ c gray99",
/* pixels */
"OOOOOOOOOOOOoOoo.X++++++XX",
"OOOOOOOOOOOOOOOoo.++++++++",
"OOOOOOOOOOOOOOOoo.++++++++",
"OOOOOOOOOOOOOOOoo.++++++++",
"OOOOOOOOOOOOOOOo. @+++++++",
"OOOOOOOOOOOO.o..  @+++++++",
"OoOOOOOOOOOOOOoo. @+++++++",
"oOOOOOOOOOOOOOOo.@++++++++",
"OOOOOOOOOOOOOOOo.+++++++++",
"OOOOOOOOOOOOOOOoo.++++++++",
"OOOOOOOOOOOOOOOOo.++++++++",
"OOOOOOOOOOOOOOOOo.++++++++",
"OOOOOOOOOOOOOoOoo.@+++++++",
"OOOOOOOOOOOOoOoo.X++++++XX",
"OOOOOOOOOOOOOOOoo.++++++++",
"OOOOOOOOOOOOOOOoo.++++++++",
"OOOOOOOOOOOOOOOoo.++++++++",
"OOOOOOOOOOOOOOOo. @+++++++",
"OOOOOOOOOOOO.o..  @+++++++",
"OoOOOOOOOOOOOOoo. @+++++++",
"oOOOOOOOOOOOOOOo.@++++++++",
"OOOOOOOOOOOOOOOo.+++++++++",
"OOOOOOOOOOOOOOOoo.++++++++",
"OOOOOOOOOOOOOOOOo.++++++++",
"OOOOOOOOOOOOOOOOo.++++++++",
"OOOOOOOOOOOOOoOoo.@+++++++"
};
