/* XPM */
static char *result[] = {
/* columns rows colors chars-per-pixel */
"26 26 10 1 ",
"  c #793D4E",
". c #B53772",
"X c #B15C51",
"o c #D77E4B",
"O c #017687",
"+ c #1664C5",
"@ c #00C19A",
"# c #6DF7B1",
"$ c #008DF0",
"% c gray99",
/* pixels */
"##########################",
"##########################",
"##########################",
"##########################",
"##########################",
"#########################@",
"########################@#",
"##########################",
"@##@######################",
"O@@##O@###################",
" O@@@OO@@#@@##############",
"X OOO  O@@################",
"oX   .XO@@@###############",
".oXXXXX OO@@##############",
" .XoooX.  O@##############",
"XXooooooX O@##############",
"%%%%%%ooo O@##############",
"++++++%%o.O@@#############",
"++++++++%oO@@#############",
"+++++++++O@@#@############",
"+++$$$+++O@###############",
"++$$$+++O@@###############",
"$$$$$$$$O@@###############",
"$$$$$$$$O@@@##############",
"$$$$$$$% O@@##############",
"$$$$$$$% O@@##############"
};
