/* XPM */
static char *result[] = {
/* columns rows colors chars-per-pixel */
"36 36 199 2 ",
"   c #018085",
".  c #018187",
"X  c #008687",
"o  c #01818A",
"O  c #008488",
"+  c #008588",
"@  c #00848A",
"#  c #00878A",
"$  c #00878B",
"%  c #00808D",
"&  c #00808E",
"*  c #00858D",
"=  c #00868E",
"-  c #00878F",
";  c #008888",
":  c #008E8A",
">  c #00958C",
",  c #00978D",
"<  c #009F8D",
"1  c #009F8E",
"2  c #079C8F",
"3  c #008192",
"4  c #008292",
"5  c #008293",
"6  c #008690",
"7  c #008993",
"8  c #008995",
"9  c #008A94",
"0  c #019296",
"q  c #009D91",
"w  c #009E93",
"e  c #019997",
"r  c #009699",
"t  c #219990",
"y  c #209D91",
"u  c #00A28D",
"i  c #00A08E",
"p  c #00A28E",
"a  c #00A390",
"s  c #00A092",
"d  c #00A790",
"f  c #00A094",
"g  c #00A495",
"h  c #00AD93",
"j  c #0EA993",
"k  c #00B096",
"l  c #00B496",
"z  c #00B697",
"x  c #09B797",
"c  c #00B896",
"v  c #00B996",
"b  c #00B897",
"n  c #00BA97",
"m  c #00BC98",
"M  c #00BD99",
"N  c #00BF99",
"B  c #00BF9A",
"V  c #22B698",
"C  c #0089A2",
"Z  c #008ABB",
"A  c #008ABC",
"S  c #1C97BD",
"D  c #00C099",
"F  c #00C19A",
"G  c #00C29A",
"H  c #01C29A",
"J  c #04C09A",
"K  c #05C39B",
"L  c #07C29B",
"P  c #00C59B",
"I  c #05C49B",
"U  c #04C69C",
"Y  c #08C29B",
"T  c #08C49C",
"R  c #08C59C",
"E  c #0BC69C",
"W  c #0CCB9E",
"Q  c #0ECC9E",
"!  c #10CA9D",
"~  c #12CA9E",
"^  c #13CB9E",
"/  c #13CC9E",
"(  c #16CE9F",
")  c #1ACE9F",
"_  c #1BCFA0",
"`  c #1CCEA0",
"'  c #1ECEA0",
"]  c #1FCEA0",
"[  c #1AD0A0",
"{  c #1DD1A1",
"}  c #20D1A1",
"|  c #21D1A1",
" . c #20D2A1",
".. c #20D3A1",
"X. c #21D3A1",
"o. c #23D2A1",
"O. c #23D3A1",
"+. c #21D4A1",
"@. c #21D5A2",
"#. c #27D4A2",
"$. c #29D5A3",
"%. c #2BD4A2",
"&. c #29D6A3",
"*. c #32DAA5",
"=. c #35DBA5",
"-. c #36DCA5",
";. c #41E1A8",
":. c #42E2A8",
">. c #44E2A8",
",. c #44E3A8",
"<. c #49E5A9",
"1. c #4CE7AA",
"2. c #4EE8AA",
"3. c #4FE9AB",
"4. c #52EAAB",
"5. c #53EAAB",
"6. c #52EBAC",
"7. c #53EBAC",
"8. c #56EBAC",
"9. c #56ECAC",
"0. c #59EEAD",
"q. c #5BEEAD",
"w. c #5EF0AE",
"e. c #64EFAE",
"r. c #60F0AE",
"t. c #61F1AF",
"y. c #62F1AF",
"u. c #63F2AF",
"i. c #6AF2AF",
"p. c #67F4B0",
"a. c #68F4B0",
"s. c #68F5B0",
"d. c #69F5B0",
"f. c #6AF5B0",
"g. c #6AF6B0",
"h. c #6BF6B0",
"j. c #6AF6B1",
"k. c #6CF5B0",
"l. c #6CF6B1",
"z. c #6CF7B1",
"x. c #6DF7B1",
"c. c #6EF7B1",
"v. c #6EF8B1",
"b. c #6FF8B1",
"n. c #70F8B1",
"m. c #70F8B2",
"M. c #70F9B2",
"N. c #71F9B2",
"B. c #72F9B2",
"V. c #70FAB2",
"C. c #008AEE",
"Z. c #008BEE",
"A. c #008AEF",
"S. c #008BEF",
"D. c #008CEE",
"F. c #008DEE",
"G. c #008CEF",
"H. c #008DEF",
"J. c #008EEF",
"K. c #088FEF",
"L. c #0891ED",
"P. c #0890EE",
"I. c #0891EE",
"U. c #0890EF",
"Y. c #0891EF",
"T. c #1093EF",
"R. c #008BF0",
"E. c #008BF1",
"W. c #008CF0",
"Q. c #008DF0",
"!. c #008CF1",
"~. c #008DF1",
"^. c #008EF0",
"/. c #008EF1",
"(. c #008CF2",
"). c #0890F0",
"_. c #0891F0",
"`. c #0890F1",
"'. c #0891F1",
"]. c #0892F0",
"[. c #0892F1",
"{. c #1092F0",
"}. c #1093F0",
"|. c #1093F1",
" X c #1094F0",
".X c #1896F1",
"XX c #1A97F1",
"oX c #1A98F0",
"OX c #1A98F1",
"+X c #1A99F1",
"@X c #1A99F2",
"#X c #2099F0",
"$X c #38A5F3",
"%X c #38A6F2",
"&X c #38A6F4",
"*X c #63B8F5",
"=X c #63B9F5",
"-X c #78C2F6",
";X c #78C2F7",
/* pixels */
"~.~.H.~.Q.~.'.T.~.~._.'.U._.W.G.Q.W.Q.G.H.W.H.W.G.H.W.[.~.Q.Q.~.~./.H.G.",
"W.H.W._._._.Y.).}.}.).!.!.Q.W.Q.U._.W.~.~.H.W.H.Q.W.K.G._.^.Q.Q._.W.Q.H.",
"!.W.).].Q.W.!.W.~.!.'._.).)._.'.~.!.~.~.!.!.Q.H.Q.Y.Y.).Y.{._.Q.Q.Q.~.W.",
"~._.W.Y._.~.W.~.~.(.~.~.(.^.!.~.W.}.).Q.!.W.!.!.Y.H.Q.Q.W.Y.).W.Q.Q./.^.",
"H.H.~.G.Q.Q.!.R.R.W.Q.W.W.Q.~.!.W.!.~.R.~.G.^.G.Q.Q.Q.Q.W.W.H.R.H.].^.H.",
"G.G.W.+X%X;X&XQ.=XW.W.~.Q.Q.~.(.Q.@X&X&X;X~.*XXX^.Q.W.Q.Q.W.W.H.Q./.~.Q.",
"W.Q.H.Q.~.Q.W.~.W.!.R.G.).).).!.~.!.W.Q.~.~.Q.Q.!.!.Q.W.Q.Q.Q.W.Q.Q./.Q.",
"W.~.W.R.Q.~.W.W.Q.Q.!.!.S.Q.~.W.Q.~.~.W.Q.(.^.Q.!.W.Q.H.Q.H.G.Q.G.W.G.!.",
"~.~.~.~.Q.Q.~.Q.^.Q.^.H.Q.W.H.R.Q.Q.Q.W.~.~.!.R.W.~.H.Q.Q.H.H.H.G.G.G.S.",
"W.~.W.Q.~.H.Q.Q.Q.W.H.H.H.Q.R.J.).'.'.).U.~.!.G.R.S.W.'.oX+XW.$X-XoXR.H.",
"Q.Q.Q.W.W.W.W.W.Q.W.Q.Q.Q.Q.R.).U.).~.U.}. X)._.W.~.~.Q.W.W.W.Q.Q.~.Q.Q.",
"!.Q.W.W.!.Q.Q.W.W.W._._.W._.E.R.R.L.).I.P.U._.~.).)._.'.).'.'._._.U.W.G.",
"~.W.Q.~.~.!.W.!.H.H.G.H.G.G.G.R.S.A.G.Q.H.U..X#X}.#X X`.W.!.W.!.~.~.G.~.",
"W.W.W.E.!.G.R.!.H.Q.R.F.D.G.Z.R.S.C.).{._._.).'.).`. X|.).~.!.W.W.Q.R.W.",
"Q.W.%X*XOXH.!.H.H.Q.G.W.Q.H.F.G.S.D.R.S.W.Q.Q.W.Q.Q./.!.~.~.W.Q.Q.Q.!.Q.",
"Q.W.!.Q._.Q.Q.W._.G.H.H.W.G.G.Q.W.W.W.W.W.W.W.Q.W.Q.Q.Q.A ~.W.~.Q.Q.`._.",
"W.H.H.Q.Q.Q.W.U.W.Q.Q.Q.).S.G.A A C 8 A W.!.`.Q.~.Y.A A C A !.!.Q.!.~.H.",
"Q.Q.H.H.W.A C C C C C A H.W.Z # . O o A C A Q.W.Q.A -   * S ;X+X+XW.A A ",
"A Q.Q.Q.A % & & & @ & & Z A 4 g b z z 0 + 3 A A A 5 f n k = C ~.~.A @ @ ",
"1 A A A e u i i i 1 i p 9 $ s v G F F h < q - A 6 w c P D d 7 A A r p i ",
"..j ; : l Q X.....+.{ U a , N ( | } }  .@.' 2 X > m G N H [ V t y x W ..",
"s.%.M L K =.f.d.s.h.w.) B N E 1.l.s.s.s.g.y.] J Y T R I ~ 9.k.i.e.` #.s.",
"v.&./ 3.7.r.b.b.b.b.z.q.O.! 2.a.n.b.b.b.b.x.0.6.7.5.5.4.8.d.M.V.j._ $.N.",
"x.<.>.v.B.b.x.x.x.v.a.,.*.:.z.b.x.x.x.x.x.x.m.N.N.N.N.N.M.c.x.c.h.,.*.-.",
"x.c.c.x.x.x.x.x.x.b.u.o.;.M.x.x.x.x.x.x.x.x.x.x.x.x.x.x.x.x.x.x.x.N.<.^ ",
"x.x.x.x.x.x.x.x.x.x.l.u.p.x.x.x.x.x.x.x.x.x.x.x.x.x.x.x.x.x.x.x.x.c.s.t.",
"x.x.x.x.x.x.x.x.x.x.x.b.v.x.x.x.x.x.x.x.x.x.x.x.x.x.x.x.x.x.x.x.x.x.v.m.",
"x.x.x.x.x.x.x.x.x.x.x.x.x.x.x.x.x.x.x.x.x.x.x.x.x.x.x.x.x.x.x.x.x.x.x.x.",
"x.x.x.x.x.x.x.x.x.x.x.x.x.x.x.x.x.x.x.x.x.x.x.x.x.x.x.x.x.x.x.x.x.x.x.x.",
"x.x.x.x.x.x.x.x.x.x.x.x.x.x.x.x.x.x.x.x.x.x.x.x.x.x.x.x.x.x.x.x.x.x.x.x.",
"x.x.x.x.x.x.x.x.x.x.x.x.x.x.x.x.x.x.x.x.x.x.x.x.x.x.x.x.x.x.x.x.x.x.x.x.",
"x.x.x.x.x.x.x.x.x.x.x.x.x.x.x.x.x.x.x.x.x.x.x.x.x.x.x.x.x.x.x.x.x.x.x.x.",
"x.x.x.x.x.x.x.x.x.x.x.x.x.x.x.x.x.x.x.x.x.x.x.x.x.x.x.x.x.x.x.x.x.x.x.x.",
"x.x.x.x.x.x.x.x.x.x.x.x.x.x.x.x.x.x.x.x.x.x.x.x.x.x.x.x.x.x.x.x.x.x.x.x.",
"x.x.x.x.x.x.x.x.x.x.x.x.x.x.x.x.x.x.x.x.x.x.x.x.x.x.x.x.x.x.x.x.x.x.x.x.",
"x.x.x.x.x.x.x.x.x.x.x.x.x.x.x.x.x.x.x.x.x.x.x.x.x.x.x.x.x.x.x.x.x.x.x.x."
};
