/* XPM */
static char *result[] = {
/* columns rows colors chars-per-pixel */
"36 36 103 2 ",
"   c #216B75",
".  c #594658",
"X  c #097283",
"o  c #017C85",
"O  c #007588",
"+  c #007F89",
"@  c #037C91",
"#  c #008189",
"$  c #00818A",
"%  c #01818A",
"&  c #01828A",
"*  c #00838B",
"=  c #0F808F",
"-  c #008D8A",
";  c #00938A",
":  c #00938B",
">  c #00958F",
",  c #01978F",
"<  c #018D9F",
"1  c #049790",
"2  c #049D90",
"3  c #00A092",
"4  c #00A791",
"5  c #08A393",
"6  c #09A195",
"7  c #00A993",
"8  c #0FAA95",
"9  c #00B596",
"0  c #00B597",
"q  c #00B697",
"w  c #00B797",
"e  c #00BE99",
"r  c #18BC9B",
"t  c #23B49A",
"y  c #39B79C",
"u  c #3AB89D",
"i  c #00C099",
"p  c #01C09A",
"a  c #00C19A",
"s  c #00C29A",
"d  c #02C29A",
"f  c #02C39B",
"g  c #04C39B",
"h  c #09C59C",
"j  c #0AC69C",
"k  c #0DC99D",
"l  c #10CB9E",
"z  c #15CD9F",
"x  c #17CD9F",
"c  c #18CD9F",
"v  c #1ACC9F",
"b  c #20C99F",
"n  c #1DCFA0",
"m  c #20D1A1",
"M  c #24D6A2",
"N  c #2FD3A2",
"B  c #2CD7A3",
"V  c #30D9A4",
"C  c #32DAA5",
"Z  c #38DDA6",
"A  c #3DE2A7",
"S  c #41C09F",
"D  c #41C7A1",
"F  c #40DCA6",
"G  c #40E3A8",
"H  c #44E2A8",
"J  c #47E4A9",
"K  c #4AE6AA",
"L  c #4DE7AA",
"P  c #4DE8AA",
"I  c #5BE0AA",
"U  c #54EAAC",
"Y  c #58EEAD",
"T  c #5BEEAD",
"R  c #5DEFAE",
"E  c #65F3AF",
"W  c #66F3AF",
"Q  c #66F4B0",
"!  c #6AF3B0",
"~  c #68F5B0",
"^  c #6AF5B0",
"/  c #6BF5B0",
"(  c #6CF6B1",
")  c #6CF7B1",
"_  c #6DF7B1",
"`  c #6EF6B1",
"'  c #6EF7B1",
"]  c #6DF8B1",
"[  c #6EF8B1",
"{  c #6FF8B1",
"}  c #6EF9B1",
"|  c #6DF8B2",
" . c #6FF9B2",
".. c #70F8B1",
"X. c #72F9B2",
"o. c #70FBB2",
"O. c #72FAB2",
"+. c #A0ACB1",
"@. c #C3989E",
"#. c #CEE9FC",
"$. c #D6ECFC",
"%. c #DDEFFF",
"&. c None",
/* pixels */
"&.&.&.&.&.&.&.&.&.&.%.#.@.. X O , 0 & S o._ _ _ _ _ _ _ _ _ _ _ _ _ _ _ ",
"&.&.&.&.&.&.&.&.&.&.%.$.+.  2 3 r F D I } _ _ _ _ _ _ _ _ _ _ _ _ _ _ _ ",
"&.&.&.&.&.&.&.&.&.# @ = 6 e g J ) ( Q ^ _ _ _ _ _ _ _ _ _ _ _ _ _ _ _ _ ",
"&.&.&.&.&.# # # # < 7 4 9 s d L O._ { ' _ _ _ _ _ _ _ _ _ _ _ _ _ _ _ _ ",
"# * * * # # ; : o - f M z h B T { _ _ _ _ _ _ _ _ _ _ _ _ _ _ _ _ _ _ _ ",
"% % % $ + 5 k p > 1 v R C x E { _ _ _ _ _ _ _ _ _ _ _ _ _ _ _ _ _ _ _ _ ",
"q q q q 9 N P j w b R _ V c W { _ _ _ _ _ _ _ _ _ _ _ _ _ _ _ _ _ _ _ _ ",
"a i l A G Y ~ H 8 t `  .U K ^ ' _ _ _ _ _ _ _ _ _ _ _ _ _ _ _ _ _ _ _ _ ",
"m n Z _ X.{ [ ' u y / [ { .._ _ _ _ _ _ _ _ _ _ _ _ _ _ _ _ _ _ _ _ _ _ ",
"~ ~ ^ _ _ _ _ _ ! ! _ _ _ _ _ _ _ _ _ _ _ _ _ _ _ _ _ _ _ _ _ _ _ _ _ _ ",
"{ { [ _ _ _ _ _ [ [ _ _ _ _ _ _ _ _ _ _ _ _ _ _ _ _ _ _ _ _ _ _ _ _ _ _ ",
"_ _ _ _ _ _ _ _ _ _ _ _ _ _ _ _ _ _ _ _ _ _ _ _ _ _ _ _ _ _ _ _ _ _ _ _ ",
"_ _ _ _ _ _ _ _ _ _ _ _ _ _ _ _ _ _ _ _ _ _ _ _ _ _ _ _ _ _ _ _ _ _ _ _ ",
"_ _ _ _ _ _ _ _ _ _ _ _ _ _ _ _ _ _ _ _ _ _ _ _ _ _ _ _ _ _ _ _ _ _ _ _ ",
"_ _ _ _ _ _ _ _ _ _ _ _ _ _ _ _ _ _ _ _ _ _ _ _ _ _ _ _ _ _ _ _ _ _ _ _ ",
"_ _ _ _ _ _ _ _ _ _ _ _ _ _ _ _ _ _ _ _ _ _ _ _ _ _ _ _ _ _ _ _ _ _ _ _ ",
"_ _ _ _ _ _ _ _ _ _ _ _ _ _ _ _ _ _ _ _ _ _ _ _ _ _ _ _ _ _ _ _ _ _ _ _ ",
"_ _ _ _ _ _ _ _ _ _ _ _ | ] _ _ _ ] | _ _ _ _ _ _ _ _ _ _ _ _ _ _ _ _ _ ",
"_ | ] _ _ _ ] | _ | ] _ _ _ ] | _ _ _ ] ] | _ _ _ _ _ _ _ _ _ _ _ _ _ _ ",
"_ _ _ ] | _ _ _ ] ] | _ _ _ _ _ ] _ _ _ ] _ ] _ _ _ _ _ _ | ] _ _ _ ] | ",
"_ _ _ _ _ ] _ _ _ ] _ ] _ _ _ _ _ ] _ _ _ | _ ] _ _ ] | ] _ _ _ _ _ _ _ ",
"_ ] | _ _ _ ] _ _ _ | _ | | _ _ _ _ | _ _ ] _ _ | _ _ _ ] _ _ _ _ _ _ _ ",
"_ _ _ ] _ _ _ | _ _ ] _ _ | ] _ _ _ ] _ _ _ _ _ ] ] _ _ _ ] | _ | ] _ _ ",
"_ ] | _ ] _ _ ] _ _ _ _ _ ] _ ] _ _ _ _ _ _ _ _ _ _ ] _ _ _ | ] _ _ _ _ ",
"_ ] | ] _ | _ _ _ _ _ _ _ _ _ _ | _ _ _ _ _ _ _ _ _ _ | _ _ ] _ ] _ _ _ ",
"_ ] | ] ] ] _ _ _ _ _ _ _ _ _ _ ] ] _ _ _ ] _ _ _ _ _ ] _ _ _ _ _ | _ _ ",
"_ ] | ] ] | _ _ _ _ ] _ _ _ _ _ _ _ ] _ _ | _ _ ] _ _ _ ] _ _ _ _ ] _ _ ",
"_ _ ] | ] | _ ] _ _ | _ _ ] _ _ _ _ _ | ] _ _ _ | _ _ _ _ | _ _ _ _ ] _ ",
"| ] _ | ] _ _ _ ] | _ _ _ | _ _ _ _ _ ] _ _ _ ] _ _ _ _ _ ] ] _ _ _ _ | ",
"_ _ ] _ _ _ | ] _ _ _ ] | _ _ _ ] _ _ _ _ _ ] _ _ _ _ ] _ _ | _ _ _ _ ] ",
"_ ] _ _ _ ] _ _ _ _ _ _ _ ] _ _ | _ _ _ ] | _ _ _ _ _ | _ _ _ _ _ ] _ _ ",
"| _ _ _ ] _ _ _ _ _ _ _ _ _ ] ] _ _ _ _ _ _ _ _ _ _ ] _ _ _ _ _ _ | _ _ ",
"] _ _ | _ _ _ _ _ _ _ _ _ _ _ | _ _ _ ] _ _ _ _ _ ] _ _ _ ] _ _ ] _ _ _ ",
"_ _ _ ] _ _ _ _ _ _ _ _ _ _ _ ] _ _ _ | _ _ _ ] | _ _ _ _ | _ ] _ _ _ ] ",
"_ _ _ _ _ _ _ _ _ _ _ _ _ _ _ _ _ _ ] _ _ _ _ _ _ _ _ _ ] _ | _ _ _ _ | ",
"_ _ _ _ _ _ _ _ _ _ _ _ _ _ _ _ _ ] _ ] _ _ _ _ _ _ _ ] _ ] _ _ _ _ ] _ "
};
