/* XPM */
static char *result[] = {
/* columns rows colors chars-per-pixel */
"36 36 188 2 ",
"   c #713549",
".  c #177B7C",
"X  c #21727B",
"o  c #4C4256",
"O  c #444A5F",
"+  c #505161",
"@  c #945B69",
"#  c #995F6D",
"$  c #96606E",
"%  c #0F7C83",
"&  c #087C87",
"*  c #476E86",
"=  c #507786",
"-  c #008689",
";  c #00858A",
":  c #06838D",
">  c #008A8B",
",  c #008B8E",
"<  c #00928D",
"1  c #00978F",
"2  c #009A8E",
"3  c #009B8E",
"4  c #009C8D",
"5  c #009D8D",
"6  c #009E8D",
"7  c #009C8E",
"8  c #009E8F",
"9  c #009391",
"0  c #019192",
"q  c #009597",
"w  c #0E9190",
"e  c #199695",
"r  c #169399",
"t  c #23858A",
"y  c #00A08E",
"u  c #00A08F",
"i  c #03A191",
"p  c #00A393",
"a  c #00A793",
"s  c #0DA394",
"d  c #00AA94",
"f  c #00AB95",
"g  c #00AA96",
"h  c #05B096",
"j  c #00BA99",
"k  c #00BD9A",
"l  c #00BE9A",
"z  c #04BF9B",
"x  c #05BF9B",
"c  c #0DBE9B",
"v  c #18BE9C",
"b  c #0098A6",
"n  c #0299A6",
"m  c #079BA7",
"M  c #0094BE",
"N  c #0094BF",
"B  c #0496BF",
"V  c #01C09B",
"C  c #03C19B",
"Z  c #00C29B",
"A  c #00C39B",
"S  c #00C49B",
"D  c #04C39C",
"F  c #00C59C",
"G  c #04C49C",
"H  c #05C49C",
"J  c #05C89D",
"K  c #09C89D",
"L  c #0EC99E",
"P  c #0FCB9F",
"I  c #0FCD9F",
"U  c #10CA9E",
"Y  c #11CA9F",
"T  c #1BCFA1",
"R  c #1CCFA1",
"E  c #18D0A1",
"W  c #19D2A1",
"Q  c #1CD0A1",
"!  c #1CD1A1",
"~  c #29D7A4",
"^  c #2CD8A4",
"/  c #2ED8A5",
"(  c #3ED2A5",
")  c #30D9A5",
"_  c #32DAA6",
"`  c #36DCA6",
"'  c #37DDA7",
"]  c #3DE0A8",
"[  c #3EE0A8",
"{  c #46C7A2",
"}  c #44CBA3",
"|  c #44DFA8",
" . c #40E1A8",
".. c #41E2A9",
"X. c #44E3A9",
"o. c #45E3A9",
"O. c #47E4AA",
"+. c #47E5AA",
"@. c #46E6AA",
"#. c #4CE7AB",
"$. c #4DE7AB",
"%. c #4BE8AB",
"&. c #4FE8AC",
"*. c #4EE9AC",
"=. c #4FECAD",
"-. c #57E0AA",
";. c #5CE2AB",
":. c #5BE6AC",
">. c #50E9AC",
",. c #51E9AC",
"<. c #55EBAD",
"1. c #57EAAD",
"2. c #56ECAD",
"3. c #57ECAD",
"4. c #58EDAE",
"5. c #59EDAE",
"6. c #5BEEAE",
"7. c #5CEFAF",
"8. c #5DEFAF",
"9. c #5FF0AF",
"0. c #64ECAE",
"q. c #62F2B0",
"w. c #65F3B0",
"e. c #66F4B1",
"r. c #68F5B1",
"t. c #69F5B1",
"y. c #6AF5B1",
"u. c #6AF6B1",
"i. c #6BF6B2",
"p. c #6CF6B2",
"a. c #6DF7B2",
"s. c #6EF7B2",
"d. c #6EF8B2",
"f. c #6EF9B3",
"g. c #6FF9B3",
"h. c #70F8B3",
"j. c #70F9B3",
"k. c #71F9B3",
"l. c #72F9B3",
"z. c #70FAB3",
"x. c #71FBB3",
"c. c #73FAB3",
"v. c #75FCB4",
"b. c #008DEE",
"n. c #008CEF",
"m. c #008DEF",
"M. c #0890EF",
"N. c #0891EF",
"B. c #1093EF",
"V. c #008BF0",
"C. c #008BF1",
"Z. c #008CF0",
"A. c #008DF0",
"S. c #008CF1",
"D. c #008DF1",
"F. c #008EF0",
"G. c #008CF2",
"H. c #088FF0",
"J. c #0890F0",
"K. c #0891F0",
"L. c #0890F1",
"P. c #0891F1",
"I. c #0892F0",
"U. c #1093F0",
"Y. c #1A99F0",
"T. c #1A98F1",
"R. c #1A99F1",
"E. c #1A98F2",
"W. c #38A6F2",
"Q. c #38A6F3",
"!. c #38A6F4",
"~. c #75B9EC",
"^. c #75B9ED",
"/. c #75BAED",
"(. c #79BBED",
"). c #63B8F5",
"_. c #63B9F5",
"`. c #63B8F6",
"'. c #78C2F6",
"]. c #78C2F7",
"[. c #B092A0",
"{. c #ADCAD2",
"}. c #D3E1EB",
"|. c #DCECEF",
" X c #D1E1F0",
".X c #EAE6E9",
"XX c #EDE7E9",
"oX c #F1E8E9",
/* pixels */
"D.D.m.D.A.D.P.B.D.^.|.e 2 A H >...U 8.j.a.a.a.a.a.a.a.a.a.a.a.a.a.a.a.a.",
"Z.m.Z.K.K.K.N.J.U.U.(.N 3 P [ q.6.O.e.d.a.a.a.a.a.a.a.a.a.a.a.a.a.a.a.a.",
"S.Z.J.I.A.Z.S.Z.D.S.P.n 7 ! u.k.d.h.a.a.a.a.a.a.a.a.a.a.a.a.a.a.a.a.a.a.",
"D.K.Z.N.K.D.Z.D.D.G.D.b 7 E 9.a.a.a.a.a.a.a.a.a.a.a.a.a.a.a.a.a.a.a.a.a.",
"m.m.D.n.A.A.S.V.V.Z.A.b 6 J Q <.h.a.a.a.a.a.a.a.a.a.a.a.a.a.a.a.a.a.a.a.",
"n.n.Z.R.W.].!.A._.Z.Z.N q a V #.k.a.a.a.a.a.a.a.a.a.a.a.a.a.a.a.a.a.d.k.",
"Z.A.m.A.D.A.Z.D.Z.S.V.n.B - x *.l.a.a.a.a.a.a.a.a.a.a.a.a.a.a.a.a.d.w.3.",
"Z.D.Z.V.A.D.Z.Z.A.A.S.S.{.; z %.h.a.a.a.a.a.a.a.a.a.a.a.a.a.a.a.a.d.X.L ",
"D.D.D.D.A.A.D.A.F.A./.[.= , V W @.k.x.g.a.a.a.a.a.a.a.a.a.a.a.d.y.' / X.",
"Z.D.Z.A.D.m.A.A.A.^.oX@ o X i p v | } ;.d.a.a.a.a.a.a.a.a.a.a.d.y.`  .k.",
"A.A.A.Z.Z.Z.Z.Z.A.^..X$   + & : s c w { z.a.a.a.a.a.a.a.a.a.a.a.a.i.p.a.",
"S.A.Z.Z.S.A.A.Z.Z.^.XX# O % h ( :.1.-.0.d.a.a.a.a.a.a.a.a.a.a.a.a.s.s.a.",
"D.Z.A.D.D.S.Z.S.m.m.~.t . g G =.v.k.x.f.a.a.a.a.a.a.a.a.a.a.a.a.a.a.a.a.",
"Z.Z.Z.C.S.n.V.S.m.A.V.M u S H $.k.a.a.a.a.a.a.a.a.a.a.a.a.a.a.a.a.a.a.a.",
"A.Z.W.).T.m.S.m.m.A.n.b 8 A H $.k.a.a.a.a.a.a.a.a.a.a.a.a.a.a.a.a.a.a.a.",
"A.Z.S.A.K.A.A.Z.K.n.m.b y F H &.c.a.h.d.a.a.a.a.a.a.a.a.a.a.a.a.a.a.a.a.",
"Z.m.m.A.A.A.Z.M.Z.A.A.N 0 d C ~ 2.r.o.4.d.a.a.a.a.a.a.a.a.a.a.a.a.a.a.a.",
"A.A.m.m.Z.Z.m.S.Z.A.^.N M < l K _ ,.R o.h.a.a.a.a.a.a.a.a.a.a.a.a.a.a.a.",
"A.A.A.A.A.m.V.V.A.^.}.r 9 j D X.[ T ,.t.a.a.a.a.a.a.a.a.a.a.a.a.a.a.a.a.",
"A.Z.A.A.Z.Z.A.A.A.E.^.m 5 I [ w.6.o.r.h.a.a.a.a.a.a.a.a.a.a.a.a.a.a.a.a.",
"Z.A.A.V.n.m.A.A.S.A.S.b 7 ! u.k.d.h.a.a.a.a.a.a.a.a.a.a.a.a.a.a.a.a.a.a.",
"A.A.A.Z.S.m.A.A.A.D.Z.N 7 E 9.a.a.a.a.a.a.a.a.a.a.a.a.a.a.a.a.a.a.a.a.a.",
"Z.A.Z.Z.A.A.m.A.A.Z.S.b 4 J Q <.h.a.a.a.a.a.a.a.a.a.a.a.a.a.a.a.a.a.a.a.",
"Z.S.D.S.m.A.Z.A.Z.D.A.A.b a V #.k.a.a.a.a.a.a.a.a.a.a.a.a.a.a.a.a.a.d.k.",
"Z.C.Z.m.A.m.A.K.A.A.m.m.B - x *.l.a.a.a.a.a.a.a.a.a.a.a.a.a.a.a.a.d.w.3.",
"A.Z.V.C.A.A.A.Z.K.P.K. X{.; z %.h.a.a.a.a.a.a.a.a.a.a.a.a.a.a.a.a.d.X.L ",
"S.D.Z.m.A.S.A.J.A.A.~.[.= , V W @.k.x.g.a.a.a.a.a.a.a.a.a.a.a.d.y.' / X.",
"A.n.A.N.D.A.A.A.A.^.oX@ o X i p v | } ;.d.a.a.a.a.a.a.a.a.a.a.d.y.`  .k.",
"A.m.m.A.A.A.A.A.D.^..X$   + & : s c w { z.a.a.a.a.a.a.a.a.a.a.a.a.i.p.a.",
"Z.n.m.A.A.A.A.A.D.^.XX# O % h ( :.1.-.0.d.a.a.a.a.a.a.a.a.a.a.a.a.s.s.a.",
"D.n.Y.Q.'.A.R.A.D.D.^.* . g G =.v.k.x.f.a.a.a.a.a.a.a.a.a.a.a.a.a.a.a.a.",
"D.m.b.Z.m.A.A.A.D.D.S.b u S H $.k.a.a.a.a.a.a.a.a.a.a.a.a.a.a.a.a.a.a.a.",
"A.n.m.D.m.A.A.Z.S.D.`.b 8 A H $.k.a.a.a.a.a.a.a.a.a.a.a.a.a.a.a.a.a.a.a.",
"D.m.m.N.D.n.K.Z.A.D.A.N y F H &.c.a.h.d.a.a.a.a.a.a.a.a.a.a.a.a.a.a.a.a.",
"S.A.m.U.A.P.P.J.K.K.J.b 1 f C ^ 2.e.+.5.d.a.a.a.a.a.a.a.a.a.a.a.a.a.a.a.",
"D.H.C.Z.D.A.K.J.K.L.P.A.n > k Z ) 7.Y ] j.a.a.a.a.a.a.a.a.a.a.a.a.a.a.a."
};
