/* XPM */
static char *f6r9b_cf6d1[] = {
/* columns rows colors chars-per-pixel */
"36 36 148 2 ",
"   c #713549",
".  c #177B7C",
"X  c #21727B",
"o  c #4C4256",
"O  c #444A5F",
"+  c #505161",
"@  c #945B69",
"#  c #995F6D",
"$  c #96606E",
"%  c #0F7C83",
"&  c #087C87",
"*  c #476E86",
"=  c #507786",
"-  c #008689",
";  c #00858A",
":  c #06838D",
">  c #008A8B",
",  c #008B8E",
"<  c #00928D",
"1  c #00978F",
"2  c #009B8D",
"3  c #009A8E",
"4  c #009B8E",
"5  c #009C8D",
"6  c #009D8D",
"7  c #009E8D",
"8  c #009C8E",
"9  c #009E8F",
"0  c #009391",
"q  c #019192",
"w  c #009597",
"e  c #0E9190",
"r  c #199695",
"t  c #169399",
"y  c #23858A",
"u  c #00A08E",
"i  c #00A08F",
"p  c #03A191",
"a  c #00A393",
"s  c #00A793",
"d  c #0DA394",
"f  c #00AA94",
"g  c #00AB95",
"h  c #00AA96",
"j  c #05B096",
"k  c #00BA99",
"l  c #00BD9A",
"z  c #00BE9A",
"x  c #04BF9B",
"c  c #05BF9B",
"v  c #0DBE9B",
"b  c #18BE9C",
"n  c #01C09B",
"m  c #03C19B",
"M  c #00C29B",
"N  c #00C39B",
"B  c #00C49B",
"V  c #04C39C",
"C  c #00C59C",
"Z  c #04C49C",
"A  c #05C49C",
"S  c #05C89D",
"D  c #09C89D",
"F  c #0EC99E",
"G  c #0FCB9F",
"H  c #0FCD9F",
"J  c #10CA9E",
"K  c #11CA9F",
"L  c #1BCFA1",
"P  c #1CCFA1",
"I  c #18D0A1",
"U  c #19D2A1",
"Y  c #1CD0A1",
"T  c #1CD1A1",
"R  c #29D7A4",
"E  c #2CD8A4",
"W  c #2ED8A5",
"Q  c #3ED2A5",
"!  c #30D9A5",
"~  c #32DAA6",
"^  c #36DCA6",
"/  c #37DDA7",
"(  c #3DE0A8",
")  c #3EE0A8",
"_  c #46C7A2",
"`  c #44CBA3",
"'  c #44DFA8",
"]  c #40E1A8",
"[  c #41E2A9",
"{  c #44E3A9",
"}  c #45E3A9",
"|  c #47E4AA",
" . c #47E5AA",
".. c #46E6AA",
"X. c #4CE7AB",
"o. c #4DE7AB",
"O. c #4BE8AB",
"+. c #4FE8AC",
"@. c #4EE9AC",
"#. c #4FECAD",
"$. c #57E0AA",
"%. c #5CE2AB",
"&. c #5BE6AC",
"*. c #50E9AC",
"=. c #51E9AC",
"-. c #55EBAD",
";. c #57EAAD",
":. c #56ECAD",
">. c #57ECAD",
",. c #58EDAE",
"<. c #59EDAE",
"1. c #5BEEAE",
"2. c #5CEFAF",
"3. c #5DEFAF",
"4. c #5FF0AF",
"5. c #64ECAE",
"6. c #62F2B0",
"7. c #65F3B0",
"8. c #66F4B1",
"9. c #68F5B1",
"0. c #69F5B1",
"q. c #6AF5B1",
"w. c #6AF6B1",
"e. c #6BF6B2",
"r. c #6CF6B2",
"t. c #6DF7B2",
"y. c #6EF7B2",
"u. c #6EF8B2",
"i. c #6EF9B3",
"p. c #6FF9B3",
"a. c #70F8B3",
"s. c #70F9B3",
"d. c #71F9B3",
"f. c #72F9B3",
"g. c #70FAB3",
"h. c #71FBB3",
"j. c #73FAB3",
"k. c #75FCB4",
"l. c #B092A0",
"z. c #ADCAD2",
"x. c #D3E1EB",
"c. c #DCECEF",
"v. c #D1E1F0",
"b. c #E9E5E9",
"n. c #EAE6E9",
"m. c #EDE7E9",
"M. c #F1E8E9",
"N. c None",
/* pixels */
"N.N.N.N.N.N.N.N.N.b.c.r 3 N A *.[ J 3.s.t.t.t.t.t.t.t.t.t.t.t.t.t.t.t.t.",
"N.N.N.N.N.N.N.N.N.N.b.2 4 G ) 6.1.| 8.u.t.t.t.t.t.t.t.t.t.t.t.t.t.t.t.t.",
"N.N.N.N.N.N.N.N.N.N.N.8 8 T w.d.u.a.t.t.t.t.t.t.t.t.t.t.t.t.t.t.t.t.t.t.",
"N.N.N.N.N.N.N.N.N.N.N.8 8 I 4.t.t.t.t.t.t.t.t.t.t.t.t.t.t.t.t.t.t.t.t.t.",
"N.N.N.N.N.N.N.N.N.N.N.8 7 S Y -.a.t.t.t.t.t.t.t.t.t.t.t.t.t.t.t.t.t.t.t.",
"N.N.N.N.N.N.N.N.N.N.N.2 w s n X.d.t.t.t.t.t.t.t.t.t.t.t.t.t.t.t.t.t.u.d.",
"N.N.N.N.N.N.N.N.N.N.N.N.2 - c @.f.t.t.t.t.t.t.t.t.t.t.t.t.t.t.t.t.u.7.>.",
"N.N.N.N.N.N.N.N.N.N.N.N.z.; x O.a.t.t.t.t.t.t.t.t.t.t.t.t.t.t.t.t.u.{ F ",
"N.N.N.N.N.N.N.N.N.N.b.l.= , n U ..d.h.p.t.t.t.t.t.t.t.t.t.t.t.u.q./ W { ",
"N.N.N.N.N.N.N.N.N.b.M.@ o X p a b ' ` %.u.t.t.t.t.t.t.t.t.t.t.u.q.^ ] d.",
"N.N.N.N.N.N.N.N.N.b.n.$   + & : d v e _ g.t.t.t.t.t.t.t.t.t.t.t.t.e.r.t.",
"N.N.N.N.N.N.N.N.N.b.m.# O % j Q &.;.$.5.u.t.t.t.t.t.t.t.t.t.t.t.t.y.y.t.",
"N.N.N.N.N.N.N.N.N.N.b.y . h Z #.k.d.h.i.t.t.t.t.t.t.t.t.t.t.t.t.t.t.t.t.",
"N.N.N.N.N.N.N.N.N.N.N.2 i B A o.d.t.t.t.t.t.t.t.t.t.t.t.t.t.t.t.t.t.t.t.",
"N.N.N.N.N.N.N.N.N.N.N.8 9 N A o.d.t.t.t.t.t.t.t.t.t.t.t.t.t.t.t.t.t.t.t.",
"N.N.N.N.N.N.N.N.N.N.N.8 u C A +.j.t.a.u.t.t.t.t.t.t.t.t.t.t.t.t.t.t.t.t.",
"N.N.N.N.N.N.N.N.N.N.N.2 q f m R :.9.} ,.u.t.t.t.t.t.t.t.t.t.t.t.t.t.t.t.",
"N.N.N.N.N.N.N.N.N.N.b.2 2 < z D ~ =.P } a.t.t.t.t.t.t.t.t.t.t.t.t.t.t.t.",
"N.N.N.N.N.N.N.N.N.b.x.t 0 k V { ) L =.0.t.t.t.t.t.t.t.t.t.t.t.t.t.t.t.t.",
"N.N.N.N.N.N.N.N.N.N.b.8 6 H ) 7.1.} 9.a.t.t.t.t.t.t.t.t.t.t.t.t.t.t.t.t.",
"N.N.N.N.N.N.N.N.N.N.N.8 8 T w.d.u.a.t.t.t.t.t.t.t.t.t.t.t.t.t.t.t.t.t.t.",
"N.N.N.N.N.N.N.N.N.N.N.2 8 I 4.t.t.t.t.t.t.t.t.t.t.t.t.t.t.t.t.t.t.t.t.t.",
"N.N.N.N.N.N.N.N.N.N.N.8 5 S Y -.a.t.t.t.t.t.t.t.t.t.t.t.t.t.t.t.t.t.t.t.",
"N.N.N.N.N.N.N.N.N.N.N.N.8 s n X.d.t.t.t.t.t.t.t.t.t.t.t.t.t.t.t.t.t.u.d.",
"N.N.N.N.N.N.N.N.N.N.N.N.2 - c @.f.t.t.t.t.t.t.t.t.t.t.t.t.t.t.t.t.u.7.>.",
"N.N.N.N.N.N.N.N.N.N.N.v.z.; x O.a.t.t.t.t.t.t.t.t.t.t.t.t.t.t.t.t.u.{ F ",
"N.N.N.N.N.N.N.N.N.N.b.l.= , n U ..d.h.p.t.t.t.t.t.t.t.t.t.t.t.u.q./ W { ",
"N.N.N.N.N.N.N.N.N.b.M.@ o X p a b ' ` %.u.t.t.t.t.t.t.t.t.t.t.u.q.^ ] d.",
"N.N.N.N.N.N.N.N.N.b.n.$   + & : d v e _ g.t.t.t.t.t.t.t.t.t.t.t.t.e.r.t.",
"N.N.N.N.N.N.N.N.N.b.m.# O % j Q &.;.$.5.u.t.t.t.t.t.t.t.t.t.t.t.t.y.y.t.",
"N.N.N.N.N.N.N.N.N.N.b.* . h Z #.k.d.h.i.t.t.t.t.t.t.t.t.t.t.t.t.t.t.t.t.",
"N.N.N.N.N.N.N.N.N.N.N.8 i B A o.d.t.t.t.t.t.t.t.t.t.t.t.t.t.t.t.t.t.t.t.",
"N.N.N.N.N.N.N.N.N.N.N.8 9 N A o.d.t.t.t.t.t.t.t.t.t.t.t.t.t.t.t.t.t.t.t.",
"N.N.N.N.N.N.N.N.N.N.N.2 u C A +.j.t.a.u.t.t.t.t.t.t.t.t.t.t.t.t.t.t.t.t.",
"N.N.N.N.N.N.N.N.N.N.N.8 1 g m E :.8. .<.u.t.t.t.t.t.t.t.t.t.t.t.t.t.t.t.",
"N.N.N.N.N.N.N.N.N.N.N.N.8 > l M ! 2.K ( s.t.t.t.t.t.t.t.t.t.t.t.t.t.t.t."
};
