/* XPM */
static char *result[] = {
/* columns rows colors chars-per-pixel */
"36 36 162 2 ",
"   c #753C4D",
".  c #2F5B6F",
"X  c #345B6E",
"o  c #395F6D",
"O  c #355B72",
"+  c #1D6578",
"@  c #1B697A",
"#  c #19717E",
"$  c #157B7F",
"%  c #32636F",
"&  c #38606C",
"*  c #2C6373",
"=  c #236F78",
"-  c #316473",
";  c #544C5E",
":  c #5D505F",
">  c #7F424D",
",  c #644A5A",
"<  c #734252",
"1  c #744C57",
"2  c #7A4D5F",
"3  c #535162",
"4  c #4B587E",
"5  c #684769",
"6  c #774162",
"7  c #614E75",
"8  c #6F4871",
"9  c #893756",
"0  c #883C54",
"q  c #8F3E59",
"w  c #8E3C65",
"e  c #9F3D61",
"r  c #A93D65",
"t  c #B43D6D",
"y  c #82434E",
"u  c #89484E",
"i  c #94474D",
"p  c #95494D",
"a  c #9A4B4D",
"s  c #9D534F",
"d  c #824655",
"f  c #8D4353",
"g  c #944250",
"h  c #9C4058",
"j  c #9C5153",
"k  c #92565A",
"l  c #A14E4E",
"z  c #A3514F",
"x  c #AA594E",
"c  c #A64556",
"v  c #AE4D57",
"b  c #AB435E",
"n  c #B64A5E",
"m  c #AC5751",
"M  c #AF5951",
"N  c #A05C5B",
"B  c #B35656",
"V  c #B25B52",
"C  c #B5505D",
"Z  c #BD684C",
"A  c #B66150",
"S  c #B96350",
"D  c #8F4962",
"F  c #914B67",
"G  c #854973",
"H  c #A84361",
"J  c #B84761",
"K  c #B54865",
"L  c #BA5E66",
"P  c #B64977",
"I  c #B7447B",
"U  c #C85E5C",
"Y  c #C26B4E",
"T  c #C7714D",
"R  c #CA734D",
"E  c #CF784C",
"W  c #D77C47",
"Q  c #D87D47",
"!  c #D4754B",
"~  c #D37B4C",
"^  c #D87F4B",
"/  c #C76055",
"(  c #C56059",
")  c #CD7E58",
"_  c #C05870",
"`  c #D07164",
"'  c #D9814A",
"]  c #DA8757",
"[  c #DC8957",
"{  c #D58159",
"}  c #D98558",
"|  c #087384",
" . c #057987",
".. c #027C8A",
"X. c #147D81",
"o. c #485A80",
"O. c #1563C4",
"+. c #1566C8",
"@. c #136ACB",
"#. c #106FD0",
"$. c #0E73D5",
"%. c #0B79DB",
"&. c #1070D1",
"*. c #077FE1",
"=. c #00818B",
"-. c #018D8D",
";. c #0C8E89",
":. c #00938F",
">. c #09968C",
",. c #009090",
"<. c #009C92",
"1. c #149E93",
"2. c #219C93",
"3. c #01A392",
"4. c #0CA795",
"5. c #00AD95",
"6. c #00B297",
"7. c #00B798",
"8. c #00BC99",
"9. c #19BA9B",
"0. c #25A798",
"q. c #00C19A",
"w. c #0BC39B",
"e. c #0DC99D",
"r. c #17C79D",
"t. c #12CD9F",
"y. c #1DD4A1",
"u. c #23D4A2",
"i. c #29D6A3",
"p. c #26D8A3",
"a. c #2FDAA5",
"s. c #34DCA5",
"d. c #3BDEA6",
"f. c #3AE2A7",
"g. c #3EE0A7",
"h. c #4DD0A4",
"j. c #45E3A9",
"k. c #4DE8AB",
"l. c #5EE4AB",
"z. c #53EAAC",
"x. c #5BEEAD",
"c. c #5FF1AE",
"v. c #64ECAE",
"b. c #63F2AF",
"n. c #67F4B0",
"m. c #6DF7B1",
"M. c #6EF8B1",
"N. c #71F9B2",
"B. c #0682E4",
"V. c #0485E8",
"C. c #028AED",
"Z. c #008DF0",
"A. c #92BCE7",
"S. c #92B9E8",
"D. c #F1CFDD",
"F. c #E3D1D4",
"G. c #E8D5D3",
"H. c #EFD0DB",
"J. c #F0D6D7",
"K. c #F6DDD5",
"L. c #F3D3DC",
"P. c #F8E1D3",
/* pixels */
"m.m.m.m.m.m.m.m.m.m.m.m.m.m.m.m.m.m.m.m.m.m.m.m.m.m.m.m.N.m.m.m.m.m.m.m.",
"m.m.m.m.m.m.m.m.m.m.m.m.m.m.m.m.m.m.m.m.m.m.m.m.m.m.m.m.m.m.m.m.m.m.m.m.",
"m.m.m.m.m.m.m.m.m.m.m.m.m.m.m.m.m.m.m.m.m.m.m.m.m.m.m.m.m.m.m.m.m.m.m.m.",
"m.m.m.m.m.m.m.m.m.m.m.M.m.m.m.m.m.m.m.m.m.m.m.m.m.m.m.m.m.m.m.m.m.m.m.m.",
"m.m.m.m.m.m.m.m.m.m.m.m.m.m.M.m.m.m.m.m.m.m.m.m.m.m.m.m.m.m.m.m.m.m.m.m.",
"m.m.m.m.m.m.m.m.m.m.m.m.m.m.m.m.m.m.N.N.m.m.m.m.m.m.m.m.m.m.m.m.m.m.m.m.",
"m.m.m.m.m.m.m.m.m.m.m.m.m.m.m.m.m.n.x.b.m.m.m.m.m.m.m.m.m.m.m.m.m.m.m.m.",
"m.m.m.m.m.m.m.m.m.m.m.m.m.m.M.M.N.c.r.j.N.m.m.m.m.m.m.m.m.m.m.m.m.m.m.m.",
"m.m.m.m.m.m.m.m.m.m.m.m.m.m.m.M.k.i.d.x.m.m.m.m.N.m.g.f.m.m.m.m.m.m.m.N.",
"m.m.m.m.N.m.m.N.m.m.m.m.m.m.N.N.g.e.n.N.m.m.m.m.n.k.a.g.m.m.m.m.N.m.c.j.",
"m.m.m.m.b.b.m.v.n.N.m.m.m.m.b.b.s.9.z.m.m.m.m.m.k.e.g.b.m.M.m.n.n.v.d.q.",
"m.m.m.m.i.g.l.2.h.N.m.m.N.c.r.t.4.:.r.k.N.m.N.j.t.q.w.s.m.M.N.x.r.1.1.q.",
"N.k.s.a.e.9.0...9.f.s.s.s.u.q.q.3.=.7.y.s.s.s.9.,.<.6.t.s.s.f.p.q.-...<.",
"z.u.7.6.6.;.+ @ >.7.q.q.q.q.q.7.>.@ 3.6.6.q.q.3.| @ >.6.5.5.5.6.5.X.+ + ",
"w.q.5. ...& < < * :.8.8.8.q.8.-.o , #  .;.7.q.<.@ , -  . . . . .| 3 < < ",
"-.:.$ ; ; 1 z z 1 % -.-.-.-.-.o 1 j G 5 o -.:.= , j F 8 ; ; ; ; ; w H z ",
"4 o.7 w g x Y V a 2 4 O . . X 6 c V J c 1 X . : a M n b p i i p p b C A ",
"t t t K B T ~ S A C t 0 > > 0 r K V A S x u y s S S S V A A V V V B M m ",
"B B B B R ^ ^ E Z M B m x m m m V V E ~ ~ R R E ~ ~ E ~ ~ E Y V M K e > ",
"T T T T ~ ^ ^ W R T T R T T T R R R ^ R Y Y Y ( U W ' ^ W ' ( b f q 9   ",
"Q Q Q Q W W ~ W W W W W Q Q Q Q Q ! Z A m v l h r / ! W W W ( n a f 9 9 ",
"} } ] } ] } ] ] ] ] ] ] ] ] } [ [ ) k N L P D d D P ` [ ] ] } } { _ I I ",
"K.P.K.P.P.P.P.P.P.P.P.P.K.P.P.P.P.K.G.G.J.H.F.F.F.H.K.P.P.P.P.P.P.L.D.L.",
"A.S.S.S.S.S.S.S.S.S.S.S.S.A.A.A.S.S.S.A.A.A.A.A.A.S.S.S.S.S.S.S.S.S.A.A.",
"O.O.O.O.O.O.O.O.O.O.O.O.O.O.O.O.O.O.O.O.O.O.O.O.O.O.O.O.O.O.O.O.O.O.O.O.",
"O.O.O.O.O.O.O.O.O.O.O.O.O.O.O.O.O.O.O.O.O.O.O.O.O.O.O.O.O.O.O.O.O.O.O.O.",
"O.O.O.O.O.O.O.O.O.O.O.O.O.O.O.O.O.O.O.O.O.O.O.O.O.O.O.O.O.O.O.O.O.O.O.O.",
"O.O.O.O.O.O.O.O.O.O.O.O.O.O.O.&.$.&.$.$.$.$.$.$.$.$.&.$.$.$.$.#.+.O.O.O.",
"O.O.O.@.@.+.@.@.@.@.+.@.+.O.O.B.C.C.C.V.C.C.C.Z.C.C.C.C.V.C.C.*.@.O.O.O.",
"O.O.@.V.V.V.V.B.V.C.V.V.&.O.O.@.@.@.@.@.%.C.Z.Z.Z.C.%.@.@.@.@.@.O.+.O.O.",
"%.%.B.Z.Z.Z.Z.Z.Z.Z.Z.Z.V.%.%.%.%.%.%.%.B.C.Z.Z.Z.Z.B.%.%.%.%.%.%.%.%.%.",
"Z.Z.Z.Z.Z.Z.Z.Z.Z.Z.Z.Z.Z.Z.Z.Z.Z.Z.Z.C.Z.Z.Z.Z.Z.Z.Z.Z.Z.Z.Z.Z.Z.Z.Z.Z.",
"Z.Z.Z.Z.Z.Z.Z.Z.Z.Z.C.Z.Z.Z.Z.Z.Z.Z.Z.Z.Z.Z.Z.Z.Z.Z.Z.Z.Z.Z.Z.C.Z.Z.Z.Z.",
"Z.Z.Z.Z.Z.Z.Z.Z.Z.Z.Z.Z.Z.Z.Z.Z.Z.Z.Z.Z.Z.Z.Z.Z.Z.Z.Z.Z.Z.Z.Z.Z.Z.Z.Z.Z.",
"Z.Z.Z.Z.Z.Z.Z.Z.Z.Z.Z.Z.Z.Z.Z.Z.Z.Z.C.Z.Z.Z.Z.Z.Z.Z.Z.Z.Z.Z.Z.Z.Z.Z.Z.Z.",
"Z.Z.Z.Z.Z.Z.Z.Z.Z.Z.Z.Z.Z.Z.Z.Z.Z.Z.Z.Z.Z.C.Z.Z.Z.Z.C.Z.Z.Z.Z.Z.Z.Z.Z.Z."
};
