/* XPM */
static char *xanos_1wobi[] = {
/* columns rows colors chars-per-pixel */
"36 36 146 2 ",
"   c #2A636F",
".  c #216B75",
"X  c #594658",
"o  c #495160",
"O  c #097283",
"+  c #017C85",
"@  c #007588",
"#  c #007F89",
"$  c #037C91",
"%  c #0A8084",
"&  c #088287",
"*  c #008189",
"=  c #00818A",
"-  c #01818A",
";  c #00828A",
":  c #01828A",
">  c #008789",
",  c #00878A",
"<  c #0F808F",
"1  c #00898A",
"2  c #008D8A",
"3  c #00938A",
"4  c #00938B",
"5  c #00958E",
"6  c #00958F",
"7  c #01978F",
"8  c #05988E",
"9  c #018D9F",
"0  c #049790",
"q  c #049D90",
"w  c #00A092",
"e  c #00A791",
"r  c #08A393",
"t  c #09A195",
"y  c #00A993",
"u  c #0FAA95",
"i  c #00B096",
"p  c #01B496",
"a  c #00B596",
"s  c #00B597",
"d  c #00B697",
"f  c #00B797",
"g  c #00BD99",
"h  c #02BD99",
"j  c #00BE99",
"k  c #00BF99",
"l  c #01BF9A",
"z  c #04BE9A",
"x  c #05BE9A",
"c  c #18BC9B",
"v  c #23B49A",
"b  c #39B79C",
"n  c #3AB89D",
"m  c #5FB0B3",
"M  c #00C099",
"N  c #01C09A",
"B  c #00C19A",
"V  c #00C29A",
"C  c #02C29A",
"Z  c #02C39B",
"A  c #04C39B",
"S  c #05C69C",
"D  c #09C59C",
"F  c #0AC69C",
"G  c #0DC99D",
"H  c #10CB9E",
"J  c #14CC9F",
"K  c #15CD9F",
"L  c #17CD9F",
"P  c #14CF9F",
"I  c #18CD9F",
"U  c #1ACC9F",
"Y  c #20C99F",
"T  c #19CFA0",
"R  c #1DCFA0",
"E  c #20D1A1",
"W  c #21D1A1",
"Q  c #25D3A2",
"!  c #24D6A2",
"~  c #2FD3A2",
"^  c #28D5A2",
"/  c #2CD6A3",
"(  c #2CD7A3",
")  c #30D9A4",
"_  c #31D9A4",
"`  c #32DAA5",
"'  c #35DBA5",
"]  c #38DDA6",
"[  c #3DE2A7",
"{  c #41C09F",
"}  c #41C7A1",
"|  c #40DCA6",
" . c #41E1A8",
".. c #40E3A8",
"X. c #42E3A8",
"o. c #44E2A8",
"O. c #45E3A8",
"+. c #47E4A9",
"@. c #49E7AA",
"#. c #4AE6AA",
"$. c #4DE7AA",
"%. c #4BE8AA",
"&. c #4DE8AA",
"*. c #4DE9AB",
"=. c #4EE9AB",
"-. c #5BE0AA",
";. c #53EAAC",
":. c #54EAAC",
">. c #58EEAD",
",. c #5BEEAD",
"<. c #5DEFAE",
"1. c #61F1AF",
"2. c #62F2AF",
"3. c #63F2AF",
"4. c #65F3AF",
"5. c #66F3AF",
"6. c #66F4B0",
"7. c #6AF3B0",
"8. c #68F5B0",
"9. c #6AF5B0",
"0. c #6BF5B0",
"q. c #6CF6B1",
"w. c #6CF7B1",
"e. c #6DF7B1",
"r. c #6EF6B1",
"t. c #6EF7B1",
"y. c #6EF8B1",
"u. c #6FF8B1",
"i. c #6EF9B1",
"p. c #6FF9B2",
"a. c #70F8B1",
"s. c #70F9B2",
"d. c #71F9B2",
"f. c #72F9B2",
"g. c #70FBB2",
"h. c #71FBB2",
"j. c #72FAB2",
"k. c #9F93A3",
"l. c #A0ACB1",
"z. c #AAAAB0",
"x. c #C3989E",
"c. c #CEE9FC",
"v. c #D6ECFC",
"b. c #DDEFFF",
"n. c #DDF0FF",
"m. c None",
/* pixels */
"m.m.m.m.m.m.m.m.m.m.b.c.x.X O @ 7 s : { g.e.e.e.e.e.e.e.e.e.e.e.e.e.e.e.",
"m.m.m.m.m.m.m.m.m.m.b.v.l.. q w c | } -.i.e.e.e.e.e.e.e.e.e.e.e.e.e.e.e.",
"m.m.m.m.m.m.m.m.m.m.m.b.* , l P X.s.h.i.e.e.e.e.e.e.e.e.e.e.e.e.e.e.e.e.",
"m.m.m.m.m.m.m.m.m.m.m.m.* > z @.t.e.e.e.e.e.e.e.e.e.e.e.e.e.e.e.e.e.e.e.",
"m.m.m.m.m.m.m.m.m.m.m.m.* > x =.f.e.e.e.e.e.e.e.e.e.e.e.e.e.e.e.e.e.e.e.",
"m.m.m.m.m.m.m.m.m.m.m.m.; > x *.d.e.e.e.e.e.e.e.e.e.e.e.e.e.e.e.e.e.e.e.",
"m.m.m.m.m.m.m.m.m.m.m.m.; > x =.f.e.e.e.e.e.e.e.e.e.e.e.e.e.e.e.e.e.e.e.",
"m.m.m.m.m.m.m.m.m.m.m.m.; > x %.a.e.e.e.e.e.e.e.e.e.e.e.e.e.e.e.e.e.e.e.",
"m.m.m.m.m.m.m.m.m.m.m.m.* > h T O.e.e.e.e.e.e.e.e.e.e.e.e.e.e.e.e.e.e.e.",
"m.m.m.m.m.m.m.m.m.m.m.m.; 1 g M / u.t.e.e.e.e.e.e.e.e.e.e.e.e.e.e.e.e.e.",
"m.m.m.m.m.m.m.m.m.m.m.* ; % p k ^ 3.q.e.e.e.e.e.e.e.e.e.e.e.e.e.e.e.e.e.",
"m.m.m.m.m.m.m.m.m.m.m.b.k.o & i S W 1.s.e.e.e.e.e.e.e.e.e.e.e.e.e.e.e.e.",
"m.m.m.m.m.m.m.m.m.m.m.n.z.  8 s J ' _ ;.u.e.e.e.e.e.e.e.e.e.e.e.e.e.e.e.",
"m.m.m.m.m.m.m.m.m.m.* b.m 5 l H  .2.Q +.a.e.e.e.e.e.e.e.e.e.e.e.e.e.e.e.",
"m.m.m.m.m.m.m.m.m.* $ < t j A +.w.q.6.9.e.e.e.e.e.e.e.e.e.e.e.e.e.e.e.e.",
"m.m.m.m.m.* * * * 9 y e a V C $.j.e.u.t.e.e.e.e.e.e.e.e.e.e.e.e.e.e.e.e.",
"* ; ; ; * * 3 4 + 2 Z ! K D ( ,.u.e.e.e.e.e.e.e.e.e.e.e.e.e.e.e.e.e.e.e.",
"- - - = # r G N 6 0 U <.` L 4.u.e.e.e.e.e.e.e.e.e.e.e.e.e.e.e.e.e.e.e.e.",
"d d d d a ~ &.F f Y <.e.) I 5.u.e.e.e.e.e.e.e.e.e.e.e.e.e.e.e.e.e.e.e.e.",
"B M H [ ..>.8.o.u v r.p.:.#.9.t.e.e.e.e.e.e.e.e.e.e.e.e.e.e.e.e.e.e.e.e.",
"E R ] e.f.u.y.t.n b 0.y.u.a.e.e.e.e.e.e.e.e.e.e.e.e.e.e.e.e.e.e.e.e.e.e.",
"8.8.9.e.e.e.e.e.7.7.e.e.e.e.e.e.e.e.e.e.e.e.e.e.e.e.e.e.e.e.e.e.e.e.e.e.",
"u.u.y.e.e.e.e.e.y.y.e.e.e.e.e.e.e.e.e.e.e.e.e.e.e.e.e.e.e.e.e.e.e.e.e.e.",
"e.e.e.e.e.e.e.e.e.e.e.e.e.e.e.e.e.e.e.e.e.e.e.e.e.e.e.e.e.e.e.e.e.e.e.e.",
"e.e.e.e.e.e.e.e.e.e.e.e.e.e.e.e.e.e.e.e.e.e.e.e.e.e.e.e.e.e.e.e.e.e.e.e.",
"e.e.e.e.e.e.e.e.e.e.e.e.e.e.e.e.e.e.e.e.e.e.e.e.e.e.e.e.e.e.e.e.e.e.e.e.",
"e.e.e.e.e.e.e.e.e.e.e.e.e.e.e.e.e.e.e.e.e.e.e.e.e.e.e.e.e.e.e.e.e.e.e.e.",
"e.e.e.e.e.e.e.e.e.e.e.e.e.e.e.e.e.e.e.e.e.e.e.e.e.e.e.e.e.e.e.e.e.e.e.e.",
"e.e.e.e.e.e.e.e.e.e.e.e.e.e.e.e.e.e.e.e.e.e.e.e.e.e.e.e.e.e.e.e.e.e.e.e.",
"e.e.e.e.e.e.e.e.e.e.e.e.e.e.e.e.e.e.e.e.e.e.e.e.e.e.e.e.e.e.e.e.e.e.e.e.",
"e.e.e.e.e.e.e.e.e.e.e.e.e.e.e.e.e.e.e.e.e.e.e.e.e.e.e.e.e.e.e.e.e.e.e.e.",
"e.e.e.e.e.e.e.e.e.e.e.e.e.e.e.e.e.e.e.e.e.e.e.e.e.e.e.e.e.e.e.e.e.e.e.e.",
"e.e.e.e.e.e.e.e.e.e.e.e.e.e.e.e.e.e.e.e.e.e.e.e.e.e.e.e.e.e.e.e.e.e.e.e.",
"e.e.e.e.e.e.e.e.e.e.e.e.e.e.e.e.e.e.e.e.e.e.e.e.e.e.e.e.e.e.e.e.e.e.e.e.",
"e.e.e.e.e.e.e.e.e.e.e.e.e.e.e.e.e.e.e.e.e.e.e.e.e.e.e.e.e.e.e.e.e.e.e.e.",
"e.e.e.e.e.e.e.e.e.e.e.e.e.e.e.e.e.e.e.e.e.e.e.e.e.e.e.e.e.e.e.e.e.e.e.e."
};
