/* XPM */
static char *result[] = {
/* columns rows colors chars-per-pixel */
"36 36 210 2 ",
"   c #713549",
".  c #177B7C",
"X  c #21727B",
"o  c #4C4256",
"O  c #444A5F",
"+  c #505161",
"@  c #945B69",
"#  c #995F6D",
"$  c #96606E",
"%  c #0F7C83",
"&  c #087C87",
"*  c #007A9A",
"=  c #007B9A",
"-  c #007A9C",
";  c #007B9D",
":  c #076AA3",
">  c #0571A0",
",  c #0473B2",
"<  c #0574B1",
"1  c #476E86",
"2  c #507786",
"3  c #0E62C4",
"4  c #0E64C6",
"5  c #0C69CB",
"6  c #0C6ACC",
"7  c #0B6CCF",
"8  c #1171C8",
"9  c #0A70D2",
"0  c #0875D7",
"q  c #067BDD",
"w  c #067CDE",
"e  c #067DDF",
"r  c #008689",
"t  c #00858A",
"y  c #06838D",
"u  c #008A8B",
"i  c #008B8E",
"p  c #00928D",
"a  c #009A8E",
"s  c #009B8E",
"d  c #009D8D",
"f  c #009E8D",
"g  c #009C8E",
"h  c #009E8F",
"j  c #038997",
"k  c #038798",
"l  c #16859B",
"z  c #15839D",
"x  c #009391",
"c  c #0E9190",
"v  c #33909E",
"b  c #00A08E",
"n  c #00A08F",
"m  c #03A191",
"M  c #00A393",
"N  c #00A793",
"B  c #0DA394",
"V  c #00AA94",
"C  c #00AB95",
"Z  c #00AA96",
"A  c #05B096",
"S  c #00BA99",
"D  c #00BD9A",
"F  c #00BE9A",
"G  c #04BF9B",
"H  c #05BF9B",
"J  c #0DBE9B",
"K  c #18BE9C",
"L  c #008EA2",
"P  c #198ABB",
"I  c #2D8BA5",
"U  c #70AFBC",
"Y  c #01C09B",
"T  c #03C19B",
"R  c #00C29B",
"E  c #00C39B",
"W  c #00C49B",
"Q  c #04C39C",
"!  c #00C59C",
"~  c #04C49C",
"^  c #05C49C",
"/  c #05C89D",
"(  c #09C89D",
")  c #0EC99E",
"_  c #0FCB9F",
"`  c #0FCD9F",
"'  c #10CA9E",
"]  c #11CA9F",
"[  c #1BCFA1",
"{  c #1CCFA1",
"}  c #18D0A1",
"|  c #19D2A1",
" . c #1CD0A1",
".. c #1CD1A1",
"X. c #29D7A4",
"o. c #2CD8A4",
"O. c #2ED8A5",
"+. c #3ED2A5",
"@. c #30D9A5",
"#. c #32DAA6",
"$. c #36DCA6",
"%. c #37DDA7",
"&. c #3DE0A8",
"*. c #3EE0A8",
"=. c #46C7A2",
"-. c #44CBA3",
";. c #44DFA8",
":. c #40E1A8",
">. c #41E2A9",
",. c #44E3A9",
"<. c #45E3A9",
"1. c #47E4AA",
"2. c #47E5AA",
"3. c #46E6AA",
"4. c #4CE7AB",
"5. c #4DE7AB",
"6. c #4BE8AB",
"7. c #4FE8AC",
"8. c #4EE9AC",
"9. c #4FECAD",
"0. c #57E0AA",
"q. c #5CE2AB",
"w. c #5BE6AC",
"e. c #50E9AC",
"r. c #51E9AC",
"t. c #55EBAD",
"y. c #57EAAD",
"u. c #56ECAD",
"i. c #57ECAD",
"p. c #58EDAE",
"a. c #59EDAE",
"s. c #5BEEAE",
"d. c #5CEFAF",
"f. c #5DEFAF",
"g. c #5FF0AF",
"h. c #64ECAE",
"j. c #62F2B0",
"k. c #65F3B0",
"l. c #66F4B1",
"z. c #68F5B1",
"x. c #69F5B1",
"c. c #6AF5B1",
"v. c #6AF6B1",
"b. c #6BF6B2",
"n. c #6CF6B2",
"m. c #6DF7B2",
"M. c #6EF7B2",
"N. c #6EF8B2",
"B. c #6EF9B3",
"V. c #6FF9B3",
"C. c #70F8B3",
"Z. c #70F9B3",
"A. c #71F9B3",
"S. c #72F9B3",
"D. c #70FAB3",
"F. c #71FBB3",
"G. c #73FAB3",
"H. c #75FCB4",
"J. c #0081C4",
"K. c #0481E3",
"L. c #0482E4",
"P. c #0088E5",
"I. c #0089E5",
"U. c #008BE5",
"Y. c #0287E9",
"T. c #0088E8",
"R. c #018BE8",
"E. c #0288EA",
"W. c #008CEA",
"Q. c #018AEC",
"!. c #008CEE",
"~. c #018CEE",
"^. c #008DEF",
"/. c #008AF0",
"(. c #008BF0",
"). c #008CF0",
"_. c #008DF0",
"`. c #008EF0",
"'. c #008FF0",
"]. c #008EF1",
"[. c #008FF1",
"{. c #008DF2",
"}. c #008EF2",
"|. c #008FF2",
" X c #008FF3",
".X c #0390F1",
"XX c #0E95F2",
"oX c #1C9AF1",
"OX c #2398EC",
"+X c #27A0F4",
"@X c #2AA1F5",
"#X c #2BA3F5",
"$X c #28A1F6",
"%X c #39A9F5",
"&X c #5AB3E9",
"*X c #51B2F6",
"=X c #5FB8F7",
"-X c #5CBAF9",
";X c #5DBAF9",
":X c #5FBBF9",
">X c #6EB6E7",
",X c #61B6E9",
"<X c #B092A0",
"1X c #A2CBEC",
"2X c #BDDDEF",
"3X c #B8DDF8",
"4X c #DCECEF",
"5X c #EAE6E9",
"6X c #EDE7E9",
"7X c #F1E8E9",
/* pixels */
"`.`.`.`.`.`.`.`./.=X4Xv a E ^ e.>.' f.Z.m.m.m.m.m.m.m.m.m.m.m.m.m.m.m.m.",
"`.`.`.`.`.`.`.`.).+X&Xz s _ *.j.s.1.l.N.m.m.m.m.m.m.m.m.m.m.m.m.m.m.m.m.",
"`.`.`.`.`.`.`.`.`.{.P.- g ..v.A.N.C.m.m.m.m.m.m.m.m.m.m.m.m.m.m.m.m.m.m.",
"`.`.`.`.`.`.`.`.`. XU.- g } g.m.m.m.m.m.m.m.m.m.m.m.m.m.m.m.m.m.m.m.m.m.",
"`.`.`.`.`.`.`.`.`. XU.* f /  .t.C.m.m.m.m.m.m.m.m.m.m.m.m.m.m.m.m.m.m.m.",
"`.`.`.`.`.`.`.`.`.].W.J.L N Y 4.A.m.m.m.m.m.m.m.m.m.m.m.m.m.m.m.m.m.N.A.",
"`.`.`.`.`.`.`.`.`._..X$XP r H 8.S.m.m.m.m.m.m.m.m.m.m.m.m.m.m.m.m.N.k.i.",
"`.`.`.`.`.`.`.`.`.).oX3XU t G 6.C.m.m.m.m.m.m.m.m.m.m.m.m.m.m.m.m.N.,.) ",
"`.`.`.`.`.`.`.`.).%X1X<X2 i Y | 3.A.F.V.m.m.m.m.m.m.m.m.m.m.m.N.c.%.O.,.",
"`.`.`.`.`.`.`.`./.:X7X@ o X m M K ;.-.q.N.m.m.m.m.m.m.m.m.m.m.N.c.$.:.A.",
"`.`.`.`.`.`.`.`./.-X5X$   + & y B J c =.D.m.m.m.m.m.m.m.m.m.m.m.m.b.n.m.",
"`.`.`.`.`.`.`.`./.;X6X# O % A +.w.y.0.h.N.m.m.m.m.m.m.m.m.m.m.m.m.M.M.m.",
"`.`.`.`.`.`.`.`.).#X>X1 . Z ~ 9.H.A.F.B.m.m.m.m.m.m.m.m.m.m.m.m.m.m.m.m.",
"`.`.`.`.`.`.`.`.`.}.I.; n W ^ 5.A.m.m.m.m.m.m.m.m.m.m.m.m.m.m.m.m.m.m.m.",
"`.`.`.`.`.`.`.`.`. XU.- h E ^ 5.A.m.m.m.m.m.m.m.m.m.m.m.m.m.m.m.m.m.m.m.",
"[.[.[.`.`.`.`.`.`. XU.= b ! ^ 7.G.m.C.N.m.m.m.m.m.m.m.m.m.m.m.m.m.m.m.m.",
"w q K.^.`.`.`.`.`.}.T., k V T X.u.z.<.p.N.m.m.m.m.m.m.m.m.m.m.m.m.m.m.m.",
"6 5 0 !.'.`.`.`._.XXOX8 > p F ( #.r.{ <.C.m.m.m.m.m.m.m.m.m.m.m.m.m.m.m.",
"E.Y.Q.`.`.`.`.`.(.*X2XI x S Q ,.*.[ r.x.m.m.m.m.m.m.m.m.m.m.m.m.m.m.m.m.",
"[.[.[.`.`.`.`.`.).@X,Xl d ` *.k.s.<.z.C.m.m.m.m.m.m.m.m.m.m.m.m.m.m.m.m.",
"`.`.`.`.`.`.`.`.`.{.P.- g ..v.A.N.C.m.m.m.m.m.m.m.m.m.m.m.m.m.m.m.m.m.m.",
"`.`.`.`.`.`.`.`.`. XU.- g } g.m.m.m.m.m.m.m.m.m.m.m.m.m.m.m.m.m.m.m.m.m.",
"`.`.`.`.`.`.`.`.`. XU.* f /  .t.C.m.m.m.m.m.m.m.m.m.m.m.m.m.m.m.m.m.m.m.",
"`.`.`.`.`.`.`.`.`.].W.J.L N Y 4.A.m.m.m.m.m.m.m.m.m.m.m.m.m.m.m.m.m.N.A.",
"`.`.`.`.`.`.`.`.`._..X$XP r H 8.S.m.m.m.m.m.m.m.m.m.m.m.m.m.m.m.m.N.k.i.",
"`.`.`.`.`.`.`.`.`.).oX3XU t G 6.C.m.m.m.m.m.m.m.m.m.m.m.m.m.m.m.m.N.,.) ",
"`.`.`.`.`.`.`.`.).%X1X<X2 i Y | 3.A.F.V.m.m.m.m.m.m.m.m.m.m.m.N.c.%.O.,.",
"`.`.`.`.`.`.`.`./.:X7X@ o X m M K ;.-.q.N.m.m.m.m.m.m.m.m.m.m.N.c.$.:.A.",
"`.`.`.`.`.`.`.`./.-X5X$   + & y B J c =.D.m.m.m.m.m.m.m.m.m.m.m.m.b.n.m.",
"`.`.`.`.`.`.`.`./.;X6X# O % A +.w.y.0.h.N.m.m.m.m.m.m.m.m.m.m.m.m.M.M.m.",
"`.`.`.`.`.`.`.`.).#X>X1 . Z ~ 9.H.A.F.B.m.m.m.m.m.m.m.m.m.m.m.m.m.m.m.m.",
"`.`.`.`.`.`.`.`.`.}.I.; n W ^ 5.A.m.m.m.m.m.m.m.m.m.m.m.m.m.m.m.m.m.m.m.",
"`.`.`.`.`.`.`.`.`. XU.- h E ^ 5.A.m.m.m.m.m.m.m.m.m.m.m.m.m.m.m.m.m.m.m.",
"[.[.[.`.`.`.`.`.`. XU.= b ! ^ 7.G.m.C.N.m.m.m.m.m.m.m.m.m.m.m.m.m.m.m.m.",
"e w L.^.`.`.`.`.`.|.R.< j C T o.u.l.2.a.N.m.m.m.m.m.m.m.m.m.m.m.m.m.m.m.",
"4 3 9 ~.[.`.`.`.`.[.Q.7 : u D R @.d.] &.Z.m.m.m.m.m.m.m.m.m.m.m.m.m.m.m."
};
