/* XPM */
static char *pa2xz_2pc6z[] = {
/* columns rows colors chars-per-pixel */
"36 36 139 2 ",
"   c #2C5C6F",
".  c #315B6F",
"X  c #355266",
"o  c #385A74",
"O  c #1E6478",
"+  c #1A777D",
"@  c #167E7D",
"#  c #34636F",
"$  c #306370",
"%  c #5F4456",
"&  c #7F424D",
"*  c #72435C",
"=  c #455768",
"-  c #495364",
";  c #5A5261",
":  c #48597D",
">  c #6C4663",
",  c #873D4F",
"<  c #8D3D51",
"1  c #9B3E5A",
"2  c #9F3C69",
"3  c #9E3662",
"4  c #AE3D6A",
"5  c #81424E",
"6  c #8B474F",
"7  c #954B4F",
"8  c #93404C",
"9  c #8E4056",
"0  c #884A51",
"q  c #8B4D5C",
"w  c #964953",
"e  c #914058",
"r  c #AD5A4F",
"t  c #A54F5E",
"y  c #A2465B",
"u  c #B7475F",
"i  c #B0485C",
"p  c #BD4D5F",
"a  c #AA5751",
"s  c #AB5950",
"d  c #B25A52",
"f  c #B45658",
"g  c #B55956",
"h  c #B7644E",
"j  c #B9634D",
"k  c #AA615C",
"l  c #B6665E",
"z  c #BF6E5D",
"x  c #A0745B",
"c  c #875A64",
"v  c #86526A",
"b  c #874675",
"n  c #8D4C70",
"m  c #964171",
"M  c #AD4660",
"N  c #B14763",
"B  c #BD5061",
"V  c #96626F",
"C  c #C95E4F",
"Z  c #C56D4C",
"A  c #CD754D",
"S  c #D4774A",
"D  c #C76351",
"F  c #D46666",
"G  c #D98657",
"H  c #D78458",
"J  c #D88558",
"K  c #136D80",
"L  c #1C6C82",
"P  c #0D7585",
"I  c #017E8D",
"U  c #0D7D8F",
"Y  c #037385",
"T  c #107984",
"R  c #00699C",
"E  c #3E7089",
"W  c #0060A3",
"Q  c #A36B80",
"!  c #0F8185",
"~  c #02838A",
"^  c #008D8D",
"/  c #12808C",
"(  c #02918E",
")  c #08948C",
"_  c #009E8E",
"`  c #048394",
"'  c #008F90",
"]  c #009390",
"[  c #239F94",
"{  c #00A392",
"}  c #00AB94",
"|  c #0EAD96",
" . c #11AD96",
".. c #01B196",
"X. c #01BC99",
"o. c #21BC9C",
"O. c #03C39A",
"+. c #09C39B",
"@. c #0EC99D",
"#. c #16CC9F",
"$. c #19CD9F",
"%. c #1CD1A0",
"&. c #23D4A2",
"*. c #2BD6A3",
"=. c #2DDAA4",
"-. c #33DBA5",
";. c #39DEA7",
":. c #3FE0A7",
">. c #44E3A9",
",. c #4CE7AA",
"<. c #4EE8AB",
"1. c #54EBAC",
"2. c #5AEEAD",
"3. c #64F2AF",
"4. c #67F4B0",
"5. c #6DF7B1",
"6. c #6EF8B1",
"7. c #71F9B2",
"8. c #BFBFAF",
"9. c #ADA7BA",
"0. c #DEA787",
"q. c #DAA699",
"w. c #F1B398",
"e. c #C8A1A1",
"r. c #C0C0B0",
"t. c #BFC1CF",
"y. c #C0C1D0",
"u. c #E1CFD0",
"i. c #E8D6D2",
"p. c #EED9D5",
"a. c #F1DAD3",
"s. c #F7E1D3",
"d. c #F9E2D2",
"f. c #CED6E5",
"g. c #D3D9E6",
"h. c #D7E7F9",
"j. c #D8E8F9",
"k. c #E9E5E9",
"l. c None",
/* pixels */
"5.5.5.5.5.5.5.5.5.5.5.5.5.5.5.5.5.5.5.5.5.5.5.5.5.5.5.5.5.5.5.5.5.5.5.5.",
"5.5.5.5.5.5.5.5.5.5.5.5.5.5.5.5.5.5.5.5.5.5.5.5.5.5.5.5.5.5.5.5.5.5.5.5.",
"5.5.5.5.5.5.5.5.5.5.5.5.5.5.5.5.5.5.5.5.5.5.5.5.5.5.5.5.5.5.5.5.5.5.5.5.",
"5.5.5.5.5.5.5.5.5.5.5.7.5.5.5.5.5.5.5.5.5.5.5.5.5.5.5.5.5.6.5.5.5.5.5.5.",
"5.5.5.5.5.5.5.5.5.5.5.5.5.5.5.5.5.5.5.5.5.5.5.5.5.5.5.5.5.5.5.5.5.5.5.5.",
"5.5.5.7.5.5.5.5.5.5.5.5.5.5.5.5.5.5.5.5.5.5.5.5.5.5.5.5.5.5.5.5.5.5.5.5.",
"6.6.4.2.4.5.5.5.5.5.5.5.5.5.5.5.5.5.5.5.5.5.5.5.5.5.5.5.5.5.5.5.5.5.5.5.",
"5.5.,.$.1.7.6.5.5.5.5.5.5.5.5.5.5.5.5.5.5.5.5.5.5.5.5.5.5.5.5.5.5.5.5.5.",
"[ o.*.>.3.5.5.5.5.5.5.5.5.5.5.5.5.5.5.6.5.5.6.4.5.5.5.5.5.5.5.5.5.5.5.5.",
"[ o.;.5.7.5.5.5.5.5.5.5.5.5.5.5.5.5.5.6.5.6.6.6.5.5.6.6.5.5.6.5.5.5.5.5.",
"5.4.5.5.5.5.5.5.5.5.5.5.5.5.5.5.5.5.4.6.5.5.6.6.5.5.3.3.5.5.5.5.5.5.5.5.",
"5.7.5.5.5.5.5.5.5.5.5.5.5.5.5.5.5.5.6.5.5.5.6.6.6.5.-.-.5.7.5.5.5.5.5.5.",
"5.5.5.5.5.5.5.5.5.5.5.5.5.5.5.5.5.5.5.5.6.6.6.7.3.;.| | -.-.1.7.6.7.7.6.",
"5.5.5.5.5.5.5.5.5.5.5.5.5.5.5.5.5.5.5.5.3.1.3.7.2.+.^ ~ } X.=.1.1.1.1.1.",
"5.5.5.5.5.5.5.5.5.5.5.5.5.5.5.5.5.5.5.7.<.#.1.7.1.+.( Y I ..O.+.+.+.+.+.",
"5.5.5.5.5.5.5.5.5.5.5.5.5.5.5.5.5.5.5.6.3.,.*.%.%.O.( O - ! ] ^ ^ ^ ^ ^ ",
"5.5.5.5.5.5.5.5.5.5.5.5.5.5.5.7.6.6.5.7.4.:.@...{ { + ; 0 =   o : o . . ",
"5.5.5.5.5.5.5.5.5.5.5.5.5.5.5.2.4.4.5.4.>.+.X.) K L ; 7 s 6 & 9 4 e 5 5 ",
"5.5.5.5.5.5.5.5.5.5.5.5.5.5.5.*.-.5.5.;.+.X.^ $ * m t s d s a a f a a a ",
"5.5.5.5.5.5.5.5.5.5.5.5.5.6.5.,.-.*.*. .^ ) # % , i g f N w y B Z h r d ",
"5.5.5.5.5.5.5.5.5.5.5.5.5.5.5.7.,.$.O._ ~ P > < w j D N 3 < 1 p S Z j j ",
"5.5.5.5.5.5.5.5.5.5.5.5.5.5.5.5.5.2.#.O.} P b N j A B m q k l z H G G G ",
"5.5.5.5.5.5.5.5.5.5.5.5.5.5.5.5.6.5.1.&.} P c D A j 8 V u.p.p.a.d.d.d.d.",
"5.6.5.5.5.5.5.5.5.5.5.5.5.5.5.5.5.6.7.=.} P v C J q.e.9.i.s.s.s.s.s.s.s.",
"5.5.5.5.5.5.5.5.5.5.5.5.5.5.5.5.5.7.5.=.} T n F 0.g.j.9.W W W W W W W W ",
"5.5.5.5.5.5.5.5.5.5.5.5.5.5.5.5.5.5.5.=.} T x w.f.g.j.W W W W W W W W W ",
"7.7.5.5.5.5.5.5.5.5.5.5.5.5.5.5.5.5.7.=.} U r.y.f.W W W W W W W W W W W ",
">.2.6.5.5.5.5.5.5.5.5.5.5.5.5.5.5.5.,.%.} U r.y.W W W W W W W W W W W W ",
"#.>.7.5.5.5.5.5.5.5.5.5.5.5.5.5.5.2.$.O.} ~ R R W W W W l.l.l.l.l.l.l.l.",
"1.3.5.5.5.5.5.5.5.5.5.5.5.5.5.6.>.$.,.&.X...I W R l.l.l.l.l.l.l.l.W W W ",
"7.5.5.5.5.5.5.5.5.5.5.5.5.5.5.7.1.:.5.1.&.O.} ` R l.l.l.l.l.l.l.l.W W W ",
"5.5.5.5.5.5.6.5.5.5.5.5.5.5.5.5.5.6.5.7.<.+.O._ I l.l.l.l.l.l.l.l.l.l.l.",
"5.5.5.5.5.5.5.5.5.5.5.5.5.5.5.5.5.5.5.7.,.+.O._ ~ l.l.l.l.l.l.l.l.l.l.l.",
"5.5.5.5.5.5.5.5.5.5.5.5.5.5.5.5.5.5.5.7.,.+.O._ I l.l.l.l.l.l.l.l.l.l.l.",
"5.5.5.5.5.5.5.5.5.5.5.5.5.5.5.5.5.5.5.7.,.O.} @ E k.l.l.l.l.l.l.l.l.l.l.",
"5.5.5.5.5.5.5.5.5.5.5.5.5.5.5.5.5.5.5.7.,.O.~ X V k.k.l.l.l.l.l.l.l.l.l."
};
