/* XPM */
static char *ibd0b_s2w9d[] = {
/* columns rows colors chars-per-pixel */
"36 36 166 2 ",
"   c #753C4D",
".  c #773F51",
"X  c #2F5B6F",
"o  c #345B6E",
"O  c #395F6D",
"+  c #2C5B70",
"@  c #355B72",
"#  c #1D6578",
"$  c #1B697A",
"%  c #18717E",
"&  c #157B7F",
"*  c #32636F",
"=  c #38606C",
"-  c #236F78",
";  c #2C6373",
":  c #316473",
">  c #544C5E",
",  c #5D505F",
"<  c #7F424D",
"1  c #644A5A",
"2  c #734252",
"3  c #744C57",
"4  c #784E56",
"5  c #7A4D5F",
"6  c #535162",
"7  c #4B587E",
"8  c #684769",
"9  c #774162",
"0  c #6F4871",
"q  c #614E75",
"w  c #893756",
"e  c #8F3E59",
"r  c #883C54",
"t  c #933A5C",
"y  c #8E3C65",
"u  c #9F3D61",
"i  c #AF3D69",
"p  c #A73D64",
"a  c #B43D6D",
"s  c #82434E",
"d  c #89484E",
"f  c #94474D",
"g  c #95494D",
"h  c #9A4B4D",
"j  c #9D534F",
"k  c #834150",
"l  c #8D4353",
"z  c #814B59",
"x  c #944250",
"c  c #9C4058",
"v  c #9C5153",
"b  c #92565A",
"n  c #A14E4E",
"m  c #A3514F",
"M  c #AA594E",
"N  c #B25E4B",
"B  c #A64556",
"V  c #AE4D57",
"C  c #AB435E",
"Z  c #B3485E",
"A  c #B84C5E",
"S  c #AC5751",
"D  c #AF5951",
"F  c #A05C5B",
"G  c #B35656",
"H  c #B25B52",
"J  c #B4505D",
"K  c #BC664F",
"L  c #BD6A48",
"P  c #B66150",
"I  c #B96350",
"U  c #8F4962",
"Y  c #914B67",
"T  c #854973",
"R  c #A84361",
"E  c #B84761",
"W  c #B54865",
"Q  c #BA5E66",
"!  c #B64977",
"~  c #B7447B",
"^  c #C55F5A",
"/  c #CA5D5E",
"(  c #C26B4E",
")  c #C7714D",
"_  c #CA734D",
"`  c #CF784C",
"'  c #D77C47",
"]  c #D87D47",
"[  c #D37B4C",
"{  c #D87F4B",
"}  c #D4754B",
"|  c #C76055",
" . c #CB6057",
".. c #C56059",
"X. c #CD7E58",
"o. c #C05870",
"O. c #D07164",
"+. c #D9814A",
"@. c #DA8757",
"#. c #DC8957",
"$. c #D58159",
"%. c #D98558",
"&. c #057987",
"*. c #027C8A",
"=. c #087384",
"-. c #147D81",
";. c #0060A3",
":. c #485A80",
">. c #00818B",
",. c #018D8D",
"<. c #0C8E89",
"1. c #00938F",
"2. c #09968C",
"3. c #009090",
"4. c #009C92",
"5. c #149E93",
"6. c #219C93",
"7. c #01A392",
"8. c #00AD95",
"9. c #0CA794",
"0. c #00B297",
"q. c #00B798",
"w. c #00BC99",
"e. c #19BA9B",
"r. c #25A798",
"t. c #00C19A",
"y. c #0BC39B",
"u. c #0DC99D",
"i. c #12CD9F",
"p. c #16C79D",
"a. c #1BCEA0",
"s. c #1DD4A1",
"d. c #23D3A2",
"f. c #29D6A3",
"g. c #2FDAA5",
"h. c #26D8A3",
"j. c #34DCA5",
"k. c #3BDEA6",
"l. c #35E0A6",
"z. c #3EE0A7",
"x. c #3FE3A8",
"c. c #4DD0A4",
"v. c #45E3A9",
"b. c #4CE7AA",
"n. c #4DE8AB",
"m. c #53EAAC",
"M. c #5BEEAD",
"N. c #5EE4AB",
"B. c #5FF1AE",
"V. c #64ECAE",
"C. c #63F2AF",
"Z. c #69F2AF",
"A. c #67F4B0",
"S. c #6DF7B1",
"D. c #6EF8B1",
"F. c #71F9B2",
"G. c #F1CFDD",
"H. c #E3D2D3",
"J. c #EFD0DB",
"K. c #E8D5D3",
"L. c #F0D6D7",
"P. c #F5DDD4",
"I. c #F3D3DC",
"U. c #F7E1D3",
"Y. c #F8E1D3",
"T. c None",
/* pixels */
"S.S.S.S.S.S.S.S.S.S.S.S.S.S.S.S.S.S.S.S.S.S.S.S.S.S.S.F.S.S.S.S.S.S.S.S.",
"S.S.S.S.S.S.S.S.S.S.S.S.S.S.S.S.S.S.S.S.S.S.S.S.S.S.S.S.S.S.S.S.S.S.S.S.",
"S.S.S.S.S.S.S.S.S.S.S.S.F.S.S.S.S.S.S.S.S.S.S.S.S.S.S.S.S.S.S.S.S.S.S.S.",
"S.S.S.S.S.S.S.S.S.S.S.S.S.S.S.S.S.S.S.S.S.S.S.S.S.S.S.S.S.S.S.S.S.S.S.S.",
"S.S.S.S.S.S.S.S.S.S.S.S.S.S.S.S.S.S.Z.F.S.S.S.S.S.S.S.S.S.S.S.S.S.S.S.S.",
"S.S.S.S.S.S.S.S.S.S.S.S.S.S.S.S.S.S.F.F.S.S.S.S.S.S.S.S.S.S.S.S.D.S.S.S.",
"S.S.S.S.S.S.S.S.S.S.S.S.S.S.S.S.F.S.M.C.S.S.S.S.S.S.S.S.S.S.S.S.S.S.S.D.",
"S.S.S.S.S.S.S.S.S.S.S.S.S.S.S.S.S.B.i.v.F.S.S.S.S.S.S.S.S.S.S.S.S.S.S.D.",
"S.S.S.S.S.S.S.S.S.S.S.S.S.S.S.F.m.f.z.M.S.S.S.S.F.S.z.z.S.S.S.S.D.D.D.F.",
"S.S.S.S.F.S.S.F.S.S.S.S.S.S.F.F.k.u.C.S.S.S.S.S.Z.b.g.z.S.S.S.S.D.D.B.v.",
"S.S.S.S.C.C.S.V.Z.F.S.S.F.Z.C.C.j.y.m.S.S.S.S.S.n.u.z.C.S.S.S.Z.B.V.k.w.",
"S.S.S.S.f.z.N.6.c.F.S.S.F.B.p.i.9.,.p.b.F.F.F.v.i.t.y.j.S.S.S.B.a.5.5.w.",
"F.n.j.g.u.e.r.*.e.l.j.j.j.d.t.t.7.>.q.d.j.j.j.e.3.4.0.i.j.j.l.h.t.,.*.4.",
"m.d.q.0.0.<.# $ 2.q.t.t.t.w.t.q.<.% 7.0.q.t.t.4.=.$ 2.0.0.8.8.0.8.-.- # ",
"y.t.8.&.*.= 2 2 ; 1.w.w.w.w.q.1.O 1 % &.<.q.t.4.$ 1 : *.&.&.&.&.=.6 2 2 ",
",.1.& > > 3 m m 3 * ,.1.,.1.,.= 4 v T 8 O ,.1.- 1 v Y 0 > > > > > y C m ",
"7 :.q t f M K H n 5 7 @ X X @ 9 B H E B 3 o + , h H A C f f f f f C J H ",
"a a a a G ) [ I H J i r < < r p W H H I M d s j P P P H P P P H H H H S ",
"G G G G _ [ [ [ K H G S M M S S H H ` [ [ _ _ ` [ ` [ [ ` [ K H D W u s ",
"( _ _ _ [ { { { _ ) ) _ _ ( _ _ ) _ { ` ( ( ( ../ { +.{ +.+...C l e w   ",
"] ' ' ] ' ' ' ' ' ' ' ' ' ' ' ' ] } L P S V m c p | } ' ' '  .Z f l w w ",
"#.@.@.@.@.@.@.@.#.#.@.#.@.@.#.@.#.X.b F Q ! l z U ! O.#.@.@.%.%.$.o.~ ~ ",
"Y.Y.Y.Y.Y.Y.Y.Y.U.U.U.U.Y.Y.Y.Y.Y.P.H.K.L.J.H.H.H.J.P.Y.Y.Y.U.Y.Y.I.G.I.",
"U.U.U.U.U.U.U.U.U.U.U.U.U.U.U.Y.Y.U.H.H.H.H.H.H.H.H.P.U.U.U.U.U.U.G.G.G.",
";.;.;.;.;.;.;.;.;.;.;.;.;.;.;.;.;.;.;.;.;.;.;.;.;.;.;.;.;.;.;.;.;.;.;.;.",
";.;.;.;.;.;.;.;.;.;.;.;.;.;.;.;.;.;.;.;.;.;.;.;.;.;.;.;.;.;.;.;.;.;.;.;.",
";.;.;.;.;.;.;.;.;.;.;.;.;.;.;.;.;.;.;.;.;.;.;.;.;.;.;.;.;.;.;.;.;.;.;.;.",
";.;.;.;.;.;.;.;.;.;.;.;.;.;.;.;.;.;.;.;.;.;.;.;.;.;.;.;.;.;.;.;.;.;.;.;.",
";.;.;.;.;.;.;.;.;.;.;.;.;.;.;.;.T.T.T.T.T.T.T.T.T.T.T.T.T.T.T.;.;.;.;.;.",
";.;.;.T.T.T.T.T.T.T.T.T.;.;.;.;.;.;.;.;.;.T.T.T.T.T.;.;.;.;.;.;.;.;.;.;.",
";.;.;.T.T.T.T.T.T.T.T.T.;.;.;.;.;.;.;.;.;.T.T.T.T.T.;.;.;.;.;.;.;.;.;.;.",
"T.T.T.T.T.T.T.T.T.T.T.T.T.T.T.T.T.T.T.T.T.T.T.T.T.T.T.T.T.T.T.T.T.T.T.T.",
"T.T.T.T.T.T.T.T.T.T.T.T.T.T.T.T.T.T.T.T.T.T.T.T.T.T.T.T.T.T.T.T.T.T.T.T.",
"T.T.T.T.T.T.T.T.T.T.T.T.T.T.T.T.T.T.T.T.T.T.T.T.T.T.T.T.T.T.T.T.T.T.T.T.",
"T.T.T.T.T.T.T.T.T.T.T.T.T.T.T.T.T.T.T.T.T.T.T.T.T.T.T.T.T.T.T.T.T.T.T.T.",
"T.T.T.T.T.T.T.T.T.T.T.T.T.T.T.T.T.T.T.T.T.T.T.T.T.T.T.T.T.T.T.T.T.T.T.T."
};
