/* XPM */
static char *result[] = {
/* columns rows colors chars-per-pixel */
"36 36 18 1 ",
"  c #11596E",
". c #125A6F",
"X c #2EAB73",
"o c #2FAD73",
"O c #31A975",
"+ c #30B173",
"@ c #1C8C82",
"# c #61D58A",
"$ c #62D58B",
"% c #62D68B",
"& c #63D78B",
"* c #64D88C",
"= c #65D88C",
"- c #69DA8F",
"; c #ABF4B5",
": c #B1F6B8",
"> c white",
", c None",
/* pixels */
",,,,,,,,,,,,,,,,,,,,,,,,,,,,,,,,,,,,",
",,,,,,,,,,,,,,,,,,,,,,,,,,,,,,,,,,,,",
",,,,,,,,,,,,,,,,,,,,,,,,,,,,,,,,,,,,",
",,,,,,,,,,,,,,,,,,,,,,,,,,,,,,,,,,,,",
",,,,,,,,,,,,,,,,,,,,,,,,,,,,,,,,,,,,",
",,,,,,,,,,,,,,,,,,,,,,,,,,,,,,,,,,,,",
",,,,,,,,,,,,,,,,,,,,,,,,,,,,,,,,,,,,",
",,,,,,,,,,,,,,,,,,,,,,,,,,,,,,,,,,,,",
",,,,,,,,,,,,,,,,,,,,,,,,,,,,,,,,,,,,",
",,,,,,,,,,,,,,,,,,,,,,,,,,,,,,,,,,,,",
",,,,,,,,,,,,,,,,,,,,,,,,,,,,,,,,,,,,",
",,,,,,,,,,,,,,,,,,,,,,,,,,,,,,,,,,,,",
",,,,,,,,,,,,,,,,,,,,,,,,,,,,,,,,,,,,",
",,,,,,,,,,,,,,        ,,,,,,,,,,,,,,",
",,,,,,,,,,    -*******    ,,,,,,,,,,",
",,,,,,,,, *****:********** ,,,,,,,,,",
",,,,,,,, *:***************+ ,,,,,,,,",
",,,,,,, +***:**************+ ,,,,,,,",
",,,,,, +**  *************:*++ ,,,,,,",
",,,,, X** >>.**    *******:*++ ,,,,,",
",,,,, o** >> ** >> *******;*++ ,,,,,",
",,,,, **%+  +**+  +********:*+ ,,,,,",
",,,,, ********************=**+ ,,,,,",
",,,,, *** ***  :   * ********+ ,,,,,",
",,,,, ** @ * @@ @@ :  *******+ ,,,,,",
",,,,, %* @ : @++++ :  ****+**+ ,,,,,",
",,,,, #* @ : @++++@ @ ***+++*+ ,,,,,",
",,,,, &* @ : @+  +++@ $***+*++ ,,,,,",
",,,, +&** +*+  :*    +&*+**++++ ,,,,",
",,, +++**+***++**++++*****++   + ,,,",
",,,  +  O*************++  + :*+  ,,,",
",, +*+++++**::::::*:*+++++++++++* ,,",
",,                                ,,",
",,,,,,,,,,,,,,,,,,,,,,,,,,,,,,,,,,,,",
",,,,,,,,,,,,,,,,,,,,,,,,,,,,,,,,,,,,",
",,,,,,,,,,,,,,,,,,,,,,,,,,,,,,,,,,,,"
};
