/* XPM */
static char *result[] = {
/* columns rows colors chars-per-pixel */
"36 36 23 1 ",
"  c #11596E",
". c #125C6E",
"X c #228871",
"o c #228971",
"O c #228A71",
"+ c #299D72",
"@ c #349779",
"# c #2CA472",
"$ c #2CA772",
"% c #30B173",
"& c #31B273",
"* c #47C27E",
"= c #48C37F",
"- c #1C8C82",
"; c #63D78B",
": c #63D68C",
"> c #63D78C",
", c #64D88C",
"< c #67D98E",
"1 c #A8F3B3",
"2 c #B1F6B8",
"3 c white",
"4 c None",
/* pixels */
"444444444444444444444444444444444444",
"444444444444444444444444444444444444",
"444444444444444444444444444444444444",
"444444444444444444444444444444444444",
"444444444444444444444444444444444444",
"444444444444444444444444444444444444",
"444444444444444444444444444444444444",
"444444444444444444444444444444444444",
"444444444444444444444444444444444444",
"444444444444444444444444444444444444",
"444444444444444444444444444444444444",
"444444444444444444444444444444444444",
"444444444444444444444444444444444444",
"444444444444444444444444444444444444",
"4444444444444          4444444444444",
"444444444    ,,,,,,,,,,    444444444",
"44444444 ,,,,,2,,,,,,,,,,,, 44444444",
"4444444 ,22,,,,,,,,,,,,,,,,% 4444444",
"444444 %,,,,2,,,,,,,,,,,,<,,% 444444",
"44444 %,,   ,,,,,,,,,,,,,2,,%% 44444",
"4444 %,, 333 ,,     ,,,,,,,2,%% 4444",
"4444 %,: 333 ,, 333 ,,,,,,,2,%% 4444",
"4444 ,,;%   %,,%   %,,,,,,,,2,% 4444",
"4444 ,,,,,,,,,,,,,,,,,,,,,,,,,% 4444",
"4444 ,,,  ,,,  2    , ,,,,,,,,% 4444",
"4444 ,, -% 2 -- --- 2  ,,,,%>,% 4444",
"4444 ,, -% 2 -%%%%% 2  ,,,%%%,% 4444",
"4444 ,, -% 2 -%%  %- - ,,,,%,,% 4444",
"444 %,,%  %,%   2,    %,,%,,%%%% 444",
"44 %%&,,%%,,,%%%,,%%%%,,,,,%%.  % 44",
"44  %   ,,,,,,,,,,,,,,,$#  % 1,%  44",
"4 %,%%%%%%,2222222,2,%%Xo,+Oo=*%@, 4",
"4                                  4",
"444444444444444444444444444444444444",
"444444444444444444444444444444444444",
"444444444444444444444444444444444444"
};
