/* XPM */
static char *result[] = {
/* columns rows colors chars-per-pixel */
"36 36 15 1 ",
"  c #11596E",
". c #115A6E",
"X c #125A6E",
"o c #1F8070",
"O c #1F8170",
"+ c #2E8B78",
"@ c #30B173",
"# c #43BF7C",
"$ c #1C8C82",
"% c #62D78B",
"& c #63D78C",
"* c #64D88C",
"= c #B1F6B8",
"- c white",
"; c None",
/* pixels */
";;;;;;;;;;;;;;;;;;;;;;;;;;;;;;;;;;;;",
";;;;;;;;;;;;;;;;;;;;;;;;;;;;;;;;;;;;",
";;;;;;;;;;;;;;;;;;;;;;;;;;;;;;;;;;;;",
";;;;;;;;;;;;;;;;;;;;;;;;;;;;;;;;;;;;",
";;;;;;;;;;;;;;;;;;;;;;;;;;;;;;;;;;;;",
";;;;;;;;;;;;;;;;;;;;;;;;;;;;;;;;;;;;",
";;;;;;;;;;;;;;;;;;;;;;;;;;;;;;;;;;;;",
";;;;;;;;;;;;;;;;;;;;;;;;;;;;;;;;;;;;",
";;;;;;;;;;;;;;;;;;;;;;;;;;;;;;;;;;;;",
";;;;;;;;;;;;;;;;;;;;;;;;;;;;;;;;;;;;",
";;;;;;;;;;;;;;;;;;;;;;;;;;;;;;;;;;;;",
";;;;;;;;;;;;;;;;;;;;;;;;;;;;;;;;;;;;",
";;;;;;;;;;;;;;;;;;;;;;;;;;;;;;;;;;;;",
";;;;;;;;;;;;;;;;;;;;;;;;;;;;;;;;;;;;",
";;;;;;;;;;;;;;;;;;;;;;;;;;;;;;;;;;;;",
";;;;;;;;;;;;;;;;;;;;;;;;;;;;;;;;;;;;",
";;;;;;;;;;;;            ;;;;;;;;;;;;",
";;;;;;;;    ************    ;;;;;;;;",
";;;;;;; *****=*************# ;;;;;;;",
";;;;;; *==******************@ ;;;;;;",
";;;;; @***=***************=**@ ;;;;;",
";;;; @**   X****************=@@ ;;;;",
";;; @** ----.**      *******=*@@ ;;;",
";;; @**@    @**      *********@@ ;;;",
";;; ************************=*&@ ;;;",
";;; ***   ***   =    = ********@ ;;;",
";;; ** $$$ = $$$ $$$  $ ****@**@ ;;;",
";;; ** $@@ = $@@@@@@$ $ ***@@@*@ ;;;",
";; @** $@@ * $@@@  @@@$ **@*@*@@@ ;;",
"; @@@*@   @*@    =*    @*****@   @ ;",
";  @   ****%*@@@@**@@@@***  @ =*@  ;",
"; *@@@@@**==========*=*@@@*@oO@@@+* ",
"                                    ",
";;;;;;;;;;;;;;;;;;;;;;;;;;;;;;;;;;;;",
";;;;;;;;;;;;;;;;;;;;;;;;;;;;;;;;;;;;",
";;;;;;;;;;;;;;;;;;;;;;;;;;;;;;;;;;;;"
};
