/* XPM */
static char *result[] = {
/* columns rows colors chars-per-pixel */
"36 36 15 1 ",
"  c #11596E",
". c #30B073",
"X c #30B173",
"o c #32B374",
"O c #1C8C82",
"+ c #60D58A",
"@ c #62D78B",
"# c #64D78C",
"$ c #64D88C",
"% c #65D88D",
"& c #68D98E",
"* c #ABF4B5",
"= c #B1F6B8",
"- c white",
"; c None",
/* pixels */
";;;;;;;;;;;;;;;;;;;;;;;;;;;;;;;;;;;;",
";;;;;;;;;;;;;;;;;;;;;;;;;;;;;;;;;;;;",
";;;;;;;;;;;;;;;;;;;;;;;;;;;;;;;;;;;;",
";;;;;;;;;;;;;;;;;;;;;;;;;;;;;;;;;;;;",
";;;;;;;;;;;;;;;;;;;;;;;;;;;;;;;;;;;;",
";;;;;;;;;;;;;;;;;;;;;;;;;;;;;;;;;;;;",
";;;;;;;;;;;;;;;;;;;;;;;;;;;;;;;;;;;;",
";;;;;;;;;;;;;;;;;;;;;;;;;;;;;;;;;;;;",
";;;;;;;;;;;;;;;;;;;;;;;;;;;;;;;;;;;;",
";;;;;;;;;;;;;;;;;;;;;;;;;;;;;;;;;;;;",
";;;;;;;;;;;;;;;;;;;;;;;;;;;;;;;;;;;;",
";;;;;;;;;;;;;;;;;;;;;;;;;;;;;;;;;;;;",
";;;;;;;;;;;;;;;;;;;;;;;;;;;;;;;;;;;;",
";;;;;;;;;;;;;;;;;;;;;;;;;;;;;;;;;;;;",
";;;;;;;;;;;;;;;;;;;;;;;;;;;;;;;;;;;;",
";;;;;;;;;;;;;          ;;;;;;;;;;;;;",
";;;;;;;;;    %$$$$$$$$$    ;;;;;;;;;",
";;;;;;;; #$$$$=$$$$$$$$$$$$ ;;;;;;;;",
";;;;;;; $=$$$$$$$$$$$$$$$$$X ;;;;;;;",
";;;;;; X$$$=$$$$$$$$$$$$$$=$X ;;;;;;",
";;;;; X$$   $$$$$$$$$$$$$$$$oX ;;;;;",
";;;; X$$ --- $$     $$$$$$$=$XX ;;;;",
";;;; X$$ --- $$ --- $$$$$$$$$XX ;;;;",
";;;; $$$X   X$$X   X$$$$$$$=&$X ;;;;",
";;;; $$$$$$$$$$$$$$$$$$$$$$$$$X ;;;;",
";;;; $$$  $$$  =    $ $$$$$X$$X ;;;;",
";;;; $$ OO = OO OOO =  $$$XXX$X ;;;;",
";;;; $$ OX = OXXXXXO O $$$$X$+X ;;;;",
";;; X$$ OX $ OXX  XXXO $$X$$$XXX ;;;",
";; .XX$X  X$$   =$    X$$@$XX   X ;;",
";;  X   XX$$$XXX$$XXXX$XX  X *$X  ;;",
";; $XXXXX$$========$=$XXX$XXXXXXX$ ;",
";                                  ;",
";;;;;;;;;;;;;;;;;;;;;;;;;;;;;;;;;;;;",
";;;;;;;;;;;;;;;;;;;;;;;;;;;;;;;;;;;;",
";;;;;;;;;;;;;;;;;;;;;;;;;;;;;;;;;;;;"
};
