/* XPM */
static char *result[] = {
/* columns rows colors chars-per-pixel */
"36 36 20 1 ",
"  c #11596E",
". c #115A6E",
"X c #115B6F",
"o c #135B6F",
"O c #125C6F",
"+ c #155D70",
"@ c #15606F",
"# c #30B173",
"$ c #1C8C82",
"% c #61D58A",
"& c #61D68A",
"* c #61D68B",
"= c #62D68B",
"- c #63D78B",
"; c #63D78C",
": c #63D88C",
"> c #64D88C",
", c #B1F6B8",
"< c white",
"1 c None",
/* pixels */
"111111111111111111111111111111111111",
"111111111111111111111111111111111111",
"111111111111111111111111111111111111",
"111111111111111111111111111111111111",
"111111111111111111111111111111111111",
"111111111111111111111111111111111111",
"111111111111111111111111111111111111",
"111111111111111111111111111111111111",
"111111111111111111111111111111111111",
"111111111111111111111111111111111111",
"111111111111111111111111111111111111",
"111111111111111111111111111111111111",
"111111111111111111111111111111111111",
"11111111111111        11111111111111",
"1111111111    >>>>>>>>    1111111111",
"111111111 >>>>>,>>>>>>>>>> 111111111",
"11111111 >,>>>>>>>>>>>>>>># 11111111",
"1111111 #>,>,>>>>>>>>>>>>,># 1111111",
"111111 #>>  >>>>>>>>>>>>>>>## 111111",
"11111 #>> << >>    >>>>>>>,>## 11111",
"11111 #>> << >> << >>>>>>>,>## 11111",
"11111 >>=#  #>>#  #>>>>>>>>>># 11111",
"11111 *>>:;>>>>>>>>>>>>>>>,>># 11111",
"11111 *>>.>>> ,,XOo> >>>>>>>># 11111",
"11111 >> $ > $  $$ >  >>>>>>># 11111",
"11111 => # , $####o,  >>>>#>># 11111",
"11111 %> # , $####+,  >>>###># 11111",
"11111 -> # , $#  #$ $ >>&>#>># 11111",
"1111 #-># #>#  ,>    #->#>>#### 1111",
"111 ###>>#>>>##>>####>>>>>##   # 111",
"111 @#   >>>>>>>>>>>>>>#  # ,>#  111",
"111 >#####>>,,,,,,>,>###>#######> 11",
"11                                11",
"111111111111111111111111111111111111",
"111111111111111111111111111111111111",
"111111111111111111111111111111111111"
};
