/* XPM */
static char *result[] = {
/* columns rows colors chars-per-pixel */
"36 36 14 1 ",
"  c #11596E",
". c #30B173",
"X c #1C8C82",
"o c #1C8D82",
"O c #62D58B",
"+ c #62D68B",
"@ c #63D78B",
"# c #63D78C",
"$ c #64D78C",
"% c #64D88C",
"& c #6ADA8F",
"* c #B1F6B8",
"= c white",
"- c None",
/* pixels */
"------------------------------------",
"------------------------------------",
"------------------------------------",
"------------------------------------",
"------------------------------------",
"------------------------------------",
"------------------------------------",
"------------------------------------",
"------------------------------------",
"------------------------------------",
"------------------------------------",
"---------------      ---------------",
"-----------    %%%%%%    -----------",
"---------- %%%%*%%%%%%%%% ----------",
"--------- %*%%%%%%%%%%%%%. ---------",
"-------- .%*%%%%%%%%%%%%%%. --------",
"------- .%% %*%%%%%%%%%%*%.. -------",
"------ .%% = %%   %%%%%%%*%.. ------",
"------ .%% = %% = %%%%%%%*%.. ------",
"------ .%% = %% = %%%%%%%&%.. ------",
"------ %%%. .%%. .%%%%%%%*%%. ------",
"------ %%%%%%%%%%%%%%%%%%%%%. ------",
"------ %% O%% *%  O %%%%%%%%. ------",
"------ % X % X  X O  %%%%%%%. ------",
"------ % . * X... *  %%%%%%%. ------",
"------ @ . * X... *  %%%%.%%. ------",
"------ # . * o...X X %%#...%. ------",
"----- .% . * X.  ... %%%%.%... -----",
"----- .#. .%.  *%   .%%.%+.... -----",
"---- ...%.%%%..%%...OO%$%..   . ----",
"----  .  %%%%%%%%%%%%%.  . *%.  ----",
"---- %.....%%****%*%...%.......% ---",
"---                              ---",
"------------------------------------",
"------------------------------------",
"------------------------------------"
};
