/* XPM */
static char *result[] = {
/* columns rows colors chars-per-pixel */
"36 36 15 1 ",
"  c #11596E",
". c #115B6F",
"X c #2FAD73",
"o c #30B173",
"O c #3CB17A",
"+ c #1C8C82",
"@ c #61D48B",
"# c #63D78B",
"$ c #64D88C",
"% c #66D98D",
"& c #6ADA8F",
"* c #B1F6B8",
"= c #FCFDFD",
"- c white",
"; c None",
/* pixels */
";;;;;;;;;;;;;;;;;;;;;;;;;;;;;;;;;;;;",
";;;;;;;;;;;;;;;;;;;;;;;;;;;;;;;;;;;;",
";;;;;;;;;;;;;;;;;;;;;;;;;;;;;;;;;;;;",
";;;;;;;;;;;;;;;;;;;;;;;;;;;;;;;;;;;;",
";;;;;;;;;;;;;;;;;;;;;;;;;;;;;;;;;;;;",
";;;;;;;;;;;;;;;;;;;;;;;;;;;;;;;;;;;;",
";;;;;;;;;;;;;;;;;;;;;;;;;;;;;;;;;;;;",
";;;;;;;;;;;;;;;;;;;;;;;;;;;;;;;;;;;;",
";;;;;;;;;;;;;;;;;;;;;;;;;;;;;;;;;;;;",
";;;;;;;;;;;;;;;;    ;;;;;;;;;;;;;;;;",
";;;;;;;;;;;;;   $$$$   ;;;;;;;;;;;;;",
";;;;;;;;;;;  $$$*$$$$$$  ;;;;;;;;;;;",
";;;;;;;;;; $*$$$$$$$$$$$o ;;;;;;;;;;",
";;;;;;;;; o$*$%$$$$$$$$$$o ;;;;;;;;;",
";;;;;;;; o$$$$*$$$$$$$$*$oo ;;;;;;;;",
";;;;;;; o$   $$   $$$$$%*$oo ;;;;;;;",
";;;;;;; o$ - $$ = $$$$$&*$oo ;;;;;;;",
";;;;;;; o$ - $$ - $$$$$$$$oo ;;;;;;;",
";;;;;; o$$ - $$ - $$$$$$*$$o ;;;;;;;",
";;;;;; o$$o o$$o o$$$$$$$$$o ;;;;;;;",
";;;;;; o$$$$$$$$$$$$$$$$$$$o ;;;;;;;",
";;;;;; o$ $$@ *$  $ $$$$$$$o ;;;;;;;",
";;;;;; o + $ +  + $  $$$$$$o ;;;;;;;",
";;;;;; o o * +ooo *  $$$$$$o ;;;;;;;",
";;;;;; o o * +ooo *  $$$$$$o ;;;;;;;",
";;;;;; o o * +ooo+ + $$$o$$o ;;;;;;;",
";;;;;; o o * +ooooo+ $$ooo#o ;;;;;;;",
";;;;;; o o $ +o  oo+ $$$o$ooo ;;;;;;",
";;;;;; oX.o$o  *$   o$o$$oooo ;;;;;;",
";;;;; oooo$$$oo$$ooo$$$$oo   o ;;;;;",
";;;;;  o  $$$$$$$$$$Oo  o *$o  ;;;;;",
";;;;; $ooooo$$**$*$ooo$ooooooo$ ;;;;",
";;;;                            ;;;;",
";;;;;;;;;;;;;;;;;;;;;;;;;;;;;;;;;;;;",
";;;;;;;;;;;;;;;;;;;;;;;;;;;;;;;;;;;;",
";;;;;;;;;;;;;;;;;;;;;;;;;;;;;;;;;;;;"
};
