/* XPM */
static char *result[] = {
/* columns rows colors chars-per-pixel */
"36 36 16 1 ",
"  c #11596E",
". c #115A6E",
"X c #115A6F",
"o c #125D70",
"O c #30B173",
"+ c #31B274",
"@ c #1C8C82",
"# c #62D58B",
"$ c #62D68B",
"% c #63D78C",
"& c #64D78C",
"* c #64D88C",
"= c #66D98D",
"- c #B1F6B8",
"; c white",
": c None",
/* pixels */
"::::::::::::::::::::::::::::::::::::",
"::::::::::::::::::::::::::::::::::::",
"::::::::::::::::::::::::::::::::::::",
"::::::::::::::::::::::::::::::::::::",
"::::::::::::::::::::::::::::::::::::",
"::::::::::::::::::::::::::::::::::::",
"::::::::::::::::::::::::::::::::::::",
"::::::::::::::::::::::::::::::::::::",
"::::::::::::::::::::::::::::::::::::",
"::::::::::::::::::::::::::::::::::::",
":::::::::::::::      :::::::::::::::",
":::::::::::    ******    :::::::::::",
":::::::::: *****-******** ::::::::::",
"::::::::: *-=************* :::::::::",
":::::::: O*-**************O ::::::::",
"::::::: O** *-**********-*OO :::::::",
":::::: O** ; **   *******-*OO ::::::",
":::::: O** ; ** ; *******-*+O ::::::",
":::::: O** ; ** ; **********O ::::::",
":::::: ***O O**O O*******-=*OO :::::",
":::::: *********************OO :::::",
":::::: ** ***   . # ********OO :::::",
":::::: * @ * @  @ *  *******OO :::::",
":::::: * O - @OOO -  *******OO :::::",
":::::: *XO - @OOO -  ****O**OO :::::",
":::::: *.O - @OOO@ @ **%OOO*OO :::::",
"::::: O* O - @OO OOO ****O**OO :::::",
"::::: O%OoO*O   -   O**O*$OOOO :::::",
":::: OOO*O***OOO*OOO***&*OO   O ::::",
"::::  O  *************O  O -*O  ::::",
":::: *OOOOO**----*-*OOO*OOOOOOO* :::",
":::                              :::",
"::::::::::::::::::::::::::::::::::::",
"::::::::::::::::::::::::::::::::::::",
"::::::::::::::::::::::::::::::::::::",
"::::::::::::::::::::::::::::::::::::"
};
