/* XPM */
static char *result[] = {
/* columns rows colors chars-per-pixel */
"36 36 17 1 ",
"  c #1B192C",
". c #016024",
"X c #9D144C",
"o c #CD2C46",
"O c #E54949",
"+ c #238706",
"@ c #71A116",
"# c #72A116",
"$ c #73A217",
"% c #72A516",
"& c #76A517",
"* c #78A518",
"= c #A5CD40",
"- c #A7CF42",
"; c #A8CF42",
": c white",
"> c None",
/* pixels */
">>>>>>>>>>>>>>>>>>>>>>>>>>>>>>>>>>>>",
">>>>>>>>>>>>>>>>>>>>>>>>>>>>>>>>>>>>",
">>>>>>>>>>>>>>>>>>>>>>>>>>>>>>>>>>>>",
">>>>    >>>>         >>>       >>>>>",
">>> OOOO >> $$$$$$$$$ > $$$$$$$ >>>>",
">>> OOOOO > $$$$$$$$$ > $$$$$$$ >>>>",
">>> oooooX                      >>>>",
">>>>   XX XoOOOOooOooooooOoOOOOO >>>",
">>> ooX   XoOOOOooOooooooOoOOOOO >>>",
">>> OOo     XXXXooXooooooXoXXXX  >>>",
">>> OOo XXXooooooooooooooooooooo >>>",
">>> OOo                          >>>",
">>> OOo ++++++.::::::.+.::::::.++ >>",
">>> OO  ++++++.::::::.+.::::::.++ >>",
">>>>   +$$$$$$+......+$+......+$$ >>",
">>>>>> $$$$$$$$$$$$$$$$$$$$$$$$$$ >>",
">>>>>> $$$$$$$$$$$$$$$$$$$$$$$$$$ >>",
">>>>>> $$$$$$$................$$$ >>",
">>>>>> $$$$$$+$$$$$$$$$$$$$$$$+$$ >>",
">>>>>> $$$$$$$$$$$$+++++++$$$$$$$ >>",
">>>>>> $$$$$$$$$$$$$$$$$$$$$$$$$$ >>",
">>>>>>> +$$$$$$$$$$$$$$$$$$$$$$$ >>>",
">>>>>>>> +$$$$$$$$$$$$$$$$$$$$+ >>>>",
">>>>>>>>> ++$&$$#@@@@@@@@#$+++ >>>>>",
">>>>>>>>    $$$$$$$$$$$$$$$     >>>>",
">>>>>>> $$$$$$$$==========$$$ ++ >>>",
">>>>>> +$$$$$ $============$$ +++ >>",
">>>>>> +$$$+ $$=;=========-$$ +++ >>",
">>>>>> ++++ $$$============$$ +++ >>",
">>>>>>>    +$&$============$$ +++ >>",
">>>>>>>>>> +$*$$==========$$$    >>>",
">>>>>>>>>> +$%$           $$$ >>>>>>",
">>>>>>>>>> +$$$ >>>>>>> ++$$$ >>>>>>",
">>>>>>>>>> +$$+ >>>>>>> ++$$+ >>>>>>",
">>>>>>>>>> +++ >>>>>>>> ++++ >>>>>>>",
">>>>>>>>>>>   >>>>>>>>>>    >>>>>>>>"
};
