/* XPM */
static char *result[] = {
/* columns rows colors chars-per-pixel */
"36 36 15 1 ",
"  c #1B192C",
". c #016024",
"X c #9D144C",
"o c #CD2C46",
"O c #E54949",
"+ c #238706",
"@ c #30840C",
"# c #73A217",
"$ c #73A317",
"% c #72A516",
"& c #78A518",
"* c #A5CD40",
"= c #A7CF42",
"- c white",
"; c None",
/* pixels */
";;;;;;;;;;;;;;;;;;;;;;;;;;;;;;;;;;;;",
";;;;;;;;;;;;;;;;;;;;;;;;;;;;;;;;;;;;",
";;;;    ;;;;         ;;;       ;;;;;",
";;; OOOO ;; ######### ; ####### ;;;;",
";;; OOOOO ; ######### ; ####### ;;;;",
";;; ooooX                       ;;;;",
";;;;   X XXoOOOOooOooooooOoOOOOO ;;;",
";;; ooX     XXXXooXooooooXoXXXX  ;;;",
";;; OOo XXXooooooooooooooooooooo ;;;",
";;; OOo XXXooooooooooooooooooooo ;;;",
";;; OOo                          ;;;",
";;; OOo ++++++.------.+.------.++ ;;",
";;;;    ++++++.------.+.------.++ ;;",
";;;;;; @######+......+#+......+## ;;",
";;;;;; ########################## ;;",
";;;;;; #######................### ;;",
";;;;;; ######+################+## ;;",
";;;;;; ############+++++++####### ;;",
";;;;;; ########################## ;;",
";;;;;; ########################## ;;",
";;;;;;; +######################+ ;;;",
";;;;;;;; +####################+ ;;;;",
";;;;;;;;; ++###############+++ ;;;;;",
";;;;;;;;;   ###############   ;;;;;;",
";;;;;;;; #######**********###   ;;;;",
";;;;;;; ##$$###************## ++ ;;;",
";;;;;;; #######*=**********## ++ ;;;",
";;;;;;; ###+ ##*=**********## ++ ;;;",
";;;;;;; +++ ###************## ++ ;;;",
";;;;;;;;   +####**********###   ;;;;",
";;;;;;;;;; +#&##**********### ;;;;;;",
";;;;;;;;;; +#%#           ### ;;;;;;",
";;;;;;;;;; +### ;;;;;;;; +### ;;;;;;",
";;;;;;;;;; +##+ ;;;;;;;; +##+ ;;;;;;",
";;;;;;;;;; +++ ;;;;;;;;; +++ ;;;;;;;",
";;;;;;;;;;;   ;;;;;;;;;;;   ;;;;;;;;"
};
