/* XPM */
static char *result[] = {
/* columns rows colors chars-per-pixel */
"36 36 22 1 ",
"  c #12172A",
". c #1B192C",
"X c #016024",
"o c #9D144C",
"O c #CD2C46",
"+ c #E54949",
"@ c #238706",
"# c #71A217",
"$ c #73A217",
"% c #74A217",
"& c #75A217",
"* c #74A417",
"= c #74A318",
"- c #75A318",
"; c #76A318",
": c #A5CD40",
"> c #A7CE41",
", c #A7CF41",
"< c #A7CF42",
"1 c #A8CF42",
"2 c white",
"3 c None",
/* pixels */
"3333333 3333.........333.......33333",
"3333.....33.$$$$$$$$$.3.$$$$$$$.3333",
"333.+++++.3.$$$$$$$$$.3.$$$$$$$.3333",
"333.+++++o......................3333",
"333.OOOOo.oO++++OO+OOOOOO+O+++++.333",
"3333...o..oO++++OO+OOOOOO+O+++++.333",
"333.OOo.....ooooOOoOOOOOOoOooo...333",
"333.++O.oooOOOOOOOOOOOOOOOOOOOOO.333",
"333.++O..........................333",
"333.++O.@@@@@@X222222X@X222222X@@.33",
"333.++..@@@@@@X222222X@X222222X@@.33",
"3333...@$$$$$$@XXXXXX@$@XXXXXX@$$.33",
"333333.$$$$$$$$$$$$$$$$$$$$$$$$$$.33",
"333333.$$$$$$$$$$$$$$$$$$$$$$$$$$.33",
"333333.$$$$$$$XXXXXXXXXXXXXXXX$$$.33",
"333333.$$$$$$@$$$$$$$$$$$$$$$$@$$.33",
"333333.$$$$$$$$$$$$@@@@@@@$$$$$$$.33",
"333333.$$$$$$$$$$$$$$$$$$$$$$$$$$.33",
"333333.@$$$$$$$$$$$$$$$$$$$$$$$@.333",
"3333333.@$$$$$$$$$$$$$$$$;%$$$@.3333",
"33333333.@@@$$$$$$$$$$$$$$$@@@.33333",
"333333333...$$$$=-------$$$...333333",
"333333333.$$$*$$::::::::::$$$..33333",
"33333333.$$$$$$$:1,,,,,,1:$$$.@.3333",
"3333333.$$#$$$$::::::::::::$$.@@.333",
"333333.@$$$$@.$::::::::::::$$.@@@.33",
"333333.@$$$@.$$:>::::::::::$$.@@@.33",
"333333.@@@@.$$$:<::::::::::$$.@@@.33",
"3333333....@$&$::::::::::::$$....333",
"3333333333.@$$$$::::::::::$$$.333333",
"3333333333.@$$$$::::::::::$$$.333333",
"3333333333.@$$$...........$$$.333333",
"3333333333.@$$$.3333333.@@$$$.333333",
"3333333333.@$$@.3333333.@@$@.3333333",
"3333333333.@@@.33333333.@@@.33333333",
"33333333333...3333333333...333333333"
};
