/* XPM */
static char *result[] = {
/* columns rows colors chars-per-pixel */
"36 36 15 1 ",
"  c #1B192C",
". c #016024",
"X c #9D144C",
"o c #CD2C46",
"O c #E54949",
"+ c #238706",
"@ c #3C860F",
"# c #71A117",
"$ c #73A217",
"% c #75A217",
"& c #72A516",
"* c #76A31B",
"= c #A5CD40",
"- c white",
"; c None",
/* pixels */
";;;;;;;;;;;;;;;;;;;;;;;;;;;;;;;;;;;;",
";;;;;;;;;;;;;;;;;;;;;;;;;;;;;;;;;;;;",
";;;;    ;;;;         ;;;       ;;;;;",
";;; OOOO ;; $$$$$$$$$ ; $$$$$$$ ;;;;",
";;; OOOOO ; $$$$$$$$$ ; $$$$$$$ ;;;;",
";;; oooooX                      ;;;;",
";;;;   XX XoOOOOooOooooooOoOOOOO ;;;",
";;; ooX     XXXXooXooooooXoXXXX  ;;;",
";;; OOo XXXooooooooooooooooooooo ;;;",
";;; OOo XXXooooooooooooooooooooo ;;;",
";;; OOo                          ;;;",
";;; OO  ++++++.------.+.------.++ ;;",
";;;;   +++++++.------.+.------.++ ;;",
";;;;;; $$$$$$$+......+$+......+$$ ;;",
";;;;;; $$$$$$$$$$$$$$$$$$$$$$$$$$ ;;",
";;;;;; $$$$$$$$$$$$$$$$$$$$$$$$$$ ;;",
";;;;;; $$$$$$$................$$$ ;;",
";;;;;; $$$$$$+$$$$$$$$$$$$$$$$+$$ ;;",
";;;;;; $$$$$$$$$$$$+++++++$$$$$$$ ;;",
";;;;;; $$$$$$$$$$$$$$$$$$$$$$$$$$ ;;",
";;;;;;; +@$$$$$$$$$$$$$$$$$$$$$+ ;;;",
";;;;;;;; +++$$$$$$$$$$$$$$$$+++ ;;;;",
";;;;;;;;    $$$$$$$$$$$$$$$$    ;;;;",
";;;;;;;; $$$$$$$$$$$$$$$$$$$$ ++ ;;;",
";;;;;;; $$#$$$$$==========$$$ ++ ;;;",
";;;;;; +$$$$$ *============$$ +++ ;;",
";;;;;; +$$$+ $$============$$ +++ ;;",
";;;;;; ++++ $$$============$$ +++ ;;",
";;;;;;;    +$%$============$$    ;;;",
";;;;;;;;;; +$$$$==========$$$ ;;;;;;",
";;;;;;;;;; +$$$$==========$$$ ;;;;;;",
";;;;;;;;;; +$&$           $$$ ;;;;;;",
";;;;;;;;;; +$$$ ;;;;;;;; +$$$ ;;;;;;",
";;;;;;;;;; +$$+ ;;;;;;;; +$$+ ;;;;;;",
";;;;;;;;;; +++ ;;;;;;;;; +++ ;;;;;;;",
";;;;;;;;;;;   ;;;;;;;;;;;   ;;;;;;;;"
};
