/* XPM */
static char *result[] = {
/* columns rows colors chars-per-pixel */
"36 36 6 1 ",
"  c #3E4774",
". c #68709A",
"X c #A4A8C3",
"o c #93E9C1",
"O c #F5FFE9",
"+ c None",
/* pixels */
"++++++++++++++oooo++++++++++++++++++",
"++++++++++++++oooo++++++++++++++++++",
"++++oooooooooo++++++++++++oooo++++++",
"++++oooooooooo++++++++++++oooo++++++",
"++ooooOO..  oooooo++oooooo++++++++++",
"++ooooOO..  oooooo++oooooo++++++++++",
"ooooXXXX....  oooooooooooooo++oooo++",
"ooooXXXX....  oooooooooooooo++oooo++",
"++ooOOXXXXXXoooooo....      oo++++++",
"++ooOOXXXXXXoooooo....      oo++++++",
"++ooooooOOOOoooo..........    oooo++",
"++ooooooOOOOoooo..........    oooo++",
"++ooooooooooooXXXXXX........    oo++",
"++ooooooooooooXXXXXX........    oo++",
"oo++++ooooooooOOXXXXXX........oooo++",
"oo++++ooooooooOOXXXXXX........oooo++",
"++++++++++ooooooOOXXXXXX....oooooooo",
"++++++++++ooooooOOXXXXXX....oooooooo",
"++++++++ooooooooooooXXXXOO..oooooo++",
"++++++++ooooooooooooXXXXOO..oooooo++",
"++++ooooooooooooooooOOOOooOOoooooo++",
"++++ooooooooooooooooOOOOooOOoooooo++",
"++oooo....      oooooooo    oooooo++",
"++oooo....      oooooooo    oooooo++",
"++ooXXXX....      ooooXX....  oo++++",
"++ooXXXX....      ooooXX....  oo++++",
"ooOOXXXXXX......  ooooOOXX..OOoo++++",
"ooOOXXXXXX......  ooooOOXX..OOoo++++",
"++ooOOXXXXOOXX..ooooooooOOXXOOoooo++",
"++ooOOXXXXOOXX..ooooooooOOXXOOoooo++",
"++ooOOXXOOooOOOOooooooooooOOoo++++++",
"++ooOOXXOOooOOOOooooooooooOOoo++++++",
"++oooooooooooooooooo++++++oo++++++++",
"++oooooooooooooooooo++++++oo++++++++",
"oooo++++oooooooo++++++++++++oooo++++",
"oooo++++oooooooo++++++++++++oooo++++"
};
