/* XPM */
static char *result[] = {
/* columns rows colors chars-per-pixel */
"36 36 6 1 ",
"  c #373D5E",
". c #4B6886",
"X c #4EA5B9",
"o c #93E9C1",
"O c #F5FFE9",
"+ c None",
/* pixels */
"++++++++++++++++++++++++++++++++++++",
"++++++++++++++++++++++++++++++++++++",
"++++++++++++++++++++++++OOOOOO++++++",
"++++++++++++++++++++++++OOOOOO++++++",
"++++++++++++++++++++++++++++++OOOO++",
"++++++++++++++++++++++++++++++OOOO++",
"++++++++oo++OOOOOOOOOO++oooooo++++OO",
"++++++++oo++OOOOOOOOOO++oooooo++++OO",
"++++++OOooOOooXXXXXXooooooOOOOOO++++",
"++++++OOooOOooXXXXXXooooooOOOOOO++++",
"++++OOooooooXXooooooooXXXX..ooooOO++",
"++++OOooooooXXooooooooXXXX..ooooOO++",
"++OOXXooooXXooooooooXXXX..ooooooOO++",
"++OOXXooooXXooooooooXXXX..ooooooOO++",
"OOooXXoooo....XXXXXX......XXooooooOO",
"OOooXXoooo....XXXXXX......XXooooooOO",
"OOooooXX..                ..XXooooOO",
"OOooooXX..                ..XXooooOO",
"OOooooooXX..            ..ooooXXooOO",
"OOooooooXX..            ..ooooXXooOO",
"++OOooXX..XXXXXXooooooooXXooooXXOO++",
"++OOooXX..XXXXXXooooooooXXooooXXOO++",
"++++OOOOOOOOXXooooooooXXooOOOOoo++++",
"++++OOOOOOOOXXooooooooXXooOOOOoo++++",
"OO++++oooooooooooXXXXXooOO++++oo++++",
"OO++++oooooooooooXXXXXooOO++++oo++++",
"++OOOO+++++++++++OOOOOOO++++++++++++",
"++OOOO+++++++++++OOOOOOO++++++++++++",
"++++OOOO++++++++++++++++++++++++++++",
"++++OOOO++++++++++++++++++++++++++++",
"++++++++OOOOOO++++++++++++++++++++++",
"++++++++OOOOOO++++++++++++++++++++++",
"++++++++++++++++++++++++++++++++++++",
"++++++++++++++++++++++++++++++++++++",
"++++++++++++++++++++++++++++++++++++",
"++++++++++++++++++++++++++++++++++++"
};
