/* XPM */
static char *result[] = {
/* columns rows colors chars-per-pixel */
"36 36 6 1 ",
"  c #373D5E",
". c #4B6886",
"X c #4EA5B9",
"o c #93E9C1",
"O c #F5FFE9",
"+ c None",
/* pixels */
"++++++++++++++++++++++++++++++++++++",
"++++++++++++++++++++++++++++++++++++",
"++++++++++++++++++++++++++++++++++++",
"++++++++++++++++++++++++++++++++++++",
"++++++++++++++++++++++++++++++++++++",
"++++++++++++++++++++++++++++++++++++",
"++++++++++++++++oooooooooooo++++++++",
"++++++++++++++++oooooooooooo++++++++",
"++++++++ooooooooOOOOOOXXXXXXoooo++++",
"++++++++ooooooooOOOOOOXXXXXXoooo++++",
"++++++ooooXXXXXXXXooooooooOOXXXXoo++",
"++++++ooooXXXXXXXXooooooooOOXXXXoo++",
"++++ooooXXOOOOooooXXXXXXXXooooXXoo++",
"++++ooooXXOOOOooooXXXXXXXXooooXXoo++",
"++ooooXXXXOOooooooooooXXXXooOOXXoooo",
"++ooooXXXXOOooooooooooXXXXooOOXXoooo",
"ooooXXXXOOooXXXXooooooooXXXXooOOXXoo",
"ooooXXXXOOooXXXXooooooooXXXXooOOXXoo",
"++ooXXOOooXX..          ..XXooOOXXoo",
"++ooXXOOooXX..          ..XXooOOXXoo",
"++ooooXXOOoooooooo....ooXXooooOOXXoo",
"++ooooXXOOoooooooo....ooXXooooOOXXoo",
"++++ooooXXXXooooXXXXooooooooOOXXoooo",
"++++ooooXXXXooooXXXXooooooooOOXXoooo",
"++++++++ooooXXOOOOooooOOOOOOXXoo++++",
"++++++++ooooXXOOOOooooOOOOOOXXoo++++",
"++++++++++++ooXXXXXXOOXXXXXXoo++++++",
"++++++++++++ooXXXXXXOOXXXXXXoo++++++",
"++++++++++++oooooooooooooooo++++++++",
"++++++++++++oooooooooooooooo++++++++",
"++++++++++++++++++++++++++++++++++++",
"++++++++++++++++++++++++++++++++++++",
"++++++++++++++++++++++++++++++++++++",
"++++++++++++++++++++++++++++++++++++",
"++++++++++++++++++++++++++++++++++++",
"++++++++++++++++++++++++++++++++++++"
};
