/* XPM */
static char *result[] = {
/* columns rows colors chars-per-pixel */
"29 38 12 1 ",
"  c #211F30",
". c #076029",
"X c #48475B",
"o c #28860F",
"O c #72A11D",
"+ c #EA71BD",
"@ c #AFBBC3",
"# c #F89CC0",
"$ c #FBCDD6",
"% c #D8E1E4",
"& c white",
"* c None",
/* pixels */
"*****************************",
"*****************************",
"*****************************",
"***************  ************",
"************** O ************",
"**************.O ************",
"************** o.************",
"************** o ************",
"************** . ************",
"*************     ***********",
"***********  &&&&&  *********",
"********** &&&&&@&&& ********",
"********* &&&&&&&&@@& *******",
"******** &&&&&&&&&@@& *******",
"******* &&&&&&&&&&&&&& ******",
"******* &&&&&&&&&&&&@& ******",
"****** &&&&&&&&&&&&&&&& *****",
"****** &&&&&&&&&&&&&&&& *****",
"****  XXXX&XXXXX&&&&&&@@ ****",
"*** % &&&X&X&&&X&&&&&&&&& ***",
"** %* &&&X&X&&&X&&&&&&&&&& **",
"** % @XXX@&@XXX@&&&&&&&&&& **",
"** % &&&&&&&&&&&&&&&&&&&&& **",
"*** &&&&&&&&&&&&&&&&&&@&&@ **",
"*** &$$$$$$$&&&&&&&&&$$+  @ *",
"*** $&&&&&&&$&&&&&&&$&&&&@+ *",
"*** &#######&$$$$$$$&####+@ *",
"*** #########&&&&&&&#####++ *",
"*** ##################++#++ *",
"*** +###############+#++#++ *",
"**** +##################++ **",
"**** ++++++++##########+++ **",
"***** +++++++++++++ ### + ***",
"***** ++            +### ****",
"***** +++ ********** +++ ****",
"****** ++ ***********   *****",
"*******  ********************",
"*****************************"
};
