/* XPM */
static char *result[] = {
/* columns rows colors chars-per-pixel */
"36 36 14 1 ",
"  c black",
". c #060202",
"X c #060606",
"o c #0B0100",
"O c #0E0201",
"+ c #090909",
"@ c gray6",
"# c #170301",
"$ c #CD2C46",
"% c #FBFBFB",
"& c gray99",
"* c #FDFCFC",
"= c #FEFEFE",
"- c None",
/* pixels */
"------------------------------------",
"------------------------------------",
"----------------------------    ----",
"-----  --------------------  $$  ---",
"----    ------------------  $$$$  --",
"---  $$  ----------------  $$$$$$ --",
"--  $$$$  --------------  $$$$$$  --",
"-  $$$$$$  ------------  $$$$$$  ---",
"-+ $$$$$$$ -----------  $$$$$$  ----",
"--  $$$$$$$  --------  $$$$$$  -----",
"---  $$$$$$$  ------  $$$$$$  ------",
"----  $$$$$$$  ----  $$$$$$  -------",
"-----  $$$$$$$  --  $$$$$$  --------",
"------  $$$$$$$    $$$$$$  ---------",
"-------  $$$$$$$  $$$$$$  ----------",
"--------  $$$$$$$$$$$$$  -----------",
"---------  $$$$$$$$$$$  ------------",
"----------  $$$$$$$$$  -------------",
"-----------  $$$$$$$$ --------------",
"------------ $$$$$$$$ --------------",
"-----------  $$$$$$$$  -------------",
"----------  $$$$$$$$$$  ------------",
"---------  $$$$   $$$$$  -----------",
"--------  $$$$  -  $$$$$  ----------",
"-------  $$$$  ---  $$$$$  ---------",
"------  $$$$  -----  $$$$$  --------",
"-----  $$$$  -------  $$$$$  -------",
"----  $$$$  ---------  $$$$$  ------",
"---  $$$$  -----------  $$$$$  -----",
"--  $$$$  -------------  $$$$$  ----",
"-  $$$$  ---------------  $$$$$  ---",
"- $$$$  -----------------  $$$$$ ---",
"- $$$  -------------------  $$$  ---",
"-  $  ---------------------  $  ----",
"--   -----------------------   -----",
"------------------------------------"
};
