/* XPM */
static char *u0ylq_8b4xq[] = {
/* columns rows colors chars-per-pixel */
"36 36 181 2 ",
"   c #0386E1",
".  c #0084E5",
"X  c #0087E5",
"o  c #0287E4",
"O  c #0084E6",
"+  c #0588E2",
"@  c #0588E3",
"#  c #0188E4",
"$  c #0388E5",
"%  c #0289E5",
"&  c #0288E7",
"*  c #038AE6",
"=  c #0489E4",
"-  c #078AE5",
";  c #048BE7",
":  c #068BE6",
">  c #078CE7",
",  c #0A8AE3",
"<  c #0A8CE4",
"1  c #098CE7",
"2  c #0B8CE7",
"3  c #0E8EE7",
"4  c #0085E8",
"5  c #0087E8",
"6  c #0088E8",
"7  c #0089E8",
"8  c #018AE8",
"9  c #008BE8",
"0  c #008AE9",
"q  c #028BE9",
"w  c #0088EA",
"e  c #0089EA",
"r  c #0089EB",
"t  c #018AEA",
"y  c #008BEA",
"u  c #068BE8",
"i  c #058BEA",
"p  c #038EE9",
"a  c #008CEB",
"s  c #018CEB",
"d  c #038CEA",
"f  c #028DEA",
"g  c #018EEA",
"h  c #038EEB",
"j  c #028FEB",
"k  c #058CE8",
"l  c #078CE9",
"z  c #048DEB",
"x  c #068CEB",
"c  c #008AEC",
"v  c #008BEC",
"b  c #008BED",
"n  c #018BED",
"m  c #008BEE",
"M  c #038BEE",
"N  c #058BEC",
"B  c #018DEC",
"V  c #008CED",
"C  c #038CEC",
"Z  c #028DEC",
"A  c #028EED",
"S  c #038EED",
"D  c #008CEE",
"F  c #008DEE",
"G  c #018DEE",
"H  c #008CEF",
"J  c #008DEF",
"K  c #018DEF",
"L  c #028CEE",
"P  c #028CEF",
"I  c #008EEE",
"U  c #008EEF",
"Y  c #008FEF",
"T  c #038FEE",
"R  c #028EEF",
"E  c #078DEC",
"W  c #068CED",
"Q  c #058EEC",
"!  c #068FED",
"~  c #058EEE",
"^  c #048FEE",
"/  c #068FEF",
"(  c #088DE8",
")  c #098EE9",
"_  c #098EEB",
"`  c #088FEB",
"'  c #0F8FE8",
"]  c #0E8FEA",
"[  c #088EED",
"{  c #088EEF",
"}  c #0791EC",
"|  c #0790EE",
" . c #0B90EB",
".. c #0A91EB",
"X. c #0E90E8",
"o. c #0D90EB",
"O. c #0E91EB",
"+. c #0990EC",
"@. c #0B90ED",
"#. c #0A91ED",
"$. c #0B92EC",
"%. c #0A90EF",
"&. c #0B90EF",
"*. c #0B92EE",
"=. c #0D92ED",
"-. c #0F92ED",
";. c #0D92EF",
":. c #0C93EF",
">. c #1091EC",
",. c #1192ED",
"<. c #1295EF",
"1. c #008AF2",
"2. c #008CF0",
"3. c #008DF0",
"4. c #018CF1",
"5. c #008DF1",
"6. c #008EF0",
"7. c #008FF0",
"8. c #008EF1",
"9. c #008FF1",
"0. c #018FF1",
"q. c #028EF0",
"w. c #038FF1",
"e. c #008CF2",
"r. c #008DF3",
"t. c #008EF3",
"y. c #008FF3",
"u. c #018FF3",
"i. c #058DF0",
"p. c #048EF0",
"a. c #008EF4",
"s. c #008FF4",
"d. c #008EF5",
"f. c #008EF6",
"g. c #0190F0",
"h. c #0090F1",
"j. c #0090F3",
"k. c #0290F2",
"l. c #0391F3",
"z. c #0790F0",
"x. c #0591F2",
"c. c #0690F3",
"v. c #0191F4",
"b. c #0090F5",
"n. c #0090F7",
"m. c #0092F7",
"M. c #0393F6",
"N. c #0593F5",
"B. c #0494F5",
"V. c #0795F7",
"C. c #0A90F1",
"Z. c #0C91F0",
"A. c #0C92F1",
"S. c #0D92F1",
"D. c #0E93F0",
"F. c #0D93F2",
"G. c #0994F3",
"H. c #0D94F0",
"J. c #0F94F3",
"K. c #0894F5",
"L. c #0B95F7",
"P. c #0D98F7",
"I. c #0294F9",
"U. c #1495F0",
"Y. c #1096F5",
"T. c #1698F6",
"R. c #1A9FFE",
"E. c #15A0FF",
"W. c #17A0FE",
"Q. c #1EA0F8",
"!. c #22A7FF",
"~. c #24ABFF",
"^. c #27AAFF",
"/. c #47CCFF",
"(. c #48CDFF",
"). c #4ACDFF",
"_. c #51D2FF",
"`. c #52D2FF",
"'. c #7DFFFF",
"]. c #83FFFF",
"[. c #84FFFF",
/* pixels */
"d f L I 5.8.8.8.J J D h.a.2.1.n.r.5.5.5.K K G G Z Z f f f f f B G J J J ",
"C Z G J 8.8.8.J 6.V V 5 J v.I.s.5.5.5.5.K K G G G B B B B B B B J J J J ",
"L G K 5.8.8.J J p.G.| W.y K.e c K K K K J J J J J J J J J J U U J J J J ",
"K J 5.5.8.8.J G z.[ @.> % :.Y.6 L K K K J J J J J 8.8.t.r.t.t.8.U J J J ",
"5.5.5.r.8.8.J Z A.!.).]._.^.  ;.Z G G G J J 8.8.8.t.t.d.d.d.d.y.8.J J J ",
"5.5.r.r.8.U K Z ` ) ,.3 , < >.: f B G I J J 8.8.t.t.t.d.d.d.d.t.8.J J J ",
"J J 8.8.8.U K Z 8 =.] U.2 <.1 # Z I I I J U 8.8.8.8.8.r.r.r.r.8.J J J J ",
"K J J 8.8.8.J G d k : = ( * ; d G I I I U U 8.8.8.J J J K K K K J J J J ",
"L G K J 8.8.J G L C d d C Z G J J U U U U U J J r G ^ ^ z x i q V 0.k.6.",
"Z Z G J 5.8.J J K G L G K J r.8.8.U U U U U J J x.S 8 # o @ - u n b b D ",
"d Z G J 5.8.8.5.5.J K 5.r.t.f.d.8.U 8.8.U U J J V y i @.O.X.' -.P.l.D J ",
"d Z G J 8.8.8.8.5.5.5.5.r.d.f.d.8.J 5.8.U U J J R ^ E $ + Q.`.'.E.V.J J ",
"Z Z G J 8.8.8.8.J J K 5.8.t.d.t.J G K J J J 8.J J e 0 ! *. .o.H.L.0.c D ",
"Z G J J 8.8.8.5.J G G G J 8.t.8.G L L K J J 8.8.3.D R T 9 X * | G b D 6.",
"G G J 8.r.r.5.J G Z Z Z L G J K C C C L K J 8.t.b.8.3.U Y Y a 7 J J 6.0.",
"G J J 8.8.8.5.J G Z Z Z Z G K K L L L G J U 8.t.t.s.8.3.3.7.g.Y J J D b ",
"J J J J J J J J J G G G G J J J 8.H j.B.V V 7.8.t.y.y.9.8.U I I J J J J ",
"J J J J J J J J J J J J J J J 8.m.2.m F N.J D 7.8.t.t.t.8.U J I J J J J ",
"J J J J J J J J J J J J J J J J j.M.u.O G v G w.5.8.r.r.8.J K G J J J J ",
"J J J J J J J J J J J J J J J J r q.c.p.z.~ C w K 5.r.5.5.K L L K J J J ",
"J J J J J J J J J J J J J J J K c.4 . E & i W i.P K 4.4.4.P L L K J J J ",
"J J J J J J J J J J J J J J J K r { J.D.l _ &.N M P 4.4.P P M L K J J J ",
"J J J J J J J J J J J J J J J G t [ S.o T.@.Z.C.M L K K P P M L K J J J ",
"J J J J J J J J J J J J J J J G / E ~./.[.(.R.F.L G K K K L L Z K J J J ",
"J J J J J J J J J J J J J J J G S Q +.#.$...%.| L G J J J G G B J J J J ",
"J J J J J J J J J J J J J J J I B h Q } } } ! ^ G I U U J J G G J J J J ",
"J J J J J J J J J J J J J J J J I B j p p p h A I U 8.8.U U I I J J J J ",
"J J J J J J J J J J J J J J J J J I B g f f B I J U 8.8.8.U I I J J J J ",
"J J J J J J J J J J J J J J J J 7.U J V s s B I J 8.t.8.8.J G G J J J J ",
"J J J J J J J J J J J J J J J J 8.8.5.K L L G K 5.8.r.r.5.J K G J J J J ",
"J J J J J J J J J J J J J J J 5.r.r.5.K P P K K 5.r.r.r.5.K P G J J J J ",
"J J J J J J J J J J J J J J J 5.e.e.2.4.K K K K 5.5.r.5.5.K K G J J J J ",
"J J J J J J J J J J J J J J J J 5.5.J J J J J J J J 5.J J J J J J J J J ",
"J J J J J J J J J J J J J J J J J J J J J J J J J J J J J J J J J J J J ",
"J J J J J J J J J J J J J J J J J J J J J J J J J J J J J J J J J J J J ",
"J J J J J J J J J J J J J J J J J J J J J J J J J J J J J J J J J J J J "
};
