/* XPM */
static char *kqsoq_2j5dj[] = {
/* columns rows colors chars-per-pixel */
"36 36 239 2 ",
"   c #007FDF",
".  c #0083DF",
"X  c #0085E0",
"o  c #0085E3",
"O  c #0487E1",
"+  c #0085E6",
"@  c #0087E6",
"#  c #0087E7",
"$  c #0088E3",
"%  c #0689E3",
"&  c #0088E6",
"*  c #0089E7",
"=  c #038AE6",
"-  c #0489E4",
";  c #048BE5",
":  c #018CE7",
">  c #078CE7",
",  c #048EE7",
"<  c #0B88E4",
"1  c #088BE5",
"2  c #0A8AE5",
"3  c #0B8DE5",
"4  c #0B8CE7",
"5  c #0C8EE6",
"6  c #0F8FE6",
"7  c #0087E9",
"8  c #0087ED",
"9  c #0089E8",
"0  c #0088E9",
"q  c #0089E9",
"w  c #008AE8",
"e  c #008AE9",
"r  c #008BE9",
"t  c #028BE9",
"y  c #0088EA",
"u  c #0089EA",
"i  c #0089EB",
"p  c #008AEA",
"a  c #018AEA",
"s  c #008BEA",
"d  c #008AEB",
"f  c #008DEA",
"g  c #008CEB",
"h  c #018CEB",
"j  c #038CEA",
"k  c #028DEA",
"l  c #018EEA",
"z  c #008FEA",
"x  c #008EEB",
"c  c #008FEB",
"v  c #028FEB",
"b  c #058CE8",
"n  c #048EE9",
"m  c #048DEB",
"M  c #048FEA",
"N  c #078EEA",
"B  c #0089EC",
"V  c #0089ED",
"C  c #008AEC",
"Z  c #008BEC",
"A  c #008AED",
"S  c #008BED",
"D  c #018BED",
"F  c #008AEE",
"G  c #008BEF",
"H  c #008CEC",
"J  c #018DEC",
"K  c #008CED",
"L  c #008DED",
"P  c #038CEC",
"I  c #028DEC",
"U  c #008EEC",
"Y  c #008FEC",
"T  c #008FED",
"R  c #028EED",
"E  c #038EED",
"W  c #008CEE",
"Q  c #008DEE",
"!  c #018DEE",
"~  c #008CEF",
"^  c #008DEF",
"/  c #018DEF",
"(  c #028CEE",
")  c #028CEF",
"_  c #038DEF",
"`  c #008EEE",
"'  c #008FEE",
"]  c #008EEF",
"[  c #008FEF",
"{  c #028EEF",
"}  c #058EEC",
"|  c #068FED",
" . c #048FEE",
".. c #068FEF",
"X. c #088FE9",
"o. c #0B8DEB",
"O. c #088FEB",
"+. c #0C8DEB",
"@. c #0E8DEA",
"#. c #0E8FEB",
"$. c #0B8DED",
"%. c #088EED",
"&. c #098EED",
"*. c #098FEE",
"=. c #0A8FEE",
"-. c #0F8EED",
";. c #0E8FED",
":. c #0D8FEF",
">. c #118EEB",
",. c #108FEC",
"<. c #0390EA",
"1. c #0491EB",
"2. c #0190EC",
"3. c #0090ED",
"4. c #0190EE",
"5. c #0691EC",
"6. c #0792ED",
"7. c #0490EF",
"8. c #0790EE",
"9. c #0592EE",
"0. c #0B90EB",
"q. c #0D90EA",
"w. c #0E91EB",
"e. c #0990EC",
"r. c #0A91ED",
"t. c #0993EC",
"y. c #0891EF",
"u. c #0B92EE",
"i. c #0C91EC",
"p. c #0E91EC",
"a. c #0C93ED",
"s. c #0F90EE",
"d. c #0D92EF",
"f. c #0C93EF",
"g. c #0E93EE",
"h. c #1191E8",
"j. c #1292E9",
"k. c #1092EA",
"l. c #1593E8",
"z. c #1091ED",
"x. c #1393EE",
"c. c #1491ED",
"v. c #008BF0",
"b. c #018BF0",
"n. c #008CF0",
"m. c #008DF0",
"M. c #018CF1",
"N. c #008DF1",
"B. c #038DF0",
"V. c #008EF0",
"C. c #008FF0",
"Z. c #008EF1",
"A. c #008FF1",
"S. c #018FF1",
"D. c #028EF0",
"F. c #038FF0",
"G. c #008DF2",
"H. c #008DF3",
"J. c #028DF2",
"K. c #008EF2",
"L. c #008FF2",
"P. c #008EF3",
"I. c #018FF3",
"U. c #048EF0",
"Y. c #078FF2",
"T. c #028DF4",
"R. c #008FF4",
"E. c #008EF5",
"W. c #018FF5",
"Q. c #038EF5",
"!. c #008FF6",
"~. c #098FF0",
"^. c #0090F0",
"/. c #0090F1",
"(. c #0091F1",
"). c #0191F2",
"_. c #0090F3",
"`. c #0290F2",
"'. c #0391F3",
"]. c #0490F1",
"[. c #0790F0",
"{. c #0691F0",
"}. c #0792F1",
"|. c #0490F2",
" X c #0591F2",
".X c #0690F2",
"XX c #0692F3",
"oX c #0794F0",
"OX c #0594F2",
"+X c #0492F4",
"@X c #0793F4",
"#X c #0593F7",
"$X c #0B91F0",
"%X c #0A90F1",
"&X c #0992F0",
"*X c #0A93F1",
"=X c #0992F2",
"-X c #0893F2",
";X c #0A93F3",
":X c #0E90F0",
">X c #0C92F1",
",X c #0E93F0",
"<X c #0C90F2",
"1X c #0A95F0",
"2X c #0994F3",
"3X c #0C95F3",
"4X c #0892F4",
"5X c #0A95F4",
"6X c #0B96F5",
"7X c #0A96F7",
"8X c #0E97F5",
"9X c #0D96F6",
"0X c #0E98F3",
"qX c #0797F8",
"wX c #0694FA",
"eX c #0898FB",
"rX c #1396F0",
"tX c #1395F3",
"yX c #1099F7",
"uX c #169BF6",
"iX c #1D98F5",
"pX c #1799F9",
"aX c #1AA1FD",
"sX c #1AA3FF",
"dX c #1FA0FE",
"fX c #24A5FF",
"gX c #27AEFF",
"hX c #29ACFF",
"jX c #3EC0FF",
"kX c #47C6FF",
"lX c #45CCFF",
"zX c #4BCAFF",
"xX c #4DCDFF",
"cX c #53D3FF",
"vX c #55D2FF",
"bX c #56D3FF",
"nX c #82FFFF",
"mX c #89FFFF",
"MX c #8AFFFF",
/* pixels */
"j k ( ` N.Z.P.P.E.!.R.P.L._.V.W W `.W +XA ~ Z._.^ ^ ! ! I I j I ` ] ] ] ",
"P I ! ^ Z.Z.P.P.G.P.Z.~ C L K Z { F.u y V.eX_.B ^ ^ ^ ! ! I I J ` ] ] ] ",
"( ! ! ^ Z.Z.Z.Z.L.'.@X@X-X*X$X8.3Xh 2X{ d S C S.^ ^ ^ ^ ^ ! ! ` ] ] ] ] ",
"/ ^ ^ ^ Z.Z.Z.^ +XXX{.| e.i.w.q.O.j 8X@ h ].i W ^ ] Z.Z.Z.] N.] ] ] ] ] ",
"N.Z.Z.Z.Z.Z.^ ^ }.y.f.uXhXjXxXcXmXaXb y.@ e 7XV.^ Z.H.P.P.Z.H.Z.] ` ^ ^ ",
"Z.Z.Z.Z.Z.Z.^ ! 6X&XN 1 5 j.l.h.1 N u.* -X7.+ V.Z.Z.P.P.P.P.P.Z.^ ` ^ ^ ",
"Z.Z.Z.Z.Z.Z.^ ! I | r.w.k.h.6 3 0.yXm o E F.7 S.Z.Z.Z.Z.Z.Z.Z.Z.^ ! ! ! ",
"Z.Z.Z.Z.Z.^ ^ ! K  .| b - % 1 > j 9 9 5X0 ^ '.S Z.Z.Z.^ ^ ^ ^ ^ ! ! ! ! ",
"^ ^ ^ ^ ^ ^ ^ ^ ^ ! ! I I j j j ! ^ ^ ^ ^ Z.Z.Z.^ V.^ Z e h h s E h i U.",
"^ ^ ^ ^ ^ ^ ^ ^ ^ ] N.^ ^ ^ ! ^ Z.Z.Z.Z.Z.Z.Z.Z.W H d I | 8.} m m }..XD ",
"! ! ! ! ^ ^ Z.Z.Z.Z.H.Z.Z.Z.P.P.P.P.P.P.P.P.Z.Z.`.Z i E 8.O.N N | t {.h ",
"! ! ! ! ^ ^ Z.Z.H.P.P.P.P.P.P.P.P.Z.H.P.P.Z.Z.^ C { 4X{.* e.gXlXnXsX# 5X",
"^ ^ ^ ^ ^ ^ ^ ] Z.Z.Z.Z.Z.Z.Z.Z.Z.] N.Z.Z.Z.N.^ `.p 0 E -Xy.| e.e.| P   ",
"N.^ ^ ^ ^ ^ ^ ^ ^ ^ ^ ^ ^ ^ ^ ^ / ! ! ^ ^ ^ ^ ^ S.V.^ ! d @ e | O.. ;X9X",
"H.Z.Z.Z.Z.Z.^ ^ ^ ! ! ! ! ! ! J I I I ! ! ^ ^ ^ m.m.Z.S.'. X! e *.= a q ",
"H.Z.Z.Z.Z.Z.^ ^ ! ! ! J ( J ( I I P ( ( ! / ^ N.n.L.Z.~ F S K.D.q 8.P E ",
"N.^ ^ ^ ^ ^ ^ ^ ^ ^ ^ ` / ` / / ) ) B.) W M.J.Q.T.8 wXH.H.n.W.N./ ! ! ! ",
"^ ^ ^ ^ ^ ^ ^ ^ ^ ^ ^ ^ ^ ^ ^ ^ / D.J.D.M.N.v.n.M.#XF G n.K.I.V ^ ^ ^ ^ ",
"^ ^ ^ ^ ^ ^ ^ ^ ^ ^ ^ ^ ^ ^ ^ ^ C.` ] ` ] ] ^ Q C Q C.] qXd K ).^ ^ ^ ^ ",
"^ ^ ^ ^ ^ ^ ^ ^ ^ ^ ^ ^ ^ ^ ^ ^ [ Y H f x 3.T T 4.& 4.r U U w OX` ^ ^ ^ ",
"^ ^ ^ ^ ^ ^ ^ ^ ^ ^ ^ ^ ^ ^ ^ ` U z U c 2.2.v l <.1.: 1X$ 0X, X ! ^ ^ ^ ",
"^ ^ ^ ^ ^ ^ ^ ^ ^ ^ ^ ^ ^ ^ ^ ` g v 9.oX6.5.M n t.a.; g.0.O rXX.J ^ ^ ^ ",
"^ ^ ^ ^ ^ ^ ^ ^ ^ ^ ^ ^ ^ ^ ^ ! E 8.&X&Xu.u.,XtXp.z.4 2 x.c.< #.I ^ ^ ^ ",
"^ ^ ^ ^ ^ ^ ^ ^ ^ ^ ^ ^ ^ ^ ^ ! [.y.%X%.%.d.pXdXfXkXzXbXvXMXiX@.P ^ ^ ^ ",
"^ ^ ^ ^ ^ ^ ^ ^ ^ ^ ^ ^ ^ ^ ^ / _  .Y.=X;X>X<X:.:Xs.s.,.-.>.>.;.( ^ ^ ^ ",
"^ ^ ^ ^ ^ ^ ^ ^ ^ ^ ^ ^ ^ ^ ^ ^ ^ [ |. XXX{.Y...~.*.=.&.$.o.+.&.( ^ ^ ^ ",
"^ ^ ^ ^ ^ ^ ^ ^ ^ ^ ^ ^ ^ ^ ^ ] [ [ L.^.(.[ C.[ [ T R R E E I I ! ^ ^ ^ ",
"^ ^ ^ ^ ^ ^ ^ ^ ^ ^ ^ ^ ^ ^ ^ ] A./././.[ [ [ [ [ ' ' L L L L L ^ ^ ^ ^ ",
"^ ^ ^ ^ ^ ^ ^ ^ ^ ^ ^ ^ ^ ^ ^ ] L.A.A.V.V.V.V.[ [ [ [ [ [ [ [ [ ] ^ ^ ^ ",
"^ ^ ^ ^ ^ ^ ^ ^ ^ ^ ^ ^ ^ ^ ^ ^ L.L.Z.Z.Z.Z.Z.Z.[ [ [ [ [ ^.^.^.^ ^ ^ ^ ",
"^ ^ ^ ^ ^ ^ ^ ^ ^ ^ ^ ^ ^ ^ ^ ^ D.D.) / ) / / / M.M.M.M.N.N.K.K.^ ^ ^ ^ ",
"^ ^ ^ ^ ^ ^ ^ ^ ^ ^ ^ ^ ^ ^ ^ / ) ) B.B.B.B.) / b.v.b.M.M.M.M.M.^ ^ ^ ^ ",
"^ ^ ^ ^ ^ ^ ^ ^ ^ ^ ^ ^ ^ ^ ^ ^ / / / / / / / ^ / ^ / ^ ^ ^ ^ ^ ^ ^ ^ ^ ",
"^ ^ ^ ^ ^ ^ ^ ^ ^ ^ ^ ^ ^ ^ ^ ^ ^ ^ ^ ^ ^ ^ ^ ^ ^ ^ ^ ^ ^ ^ ^ ^ ^ ^ ^ ^ ",
"^ ^ ^ ^ ^ ^ ^ ^ ^ ^ ^ ^ ^ ^ ^ ^ ^ ^ ^ ^ ^ ^ ^ ^ ^ ^ ^ ^ ^ ^ ^ ^ ^ ^ ^ ^ ",
"^ ^ ^ ^ ^ ^ ^ ^ ^ ^ ^ ^ ^ ^ ^ ^ ^ ^ ^ ^ ^ ^ ^ ^ ^ ^ ^ ^ ^ ^ ^ ^ ^ ^ ^ ^ "
};
