/* XPM */
static char *_k89a_d6c3q[] = {
/* columns rows colors chars-per-pixel */
"36 36 201 2 ",
"   c #007FDD",
".  c #0081DC",
"X  c #0082E2",
"o  c #0086E5",
"O  c #0287E6",
"+  c #0689E3",
"@  c #0188E4",
"#  c #0388E5",
"$  c #0088E6",
"%  c #0088E7",
"&  c #0089E7",
"*  c #038AE6",
"=  c #0D8FE7",
"-  c #0087E9",
";  c #0088E8",
":  c #0089E8",
">  c #0088E9",
",  c #0288E9",
"<  c #008AE9",
"1  c #0088EA",
"2  c #0089EA",
"3  c #0089EB",
"4  c #008AEA",
"5  c #018AEA",
"6  c #008AEB",
"7  c #008BEB",
"8  c #028BEB",
"9  c #048AE9",
"0  c #058BEA",
"q  c #018CE9",
"w  c #038EE9",
"e  c #008CEB",
"r  c #038CEA",
"t  c #028DEA",
"y  c #018EEA",
"u  c #038EEB",
"i  c #028FEB",
"p  c #058CE8",
"a  c #078CE9",
"s  c #048EE9",
"d  c #048DEB",
"f  c #008AEC",
"g  c #008BEC",
"h  c #008BED",
"j  c #018BED",
"k  c #028AED",
"l  c #008BEE",
"z  c #018BEE",
"x  c #038BEE",
"c  c #058BEC",
"v  c #068AEC",
"b  c #058BEE",
"n  c #008CEC",
"m  c #018DEC",
"M  c #008CED",
"N  c #008DED",
"B  c #038CEC",
"V  c #028DEC",
"C  c #008EEC",
"Z  c #008FEC",
"A  c #038EED",
"S  c #008CEE",
"D  c #018DEE",
"F  c #008CEF",
"G  c #008DEF",
"H  c #018DEF",
"J  c #028CEE",
"K  c #028CEF",
"L  c #038DEF",
"P  c #008EEE",
"I  c #008FEE",
"U  c #008EEF",
"Y  c #008FEF",
"T  c #038FEE",
"R  c #028EEF",
"E  c #048DED",
"W  c #068CED",
"Q  c #058EEC",
"!  c #048CEF",
"~  c #058EEE",
"^  c #048FEE",
"/  c #068FEF",
"(  c #088AE8",
")  c #098BEB",
"_  c #088FE9",
"`  c #088DEA",
"'  c #098EEB",
"]  c #088FEB",
"[  c #0D8EE9",
"{  c #0C8FEA",
"}  c #0B8DED",
"|  c #088EED",
" . c #098EED",
".. c #088CEE",
"X. c #098FEE",
"o. c #0A8FEE",
"O. c #0D8FED",
"+. c #0D8FEF",
"@. c #0090ED",
"#. c #0192EF",
"$. c #0791EC",
"%. c #0490EF",
"&. c #0590EF",
"*. c #0691EE",
"=. c #0792EF",
"-. c #0D90EB",
";. c #0990EC",
":. c #0B90ED",
">. c #0892ED",
",. c #0A90EF",
"<. c #0B90EF",
"1. c #0B92EE",
"2. c #0C91EC",
"3. c #0F90EC",
"4. c #0D92ED",
"5. c #0F92EC",
"6. c #0E90EE",
"7. c #0F90EE",
"8. c #0F91EF",
"9. c #008CF0",
"0. c #008DF0",
"q. c #018CF1",
"w. c #008DF1",
"e. c #038DF0",
"r. c #008EF0",
"t. c #008FF0",
"y. c #008EF1",
"u. c #008FF1",
"i. c #018FF1",
"p. c #028EF0",
"a. c #038FF0",
"s. c #008DF2",
"d. c #008DF3",
"f. c #008FF2",
"g. c #008EF3",
"h. c #008FF3",
"j. c #058DF0",
"k. c #048EF0",
"l. c #058FF1",
"z. c #068EF1",
"x. c #008EF5",
"c. c #098FF0",
"v. c #0090F1",
"b. c #0091F1",
"n. c #0191F1",
"m. c #0090F3",
"M. c #0290F2",
"N. c #0391F3",
"B. c #0392F2",
"V. c #0292F3",
"C. c #0490F1",
"Z. c #0790F0",
"A. c #0691F0",
"S. c #0792F1",
"D. c #0490F2",
"F. c #0690F2",
"G. c #0692F3",
"H. c #0090F5",
"J. c #0393F6",
"K. c #0494F4",
"L. c #0795F7",
"P. c #0891F1",
"I. c #0B91F0",
"U. c #0992F0",
"Y. c #0890F3",
"T. c #0B91F2",
"R. c #0F91F1",
"E. c #0D92F1",
"W. c #0C92F3",
"Q. c #0E94F3",
"!. c #0892F4",
"~. c #0A92F5",
"^. c #0D93F4",
"/. c #0A95F4",
"(. c #0995F6",
"). c #0A94F6",
"_. c #0D98F7",
"`. c #0F98F6",
"'. c #0296F8",
"]. c #0997F9",
"[. c #0B97F8",
"{. c #0D95F8",
"}. c #0A99F9",
"|. c #1196F1",
" X c #1396F1",
".X c #1294F2",
"XX c #1196F3",
"oX c #1797F0",
"OX c #1095F4",
"+X c #1296F8",
"@X c #159AF9",
"#X c #139FFF",
"$X c #1A9FFC",
"%X c #1A9FFE",
"&X c #1D9FFD",
"*X c #41C2FF",
"=X c #4FD0FF",
"-X c #52D5FF",
";X c #83FFFF",
":X c #86FFFF",
">X c #8BFFFF",
/* pixels */
"0 0 B V H U d.g.s.g.0.m.V.2 }.; Z @.Y Y U U t.t.G G K K x x b x H G G G ",
"c B B J H G y.g.H.J.F 2 4 N e T C C P P G U U U G G H K J J x J H G G G ",
"x J J H G G y.y.y.3 g %.=.& p >.A.T R D p.r.G S G G G H D D J D G G G G ",
"D D H G G G y.G h D V Q @ 4.-.|.`./.F.L e.p.G h G G G G P P P P G G G G ",
"G G w.y.U U G G G.% 9 # 5.= >X*X@X{.Y.L K H G S U U U U P P Z P G G G G ",
"U U y.y.U U G G 2 ^ | a + = oX[ OX~.j.j z H G G U U U U P I Z Z G G G G ",
"U U U U U U G G R V $ * ` { .  Xc.z.! J z S G r.G G P P P P C C G G G G ",
"U U U U U U G G h G.A < r 9 I.o E L R R H S G G G G P D D D m m G G G G ",
"P P P P U U y.y.y.G G G H H H D P P G G G U U U S i.6 k.^ % 8 V p.r.r.i.",
"P P P P G U y.y.y.y.y.d.d.d.d.y.U I U U U U U U M.1 k.k 5 T.W E M h f S ",
"m m D P G G y.y.g.g.g.x.x.x.x.h.u.Y Y Y Y Y U U i.S - k c v  .W [.N.S S ",
"D D D D G G y.y.y.g.g.x.x.x.x.h.u.Y Y Y Y Y U U h 1 ).x W...%X:X#X].r.S ",
"H H H H G G G G G y.y.g.d.g.g.y.Y Y U U y.y.U U N.h C.L X , Q.Z.(.M.S h ",
"H H H H G G G G G G G G G G U U G G G G w.y.U U r.1 a.> /._.  S.M h S r.",
"w.w.w.w.H H D D D m m m m m m m H H H H q.w.w.w.1 L.P 4 < % y T P G r.M.",
"w.w.w.w.H H D D D m V m V m V m J H H H w.w.y.y.M.3 N B.P P #.7 i.S h G ",
"G G G G G G G G G P D P D P D P M S U y.s.s.y.f.v.U n.K.2 b.h f.U G G G ",
"G G G G G G G G G G G G G G G G N P U y.s.s.y.y.t.n ; N v.f.'.0.U G G G ",
"G G G G G G G G G G G G G G G G M D r.U y.0.0.w.3 a.R (.2 h l l G G G G ",
"G G G G G G G G G G G G G G G G j J p.r.w.9.9.S l.; ~ 8 : !.H D.G G G G ",
"G G G G G G G G G G G G G G G G J J p.r.w.9.H J c o E.O o., Z.1 H G G G ",
"G G G G G G G G G G G G G G G P D m D H w.G L E ,.XX( 6.} ) +XB D G G G ",
"G G G G G G G G G G G G G G G P D m D N S G k./ X.' 8.3.7..XR.W D G G G ",
"G G G G G G G G G G G G G G G P P C N N S G a.A.X.$X;X-X=X&X+.^.D G G G ",
"G G G G G G G G G G G G G G G P P Z P I U U P m U.1.2.2.O.:.<.P.D G G G ",
"G G G G G G G G G G G G G G G P P Z I I Y Y P C *.$.;._ ] ] | &.D G G G ",
"G G G G G G G G G G G G G G G P P Z I Y u.Y P C i w s s d u V m P G G G ",
"G G G G G G G G G G G G G G G G P P U Y y.y.U P m y t q q e e N G G G G ",
"G G G G G G G G G G G G G G G G P P U Y y.y.y.U D m V V V D G G G G G G ",
"G G G G G G G G G G G G G G G G D D G U y.y.y.w.H D J J D r.f.f.G G G G ",
"G G G G G G G G G G G G G G G H J J H w.d.d.w.w.H D J J H w.f.f.G G G G ",
"G G G G G G G G G G G G G G G H J K H q.w.w.w.w.S S M H G w.y.y.G G G G ",
"G G G G G G G G G G G G G G G G H H G G G G G G G G G G G G G G G G G G ",
"G G G G G G G G G G G G G G G G G G G G G G G G G G G G G G G G G G G G ",
"G G G G G G G G G G G G G G G G G G G G G G G G G G G G G G G G G G G G ",
"G G G G G G G G G G G G G G G G G G G G G G G G G G G G G G G G G G G G "
};
