/* XPM */
static char *hr8q5_x43g1[] = {
/* columns rows colors chars-per-pixel */
"36 36 41 1 ",
"  c #0385DE",
". c #0086E5",
"X c #038BE6",
"o c #0B8CE5",
"O c #0086E9",
"+ c #018DEE",
"@ c #0B8EEB",
"# c #148BE4",
"$ c #1B8DE5",
"% c #128EE9",
"& c #1C8FE8",
"* c #0490E7",
"= c #0391EE",
"- c #0B91EC",
"; c #1091E6",
": c #1493EC",
"> c #1A91EF",
", c #0087F1",
"< c #008DF2",
"1 c #0A8EF2",
"2 c #0291F2",
"3 c #0C94F4",
"4 c #0D98F7",
"5 c #0595FA",
"6 c #0D93FB",
"7 c #0699FA",
"8 c #1395F2",
"9 c #1699F3",
"0 c #1898F1",
"q c #1696FB",
"w c #239CF9",
"e c #2BADFF",
"r c #3EBEFF",
"t c #47C6FF",
"y c #4AC6FF",
"u c #4ECAFF",
"i c #53CBFF",
"p c #59CCFF",
"a c #56D2FF",
"s c #8BFFFF",
"d c #9AFFFF",
/* pixels */
"2+++=+7O=+===+-++<+<<+++++X+++X=++++",
"<++++++2+=+X++.++<<<+++++++++X++<++<",
"+<7223-X@3=X42+=++++<+<++++<+++=++<+",
"<+,2.@o0%oo:X33+<<++++++++<<<<<+<+++",
"6,110>dppppwiq61+++++++<<<2<<<5<<+++",
",,,@o%$$###%811++++=++2<<<<<2<<<<++<",
"<52.X0 %;;;-+32=++++<+2<2<<<<<<<+<++",
"2,+==XXXX*XX++==++++++<<<<<,<<<<++<+",
"2===<<==+==+=+==++++<=++<<+XO@X++++<",
"+=++<<<22++=++X++2++++<++<.X@.%X+<++",
"@O++<<<<<<<+,+@X=+<2+=+<+<@@@::@=<<+",
",@++<<<<<<,<1O+++<<<+<+++XXX8sre=2<+",
"++<++2<2<<<<++<<++++<+<+<@++3-:+2<+<",
"<<++++++<<+<+2<2++++++<<O2++X.-X=<++",
"<<<<+++X<X++<<<<O+++<+<<2<++=++.<++<",
"<<<<++oXX+++<2<<1@++<<<<<,<<+2+2+<++",
"<<=+++++++++<<<<O<<,+<<<<<<<<<,+++++",
"+2++X+++++22<5<<<,<<++,<<<<<<<<<<+<+",
"==<+1++++=<O+,O1+++<++==<++++2<2<+<+",
"<+++,++<++++7+3+X+X-+X=*+==+++=2++++",
"++++<,<<3++2..-.X-****=X=X++=++=++,+",
"=++<<<<<,=+++8X:oo; --+----++++++<+<",
"=++<<<<<O2=++o0%;o:o:: :--@+@X+++++<",
"++++<<<<5.+=@0saauiyatet8381<++++<++",
"+++<<<<<<++-+o%%%%%;@@%@313+1+++++++",
"X=++<<<<+<=+@@ooo@@--@-=+1+2++,,<+<+",
"==+<,<<<<+=+Xoo@+++X+++=+2<<+<<2<+<+",
"++++<<<<<++++++XX+++++++=+2+222<++++",
"2+<+<<++++=++++<==2<=2222+<+==+=+<++",
"++++++<+<+<++<<<<2<2<<<<+++++<+<+++<",
"=<++++++++<+<<<<<<<<+<,<+++++++++<++",
"+++++++++=++<<<,<<<,<<<,+++@,+++++<<",
"+++<+<+++++++<<<<+<++++++++<++++++<+",
"<++++++<+<<+<++++++<+<<+<+++<+<+<+++",
"++<++<+++++++++++<++++++<+<+<+<+++<+",
"+<++++<<+<<++<+,+<+<+<<++,+++++++<++"
};
