/* XPM */
static char *_9de1f1ce9194b38ad2f24c2e4cfe46dzSsDGRcYgrCpAqQx[] = {
/* columns rows colors chars-per-pixel */
"16 16 2 1 ",
"  c #4C6885",
". c #4FA4B8",
/* pixels */
"..            ..",
"    .......     ",
" ...............",
"         ...... ",
"                ",
"....           .",
"......      ....",
"..       .......",
"                ",
"     ...        ",
"  ...........   ",
"       .........",
"...             ",
".......       ..",
"    ......      ",
"            ...."
};
