/* XPM */
static char *result[] = {
/* columns rows colors chars-per-pixel */
"36 36 56 1 ",
"  c #008AEE",
". c #008BEE",
"X c #008AEF",
"o c #008BEF",
"O c #008CEE",
"+ c #008DEE",
"@ c #008CEF",
"# c #008DEF",
"$ c #008EEF",
"% c #088FEF",
"& c #0891ED",
"* c #0890EE",
"= c #0891EE",
"- c #0890EF",
"; c #0891EF",
": c #1093EF",
"> c #008BF0",
", c #008BF1",
"< c #008CF0",
"1 c #008DF0",
"2 c #008CF1",
"3 c #008DF1",
"4 c #008EF0",
"5 c #008EF1",
"6 c #008CF2",
"7 c #088FF0",
"8 c #0890F0",
"9 c #0891F0",
"0 c #0890F1",
"q c #0891F1",
"w c #0892F0",
"e c #0892F1",
"r c #1092F0",
"t c #1093F0",
"y c #1093F1",
"u c #1094F0",
"i c #1896F1",
"p c #1A97F1",
"a c #1A98F0",
"s c #1A99F0",
"d c #1A98F1",
"f c #1A99F1",
"g c #1A98F2",
"h c #1A99F2",
"j c #2099F0",
"k c #229CF1",
"l c #38A5F3",
"z c #38A6F2",
"x c #38A6F3",
"c c #38A4F4",
"v c #38A6F4",
"b c #63B8F5",
"n c #63B9F5",
"m c #63B8F6",
"M c #78C2F6",
"N c #78C2F7",
/* pixels */
"33#313q:339q-9<@1<1@#<#<@#<e311335#@",
"<#<999;8tt8221<1-9<33#<#1<%@94119<1#",
"2<8w1<2<32q9889q3233221#1;;8;r91113<",
"39<;93<336336423<t812<22;#11<;8<1154",
"##3@112>><1<<132<23>3@4@1111<<#>#w4#",
"@@<fzNv1n<<311361hvvN3bp41<11<<#1531",
"<1#131<3<2>@888232<13311221<111<1151",
"<3<>13<<1122o13<133<16412<1#1#@1@<@2",
"33331131414#1<#>111<332><3#11###@@@o",
"<3<13#111<###1>$8qq8-32@>o<qaf<lMa>#",
"111<<<<<1<1111>8-83-tu89<331<<<11311",
"21<<211<<<99<9,>>&8=*-93889q8qq99-<@",
"3<1332<2##@#@@@>oX@1#-ijtju0<2<233@3",
"<<<,2@>2#1>+O@.>o 8r998q80uy832<<1><",
"1<zbd#2##1@<1#+@oO>o<11<115233<11121",
"1<21911<9@##<@@1<<<<<<<1<11123<31109",
"<##111<-<1118o@<<<1<<2013;133<22123#",
"11##<<#2<131#<#@<1<1121<1<4n1xNff<3<",
"11111#>>11<<@<1@1122231111<<1<1333#2",
"1<11<<111g1hcN#21<33313113<1@1#3323#",
"<11>@#11212@<1#3111112133111114#4@21",
"111<2#1113<<2311<13hfN1v111111111113",
"<1<<11#11<221101<111313111111<<<41#<",
"<232#1<1<311#31913311131111111<<<141",
"<,<#1#1911##9#3313qq1331111119<<<<<1",
"1<>,111<9q9;9#3113331399111111<<<<11",
"23<#121811#119999qqq9311111111<<<<11",
"1@1;311113##111113331q9kkfxN1x<<<<14",
"1##11111331#111113331331111111<<<<11",
"<@#11111331#111119q999q9991111<<<#1#",
"3@sxM1f1333<11<1<11131311999998811<<",
"3#+<#111332<2111<13311131111111<4#1<",
"1@#3#11<23m@xfs11111131331111fxNx<32",
"3##;3@9<1311<1#<1<1331311q0q9;11<<21",
"21#t1qq89982@11#11<23313911<<31<<311",
"37,<319890q1;89;9111133991111113131<"
};
