/* XPM */
static char *result[] = {
/* columns rows colors chars-per-pixel */
"36 36 23 1 ",
"  c #211F30",
". c #076029",
"X c #9C1B4D",
"o c #CC3048",
"O c #E44A4A",
"+ c #28860F",
"@ c #709F1C",
"# c #6EA01C",
"$ c #70A01D",
"% c #72A11D",
"& c #73A11D",
"* c #74A31C",
"= c #74A21D",
"- c #A3CE3F",
"; c #A2CA41",
": c #A3CB41",
"> c #A4CC42",
", c #A5CC42",
"< c #A5CD42",
"1 c #A6CE44",
"2 c #A8D044",
"3 c white",
"4 c None",
/* pixels */
"444444444444         444      444444",
"44444    44 %%%%%%%%% 4 %%%%%% 44444",
"4444 OOOO 4 %%%%%%%%% 4 %%%%%% 44444",
"4444 ooooX                     44444",
"44444   X XoOOOOooOooooooOoOOOO 4444",
"4444 ooX    XXXXooXooooooXoXXX  4444",
"4444 OOo XXoooooooooooooooooooo 4444",
"4444 OOo XXoooooooooooooooooooo 4444",
"4444 OOo                        4444",
"4444 OO  +++++.333333.+.333333.+ 444",
"4444    ++++++.333333.+.333333.+ 444",
"4444444 +%%%%%+......+%+......+% 444",
"4444444 %%%%%%%%%%%%%%%%%%%%%%%% 444",
"4444444 %%%%%%................%% 444",
"4444444 %%%%%+%%%%%%%%%%%%%%%%+% 444",
"4444444 %%%%%%%%%%%+++++++%%%%%% 444",
"4444444 %%%%%%%%%%%%%%%%%%%%%%%% 444",
"44444444 +%%%%%%%%%%%%%%%%%%%%+ 4444",
"444444444 +%%%=%%%%%%%%%%%%%%+ 44444",
"444444444 %%%#%%&@@@@@%%%*%++ 444444",
"444444444 %%%%+%%%%%%%%%%%%  4444444",
"444444444 %%%% %>:;;;;;;>>%% 4444444",
"444444444 ++++ >-,>>>>>>>>>% 4444444",
"4444444444    %>2>>>>>>>>1>% 4444444",
"4444444444 +%%%>1>>>>>>>>1>% 4444444",
"4444444444 +%$%>><<<<<<<<>>% 4444444",
"444444444 +%#%%%>>>>>>>>>>%%% 444444",
"444444444 +%%%%           %%% 444444",
"444444444 +++++ 444444444 +++ 444444",
"4444444444     44444444444   4444444",
"444444444444444444444444444444444444",
"444444444444444444444444444444444444",
"444444444444444444444444444444444444",
"444444444444444444444444444444444444",
"444444444444444444444444444444444444",
"444444444444444444444444444444444444"
};
