/* XPM */
static char *result[] = {
/* columns rows colors chars-per-pixel */
"36 36 20 1 ",
"  c #211F30",
". c #076029",
"X c #9C1B4D",
"o c #CC3048",
"O c #E44A4A",
"+ c #28860F",
"@ c #6C9F1B",
"# c #70A01C",
"$ c #70A01D",
"% c #70A11D",
"& c #71A11D",
"* c #72A11D",
"= c #73A11D",
"- c #73A21D",
"; c #74A31C",
": c #74A21D",
"> c #75A21D",
", c #A4CC42",
"< c white",
"1 c None",
/* pixels */
"111111111111         111      111111",
"11111    11 ********* 1 ****** 11111",
"1111 OOOO 1 ********* 1 ****** 11111",
"1111 ooooX                     11111",
"11111   X XoOOOOooOoooooOooOOOO 1111",
"1111 ooX    XXXXooXoooooXooXXX  1111",
"1111 OOo XXoooooooooooooooooooo 1111",
"1111 OOo XXoooooooooooooooooooo 1111",
"1111 OOo                        1111",
"1111 OO  +++++.<<<<<<.+.<<<<<<.+ 111",
"11111    +++++.<<<<<<.+.<<<<<<.+ 111",
"1111111 +%***#+......+*+......+* 111",
"1111111 ************************ 111",
"1111111 ****-*...............*** 111",
"1111111 ***:*+***************+** 111",
"1111111 *>==*******+++++++****** 111",
"1111111 ***==:****************** 111",
"11111111 +*:*******$$$$$$&$**** 1111",
"111111111 ***************:***+ 11111",
"111111111 ***************;*++ 111111",
"111111111 +***+ ***********  1111111",
"1111111111 ***** ,,,,,,,,,** 1111111",
"1111111111 +++++ ,,,,,,,,,,* 1111111",
"1111111111 .    ,,,,,,,,,,,* 1111111",
"111111111 +****,,,,,,,,,,,,** 111111",
"111111111 +****,,,,,,,,,,,,*** 11111",
"111111111 +*:***,,,,,,,,,,@**** 1111",
"11111111 +****+           +$*** 1111",
"11111111 +++++ 11111111111 ++++ 1111",
"111111111     1111111111111    11111",
"111111111111111111111111111111111111",
"111111111111111111111111111111111111",
"111111111111111111111111111111111111",
"111111111111111111111111111111111111",
"111111111111111111111111111111111111",
"111111111111111111111111111111111111"
};
