/* XPM */
static char *result[] = {
/* columns rows colors chars-per-pixel */
"36 36 25 1 ",
"  c #211F30",
". c #1A212E",
"X c #20232E",
"o c #076029",
"O c #9C1B4D",
"+ c #A01E4C",
"@ c #A11E4D",
"# c #A31E4D",
"$ c #932345",
"% c #992545",
"& c #CC3048",
"* c #CD3148",
"= c #E44A4A",
"- c #28860F",
"; c #6DA21B",
": c #71A01D",
"> c #71A11D",
", c #72A11D",
"< c #73A11D",
"1 c #74A11D",
"2 c #74A21D",
"3 c #75A21D",
"4 c #A4CC42",
"5 c white",
"6 c None",
/* pixels */
"666666666666666666666666666666666666",
"666666666666666666666666666666666666",
"666666666666666666666666666666666666",
"66666    6666        666      666666",
"6666 ==== 66 ,,,,,,,, 6 ,,,,,, 66666",
"6666 ====O 6 ,,,,,,,, 6 ,,,,,, 66666",
"6666 &&&&O                     66666",
"66666   O O$&===&&=&&&&&==&==== 6666",
"6666 &&O     +#@&&O&*&&&OO&OOO  6666",
"6666 ==& OO%&&&&&&&&&&&&&&&&&&& 6666",
"6666 ==&                        6666",
"6666 ==&X-----o555555o-o555555o- 666",
"6666 = . -----o555555o-o555555o- 666",
"66666  --,,,,,-oooooo-,-oooooo-, 666",
"666666 ,,>1<,,,,,,,,,,,,,,,,,,,, 666",
"666666 ,3,,,,,oooooooooooooooo,, 666",
"666666 ,,,,<,-,,,,,,,,,,,,,,,,-, 666",
"666666 ,,,,2,,,,,,,-------,,,,,, 666",
"666666 ,,,,,,,,<<,,,,,,,,,,<<,;, 666",
"6666666 ,,,,,2,,,,,,,,,,,,,,,,,, 666",
"66666666 -,,,,,,,,,,,,,,,,,,,-- 6666",
"666666666 -,,,,,,:,,,,,,:2,--  66666",
"666666666 ,,,,-,,,,,,,,,,,,  6666666",
"666666666 ,,,, ,444444444,,, 6666666",
"666666666 ,,,, 44444444444,, 6666666",
"666666666 ---- 44444444444,, 6666666",
"6666666666    ,44444444444,, 6666666",
"6666666666 -,,,44444444444,, 6666666",
"666666666 -,,,,44444444444,,, 666666",
"666666666 -,,,,,444444444,,2, 666666",
"666666666 -,,,,          ,,,, 666666",
"666666666 ----- 66666666 ---- 666666",
"6666666666     6666666666    6666666",
"666666666666666666666666666666666666",
"666666666666666666666666666666666666",
"666666666666666666666666666666666666"
};
