/* XPM */
static char *result[] = {
/* columns rows colors chars-per-pixel */
"36 36 18 1 ",
"  c #211F30",
". c #221F30",
"X c #076029",
"o c #9C1B4D",
"O c #CC3048",
"+ c #E44A4A",
"@ c #28860F",
"# c #70A01D",
"$ c #71A11D",
"% c #72A11C",
"& c #72A11D",
"* c #72A11E",
"= c #75A31C",
"- c #74A31D",
"; c #75A21E",
": c #A4CC42",
"> c white",
", c None",
/* pixels */
",,,,,,,,,,,,,,,,,,,,,,,,,,,,,,,,,,,,",
",,,,,,,,,,,,,,,,,,,,,,,,,,,,,,,,,,,,",
",,,,,,,,,,,,,,,,,,,,,,,,,,,,,,,,,,,,",
",,,,,,,,,,,,,,,,,,,,,,,,,,,,,,,,,,,,",
",,,,,,,,,,,,,,,,,,,,,,,,,,,,,,,,,,,,",
",,,,    ,,,          ,,,       ,,,,,",
",,, ++++ , &&&&&&&&&& , &&&&&&& ,,,,",
",,, ++++ , &&&&&&&&&& , &&&&&&& ,,,,",
",,, OOOOo                       ,,,,",
",,,,   o oO++++OO+OOOOOOOO+O++++ ,,,",
",,, OOo .oO++++OO+OOOOOOOO+O++++ ,,,",
",,, ++O    ooooOOoOOOOOOOOoOooo  ,,,",
",,, ++O ooOOOOOOOOOOOOOOOOOOOOOO ,,,",
",,, ++O                          ,,,",
",,, ++  @@@@@X>>>>>>>X@X>>>>>>>X@ ,,",
",,,,   @@@@@@X>>>>>>>X@X>>>>>>>X@ ,,",
",,,,,, @&&&&&@XXXXXXX@&@XXXXXXX@& ,,",
",,,,,, &&&&&&&&&&&&&&&&&&&&&&&&&& ,,",
",,,,,, &&&&&&XXXXXXXXXXXXXXXXXX&& ,,",
",,,,,, &&&&&@&&&&&&&&&&&&&&&&&&@& ,,",
",,,,,, &&&&&&&&&&&@@@@@@@@@=&&&&& ,,",
",,,,,, &&&&&&&&&&&&&&&&&&&&&&&&&& ,,",
",,,,,,, @&&&&&&&&&&&&&&&&&&&#$&@ ,,,",
",,,,,,,, &&&&&&&&&&&&&&&&&&&&&& ,,,,",
",,,,,,,, @@@-&&&&&&&&&&&&&%&@@@ ,,,,",
",,,,,,,     &&&&&&&&&&&&&&&&    ,,,,",
",,,,,, &&&&&&&&::::::::::::&&& @ ,,,",
",,,,, @&&&&& &::::::::::::::&& @@ ,,",
",,,,, @&&&@ &&::::::::::::::&& @@ ,,",
",,,,, @@@@ &&&::::::::::::::&& @@ ,,",
",,,,,,    @&;&&::::::::::::*&&   ,,,",
",,,,,,,,, @&&&&            &&& ,,,,,",
",,,,,,,,,, @&&& ,,,,,,,, @@&&@ ,,,,,",
",,,,,,,,,,,    ,,,,,,,,, @@@@ ,,,,,,",
",,,,,,,,,,,,,,,,,,,,,,,,     ,,,,,,,",
",,,,,,,,,,,,,,,,,,,,,,,,,,,,,,,,,,,,"
};
