/* XPM */
static char *result[] = {
/* columns rows colors chars-per-pixel */
"36 36 25 1 ",
"  c #211F30",
". c #231E31",
"X c #076029",
"o c #9C1B4D",
"O c #CC3048",
"+ c #E3474A",
"@ c #E7484A",
"# c #E44A4A",
"$ c #28860F",
"% c #70A11C",
"& c #70A01D",
"* c #71A11D",
"= c #72A11D",
"- c #73A11D",
"; c #73A21C",
": c #73A31C",
"> c #73A21D",
", c #73A31D",
"< c #74A21D",
"1 c #75A21D",
"2 c #74A21E",
"3 c #A4CC42",
"4 c #A5CD43",
"5 c white",
"6 c None",
/* pixels */
"666666666666666666666666666666666666",
"6666    666         666      6666666",
"666 #### 6 ========= 6 ====== 666666",
"666 #+@# 6 ========= 6 ====== 666666",
"666 OOOOo                     666666",
"6666   o oOO###OO#OOOOO#OO#### 66666",
"666 Ooo  oOO###OO#OOOOO#OO#### 66666",
"666 #OO     oooOOoOOOOOoOOoo   66666",
"666 #OO ooOOOOOOOOOOOOOOOOOOOO 66666",
"666 #O .                       66666",
"666 #O $$$$$$X55555X$$X55555X$$ 6666",
"666 #  $$$$$$X55555X$$X55555X$$ 6666",
"6666  $======$XXXXX$==$XXXXX$== 6666",
"66666 ========================= 6666",
"66666 =======XXXXXXXXXXXXXXX=== 6666",
"66666 ======$===============$== 6666",
"66666 ==,>=======%$$$$$$===%=== 6666",
"66666 =====*&===<==========*=== 6666",
"666666   $=1=============-==== 66666",
"6666666 $ $=-===============$ 666666",
"666666 ===================$$    6666",
"66666 =====>==============  $$$ 6666",
"6666 $========2333333333=== $$$$ 666",
"6666 $$$$$$ :=33344444333== $$$$ 666",
"6666 $$$$$ =;=33333333333== $$$$ 666",
"66666     $=-=33333333333==     6666",
"666666666 $=-=33333333333== 66666666",
"666666666 $====333333333=== 66666666",
"6666666666 $===         === 66666666",
"6666666666 $$$$ 66666 $$$$$ 66666666",
"66666666666    6666666     666666666",
"666666666666666666666666666666666666",
"666666666666666666666666666666666666",
"666666666666666666666666666666666666",
"666666666666666666666666666666666666",
"666666666666666666666666666666666666"
};
