/* XPM */
static char *result[] = {
/* columns rows colors chars-per-pixel */
"36 36 24 1 ",
"  c #211F30",
". c #076029",
"X c #9C1B4D",
"o c #CB2F49",
"O c #CC3048",
"+ c #CF3048",
"@ c #D03048",
"# c #E44A4A",
"$ c #28860F",
"% c #709F1C",
"& c #6FA01C",
"* c #71A01C",
"= c #70A01D",
"- c #72A11D",
"; c #73A11D",
": c #73A21C",
"> c #73A21E",
", c #74A11D",
"< c #74A21D",
"1 c #75A21D",
"2 c #A4CC42",
"3 c #A5CD43",
"4 c white",
"5 c None",
/* pixels */
"5555    555         555      5555555",
"555 #### 5 --------- 5 ------ 555555",
"555 ####X  --------- 5 ------ 555555",
"555 OOOOX                     555555",
"5555   X XO####OO#OOOOO#OO#### 55555",
"555 OOX    XXXXOOXO@+@oXOOXXX  55555",
"555 #OO XXOOOOOOOOOOOOOOOOOOOO 55555",
"555 #OO XXOOOOOOOOOOOOOOOOOOOO 55555",
"555 #OO                        55555",
"555 #   $$$$$.44444.$$.44444.$$ 5555",
"5555  $$$$$$$.44444.$$.44444.$$ 5555",
"55555 -------$.....$--$.....$-- 5555",
"55555 ------------------------- 5555",
"55555 -------...............--- 5555",
"55555 ----;-$---------------$-- 5555",
"55555 ---<,-------$$$$$$------- 5555",
"55555 -----<;------------------ 5555",
"55555    $--------======-&--$   5555",
"5555 $--- $-<-----------<-$$ $$$ 555",
"5555 $------;--*%%%%%%%%--  $$$$ 555",
"5555 $--------------------- $$$$ 555",
"55555 $$$---->-222222222--- $$$ 5555",
"555555     ---22222222222--    55555",
"555555555 $-:-23222222222-- 55555555",
"555555555 $-;-22222222222-- 55555555",
"555555555 $-1-22222222222-- 55555555",
"555555555 $-----$2222222--- 55555555",
"5555555555 $$$---       --$ 55555555",
"55555555555 $$--- 55 $$$$$ 555555555",
"555555555555 $--- 55 $$$$ 5555555555",
"5555555555555    5555    55555555555",
"555555555555555555555555555555555555",
"555555555555555555555555555555555555",
"555555555555555555555555555555555555",
"555555555555555555555555555555555555",
"555555555555555555555555555555555555"
};
