/* XPM */
static char *result[] = {
/* columns rows colors chars-per-pixel */
"36 36 20 1 ",
"  c #211F30",
". c #076029",
"X c #9C1B4D",
"o c #CC3048",
"O c #E44A4A",
"+ c #28860F",
"@ c #278510",
"# c #70A41B",
"$ c #71A01D",
"% c #72A11D",
"& c #73A11D",
"* c #73A31C",
"= c #72A01E",
"- c #74A21D",
"; c #76A21E",
": c #A4CC42",
"> c #A5CD43",
", c #A6CD43",
"< c white",
"1 c None",
/* pixels */
"111111111111111111111111111111111111",
"111111111111111111111111111111111111",
"11111111111         111      1111111",
"1111    11 %%%%%%%%% 1 %%%%%% 111111",
"111 OOOO 1 %%%%%%%%% 1 %%%%%% 111111",
"111 OOOOX                     111111",
"111 oooo XoOOOOooOoooooOooOOOO 11111",
"1111   X XoOOOOooOoooooOooOOOO 11111",
"111 ooX    XXXXooXoooooXooXXX  11111",
"111 OOo XXoooooooooooooooooooo 11111",
"111 OOo                        11111",
"111 OO  +++++.<<<<<<.+.<<<<<<.+ 1111",
"1111   ++++++.<<<<<<.+.<<<<<<.+ 1111",
"11111 +%%%%%%+......+%+......+% 1111",
"11111 %%%%%%%%%%%%%%%%%%%%%%%%% 1111",
"11111 %%%%%%%................%% 1111",
"11111 %%%%%%+%%%++++++++++%%%+% 1111",
"11111 %%%%%%%%%%++++++@+++=%%%% 1111",
"11111 %%%%%%%%%%%%++++++%%%%%#% 1111",
"11111 %%%%%%%%%%%%%%%%%%%%%%%%% 1111",
"111111   +%%%%%%%%%%%%%%%%%%++ 11111",
"111111 ++ +%-%%%$%%%%%%%-%++   11111",
"11111 %%%%%%%%%%%%%%%%%%%%  +++ 1111",
"1111 +%%%%%%%%%:::::::::%%% ++++ 111",
"1111 +%%%%%%*%:::::::::>:%% ++++ 111",
"1111 +++++ %*%:,:::::::::%% ++++ 111",
"11111     +%&%:>:::::::::%%     1111",
"111111111 +%%%:::::::::::%% 11111111",
"111111111 +%;%%:::::::::%%% 11111111",
"111111111 +%%&%:::::::::%%% 11111111",
"1111111111 +%%%         %%% 11111111",
"1111111111 ++++ 11111 +++++ 11111111",
"11111111111    1111111     111111111",
"111111111111111111111111111111111111",
"111111111111111111111111111111111111",
"111111111111111111111111111111111111"
};
