/* XPM */
static char *result[] = {
/* columns rows colors chars-per-pixel */
"36 36 18 1 ",
"  c #211F30",
". c #076029",
"X c #9C1B4D",
"o c #CC3048",
"O c #E44A4A",
"+ c #28860F",
"@ c #378315",
"# c #408219",
"$ c #709F1C",
"% c #71A01C",
"& c #72A11D",
"* c #73A11D",
"= c #73A21D",
"- c #74A11D",
"; c #A3CB41",
": c #A4CC42",
"> c white",
", c None",
/* pixels */
",,,,,,,,,,,,,,,,,,,,,,,,,,,,,,,,,,,,",
",,,,,,,,,,,,,,,,,,,,,,,,,,,,,,,,,,,,",
",,,,,,,,,,,,,,,,,,,,,,,,,,,,,,,,,,,,",
",,,,,,,,,,,,,,,,,,,,,,,,,,,,,,,,,,,,",
",,,,,,,,,,,,,,,,,,,,,,,,,,,,,,,,,,,,",
",,,,,,,,,,,          ,,,       ,,,,,",
",,,,    ,, &&&&&&&&&& , &&&&&&& ,,,,",
",,, OOOO , &&&&&&&&&& , &&&&&&& ,,,,",
",,, ooooX                       ,,,,",
",,,,   X XooOOOooOooooooooOoOOOO ,,,",
",,, ooX     XXXooXooooooooXoXXX  ,,,",
",,, OOo XXoooooooooooooooooooooo ,,,",
",,, OOo XXoooooooooooooooooooooo ,,,",
",,, OOo                          ,,,",
",,, OO  +++++.>>>>>>>.+.>>>>>>>.+ ,,",
",,,,   ++++++.>>>>>>>.+.>>>>>>>.+ ,,",
",,,,, +&&&&&&+.......+&+.......+& ,,",
",,,,, &&&&&&&&&&&&&&&&&&&&&&&&&&& ,,",
",,,,, &&&&&&&..................&& ,,",
",,,,, &&&&&&+&&&&&&&&&&&&&&&&&&+& ,,",
",,,,, &&&&&&&&&&&&+++++++++&&&&&& ,,",
",,,,, &&&&&&&&&&&&&&&&&&&&&&&&&&& ,,",
",,,,,, +&&&&&&&&&&&&&&&&&&&&&&&& ,,,",
",,,,,,, +++&-&&&&&*******&&&&&&+ ,,,",
",,,,,,,,   &&&&%$$$$&&&&&&&&&++ ,,,,",
",,,,,,, &&&&&&&&&&&&&&&&&&&&&    ,,,",
",,,,,, &&&&&&&&::::::::::::&&& ++ ,,",
",,,,, +&=&&& &::::::::::::;:&& +++ ,",
",,,,, +&&&+ &&::::::::::::::&& +++ ,",
",,,,, ++++ &&&::::::::::::::&& +++ ,",
",,,,,,    +&&&&::::::::::::&&&    ,,",
",,,,,,,,, +&&&            &&&& ,,,,,",
",,,,,,,,, +&&@ ,,,,,,,,, +++++ ,,,,,",
",,,,,,,,, +&#+ ,,,,,,,,, +++++ ,,,,,",
",,,,,,,,, +++ ,,,,,,,,,,,     ,,,,,,",
",,,,,,,,,    ,,,,,,,,,,,,,,,,,,,,,,,"
};
