/* XPM */
static char *lt64g_s55j3[] = {
/* columns rows colors chars-per-pixel */
"36 36 6 1 ",
"  c #62143C",
". c #7C1A4C",
"X c #CD2B7C",
"o c #FF5178",
"O c #FFEF84",
"+ c None",
/* pixels */
"++++++++++++++++++++++++++++++++++++",
"++++++++++++++++++++++++++++++++++++",
"++++++++++++++++++++++++++++++++++++",
"++++++++++++++++++++++++++++++++++++",
"++++++++++++++++++++++++++++++++++++",
"++++++++++++++++++++++++++++++++++++",
"++++++++++++++++++++++++++++++++++++",
"++++++++++++++++++++++++++++++++++++",
"++++++XXooooXX++++++++++++++++++++++",
"+++++XXXooooXXX+++++++++++++++++++++",
"++++ooooOOOOoooo++++++++++++++++++++",
"++++ooooOOOOoooo++++++++++++++++++++",
"++++ooooOOOOoooo++++++++++++++++++++",
"++++ XXXooooXXX ++++++++++++++++++++",
"++++. XXooooXX .++++++++++++++++++++",
"+++++.        .+++++++++++++++++++++",
"++++++........++++++++++++++++++++++",
"++++++++++++++++++++++++++++++++++++",
"++++++++++++++++++++++++++++++++++++",
"++++++++++++++++++++++++++++++++++++",
"+++++++XXoooooXX++++++++++++++++++++",
"++++++XXXoooooXXX+++++++++++++++++++",
"+++++ooooOOOOOoooo++++++++++++++++++",
"+++++ooooOOOOOoooo++++++++++++++++++",
"+++++ XXXoooooXXX ++++XXooooXX++++++",
"+++++. XXoooooXX .+++XXXooooXXX+++++",
"++++++.         .+++ooooOOOOoooo++++",
"+++++++.........++++ooooOOOOoooo++++",
"++++++++++++++++++++ooooOOOOoooo++++",
"++++++++++++++++++++ XXXooooXXX ++++",
"++++++++++++++++++++. XXooooXX .++++",
"+++++++++++++++++++++.        .+++++",
"++++++++++++++++++++++........++++++",
"++++++++++++++++++++++++++++++++++++",
"++++++++++++++++++++++++++++++++++++",
"++++++++++++++++++++++++++++++++++++"
};
