/* XPM */
static char *result[] = {
/* columns rows colors chars-per-pixel */
"29 38 13 1 ",
"  c #211F30",
". c #076029",
"X c #48475B",
"o c #28860F",
"O c #72A11D",
"+ c #A4CC42",
"@ c #EA71BD",
"# c #AFBBC3",
"$ c #F89CC0",
"% c #FBCDD6",
"& c #D8E1E4",
"* c white",
"= c None",
/* pixels */
"=============================",
"=============================",
"=============================",
"=============================",
"===========   ===============",
"=========  ++o       ========",
"======== +OOOOo  oO++  ======",
"======== oOOOOo. OOOO+ ======",
"========  oooo o.OOOoo ======",
"==========     o ooo  =======",
"============== .    =========",
"============       ==========",
"==========  *******  ========",
"========= *******#*** =======",
"======== **********##* ======",
"======= ***********##* ======",
"====== **************** =====",
"==  = ***************#**   ==",
"= &&  XXX***XXXX********#** =",
" &&& ****X*X****X******#**** ",
" &&& ****X*X****X*****#***** ",
" &&& ****X*X****X**********# ",
"= & #XXXX#*#XXXX#********** =",
"==  *********************# ==",
"== ************************ =",
"== *%%%%%%%%**********%%%%%# ",
"== %********%********%****#@ ",
"== *$$$$$$$$*%%%%%%%%*$$$$@# ",
"== $$$$$$$$$$********$$@@$@@ ",
"== @$$$$$$$$$$$$$$$$$@$@@$@@ ",
"=== @$$$$$$$$$$$$$$$$$$$$@@ =",
"=== @@@@@@@@@$$$$@ $$$@@@@@ =",
"====  @@@@@@@@@@@ $$$$$@@@ ==",
"====== @@@        $$$$$@  ===",
"======= @@@@ ===== $$$@ =====",
"========    =======    ======",
"=============================",
"============================="
};
